<svg width="1968" height="849" xmlns="http://www.w3.org/2000/svg"><g stroke="#000" fill="none" fill-rule="evenodd" stroke-linejoin="round"><path fill="#F2F2F2" d="M1359.9 258.8h-5.4l-3.8-.5-2.5 2.9-2.1.7-1.5 1.3-2.6-2.1-1-5.4-1.6-.3v-2l-3.2-1.5-1.7 2.3.2 2.6-.6.9-3.2-.1-.9 3-2.1-1.3-3.3 2.1-1.8-.8-4.3-1.4h-2.9l-1.6-.2-2.9-1.7-.3 2.3-4.1 1.2.1 5.2-2.5 2-4 .9-.4 3-3.9.8-5.9-2.4-.5 8-.5 4.7 2.5.9-1.6 3.5 2.7 5.1 1.1 4 4.3 1.1 1.1 4-3.9 5.8 9.6 3.2 5.3-.9 3.3.8.9-1.4 3.8.5 6.6-2.6-.8-5.4 2.3-3.6h4l.2-1.7 4-.9 2.1.6 1.7-1.8-1.1-3.8 1.5-3.8 3-1.6-3-4.2 5.1.2.9-2.3-.8-2.5 2-2.7-1.4-3.2-1.9-2.8 2.4-2.8 5.3-1.3 5.8-.8 2.4-1.2 2.8-.7-1.4-1.9zM1058.3 534.6l-16.6-.1-1.9.7-1.7-.1-2.3.9-.5 1.2 2.8 4 1.1 4.3 1.6 6.1-1.7 2.6-.3 1.3 1.3 3.8 1.5 3.9 1.6 2.2.3 3.6-.7 4.8-1.8 2.8-3.3 4.2-1.3 2.6-1.9 5.7-.3 2.7-2 5.9-.9 5.5.5 4 2.7-1.2 3.3-1 3.6.1 3.2 2.9.9-.4 22.5-.3 3.7 3 13.4.9 10.3-2.5-3.5-4-3.6-5.2.8-20.3 11.6.1-.5-2.2.9-2.4-.9-3 .7-3-.5-2-2.6-.4-3.5 1-2.4-.2-1.4.6.5-7.6-1.9-2.3-.3-4 .9-3.8-1.2-2.4v-4h-6.8l.5-2.3h-2.9l-.3 1.1-3.4.3-1.5 3.7-.9 1.6-3-.9-1.9.9-3.7.5-2.1-3.3-1.3-2.1-1.6-3.8-1.3-4.7Zm-21.8-1.3.2-2.7.9-1.7 2-1.3-2-2.2-1.8 1.1-2.2 2.7 1.4 4.8 1.5-.7Z"/><path fill="#E02020" d="m1067.5 225.5-2 3.1.5 1.9 1 1-.5 1.9-.1 4.3.7 3 3 2.1.2 1.4 1 .4 2.1-3 .1-2.1 1.6-.9V237l-2.3-1.6-.9-2.6.4-2.1-.5-2.3-1.3-.6-1.3-1.6-1.3.5-.4-1.2zM1273.9 333.6l-1.3-2.2-3 3.9-3.7 4.1-3.3 4.3-3.3-.2-4.6-.2-4.2 1-.3-1.7-1 .3.4 1.5 2.6 6.4 16.8 3.2 1-1.3-.1-2.6 1.4-2.6-.3-2.6 2.4-1.3-1.1-.8.1-4.2h2.8l-1.3-5z"/><path d="m659.8 845.7.9-3-7.3-1.5-7.7-3.6-4.3-4.6-3-2.8 5.9 13.5h5l2.9.2 3.3 2.1 4.3-.3Zm-50.4-208.1-7.4-1.5-4 5.7.9 1.6-1.1 6.6-5.6 3.2 1.6 10.6-.9 2 2 2.5-3.2 4-2.6 5.9-.9 5.8 1.7 6.2-2.1 6.5 4.9 10.9 1.6 1.2 1.3 5.9-1.6 6.2 1.4 5.4-2.9 4.3 1.5 5.9 3.3 6.3-2.5 2.4.3 5.7.7 6.4 3.3 7.6-1.6 1.2 3.6 7.1 3.1 2.3-.8 2.6 2.8 1.3 1.3 2.3-1.8 1.1 1.8 3.7 1.1 8.2-.7 5.3 1.8 3.2-.1 3.9-2.7 2.7 3.1 6.6 2.6 2.2 3.1-.4 1.8 4.6 3.5 3.6 12 .8 4.8.9 2.2.4-4.7-3.6-4.1-6.3.9-2.9 3.5-2.5.5-7.2 4.7-3.5-.2-5.6-5.2-1.3-6.4-4.5-.1-4.7 2.9-3.1 4.7-.1.2-3.3-1.2-6.1 2.9-3.9 4.1-1.9-2.5-3.2-2.2 2-4-1.9-2.5-6.2 1.5-1.6 5.6 2.3 5-.9 2.5-2.2-1.8-3.1-.1-4.8-2-3.8 5.8.6 10.2-1.3 6.9-3.4 3.3-8.3-.3-3.2-3.9-2.8-.1-4.5-7.8-5.5-.3-3.3-.4-4.2.9-1.4-1.1-6.3.3-6.5.5-5.1 5.9-8.6 5.3-6.2 3.3-2.6 4.2-3.5-.5-5.1-3.1-3.7-2.6 1.2-.3 5.7-4.3 4.8-4.2 1.1-6.2-1-5.7-1.8 4.2-9.6-1.1-2.8-5.9-2.5-7.2-4.7-4.6-1-11.2-10.4-1-1.3-6.3-.3-1.6 5.1-3.7-4.6Z" fill="#F2F2F2"/><path fill="#E02020" d="m1209 250.1-.9-4.4-2.5-1.1-2.5-1.7 1-2-3.1-2.2.7-1.5-2.2-1.1-1.4-1.7-6.9 1 1.3 2.2v3.1l4.2 1.5 2.4 1.9 1-.2 1.8 1.7h2.3l.2 1 2.8 3.7 1.8-.2z"/><path d="m1716.7 757-3-.5-1.9 2.9-.6 5.4-2.1 4-.5 5.3 3 .2.8.3 6.6-4.3.6 1.7 4-4.9 3.2-2.2 4.5-7.3-2.8-.5-4.8 1.2-3.4.9-3.6-2.2Zm50.1-172.3.5-2.3.1-3.6-1.6-3.2.1-2.7-1.3-.8.1-3.9-1.2-3.2-2.3 2.4-.4 1.8-1.5 3.5-1.8 3.4.6 2.1-1.2 1.3-1.5 4.8.1 3.7-.7 1.8.3 3.1-2.6 5-1.3 3.5-1.7 2.9-1.7 3.4-4.1 2.1-4.9-2.1-.5-2-2.5-1.6h-1.6l-3.3-3.8-2.5-2.2-3.9-2-3.9-3.5-.1-1.8 2.5-3.1 2.1-3.2-.3-2.6 1.9-.2 2.5-2.5 2-3.4-2.2-3.2-1.5 1.2-2-.5-3.5 1.8-3.2-2-1.7.7-4.5-1.6-2.7-2.7-3.5-1.5-3.1.9 3.9 2.1-.3 3.2-4.8 1.2-2.8-.7-3.6 2.2-2.9 3.7.6 1.5-2.7 1.7-3.4 5.1.6 3.5-3.4-.6h-3.5l-2.5-3.8-3.7-2.9-2.8.8-2.6.9-.3 1.6-2.4-.7-.3 1.8-3 1.1-1.7 2.5-3.5 3.1-1.4 4.8-2.3-1.3-2.2 3.1 1.5 3-2.6 1.2-1.4-5.5-4.8 5.4-.8 3.5-.7 2.5-3.8 3.3-2 3.4-3.5 2.8-6.1 1.9-3.1-.2-1.5.6-1.1 1.4-3.5.7-4.7 2.4-1.4-.8-2.6.5-4.6 2.3-3.2 2.7-4.8 2.1-3.1 4.4.4-4.8-3.1 4.6-.1 3.7-1.3 3.2-1.5 1.5-1.3 3.7.9 1.9.1 2 1.6 5-.7 3.3-1-2.5-2.3-1.8.4 5.9-1.7-2.8.1 2.8 1.8 5-.6 5 1.7 2.5-.4 1.9.9 4.1-1.3 3.6-.3 3.6.7 6.5-.7 3.7-2.2 4.4-.6 2.3-1.5 1.5-2.9.8-1.5 3.7 2.4 1.2 4 4.1h3.6l3.8.3 3.3-2.1 3.4-1.8 1.4.3 4.5-3.4 3.8-.3 4.1-.7 4.2 1.2 3.6-.6 4.6-.2 3-2.6 2.3-3.3 5.2-1.5 6.9-3.2 5 .4 6.9-2.1 7.8-2.3 9.8-.6 4 3.1 3.7.2 5.3 3.8-1.6 1.5 1.8 2.4 1.3 4.6-1.6 3.4 2.9 2.6 4.3-5.1 4.3-2.1 6.7-5.5-1.6 4.7-3.4 3.2-2.5 3.7-4.4 3.5 5.2-1.2 4.7-4.4-.9 4.8-3.2 3.1 4.7.8 1.3 2.6-.4 3.3-1.5 4.9 1.4 4 4 1.9 2.8.4 2.4 1 3.5 1.8 7.2-4.7 3.5-1.2-2.7 3.4 2.6 1.1 2.7 2.8 4.7-2.7 3.8-2.5 6.3-2.7 6-.2 4.2-2.3.9-2 3-4.5 3.9-4.8 3.6-3.2 4.4-5.6 3.3-3.1 4.4-5 5.4-3.1 5-5.8 3.1-4.5 1.4-3.6 3.8-5.7 2.1-2.9 2.5-5.7-.7-5.4 1.7-3.9 1.1-3.7v-5.1l-2.8-5.1-1.9-2.5-2.9-3.9.7-6.7-1.5 1-1.6-2.8-2.5 1.4-.6-6.9-2.2-4 1-1.5-3.1-2.8-3.2-3-5.3-3.3-.9-4.3 1.3-3.3-.4-5.5-1.3-.7-.2-3.2-.2-5.5 1.1-2.8-2.3-2.5-1.4-2.7-3.9 2.4-1.2-5ZM1050.2 189l-2.3-1.2-2.3.3-4-1.9-1.7.5-2.6 2.5-3.8-2-1.5 2.9-1.7.8 1 4-.4 1.1-1.7-1.3-2.4-.2-3.4 1.2-4.4-.3-.6 1.6-2.6-1.7-1.5.3.2 1.1-.7 1.6 2.3 1.1 2.6.2 3.1.9.5-1.2 4.8-1.1 1.3 2.2 7.2 1.6 4.2.4 2.4-1.4 4.3-.1.9-1.1 1.3-4-1.1-1.3h2.8l.2-2.6-.7-2.1.3-.8z" fill="#F2F2F2"/><path d="m1200.1 243.9-1 .2 1.2 2.4 3.2 2.9 3.7.9-2.8-3.7-.2-1h-2.3l-1.8-1.7Zm10.4-9.3-4.3-3.8-1.5-.2-1.1.9 3.2 3.4-.6.7-2.8-.4-4.2-1.8-1.1 1 1.4 1.7 2.2 1.1-.7 1.5 3.1 2.2-1 2 2.5 1.7 2.5 1.1.9 4.4 5.3-4.7 1.9-.5 1.9 1.9-1.2 3.1 3.8 3.4 1.3-.3-.8-3.2 1.7-1.5.4-2.2-.1-5 4.2-.5-2-1.7-2.5-.2-3.5-4.5-3.4-3.2-2.6 2.5-.5 1.5-2.4-.4Z" fill="#E02020"/><path fill="#F2F2F2" d="m1138.2 515-.3-2.5-3-.4-1.7 3.6-3.5-.5 1.4 2.9.1 1.1 2 6.1-.1.3.6-.1 2.1-2.3 2.2-3.3 1.4-1.4v-2l-1.2-1.5zM990.7 171.2l-4.4 1.3-3.6-.5-3.8 1.2.7 2.2 2.2.1 2.4 2.4 3.4 2.9 2.5-.4 4.4 2.8.4-3.5 1.3-.2.4-4.2-2.8-1.4-3.1-2.7zM986.9 423l-4.3-3.7h-2l-1.9 1.9-1.2 1.9-2.7.6-1.2 2.8-1.9.7-.7 3.3 1.7 1.9 2 2.3.2 3.1 1.1 1.3-.2 14.6 1.4 4.4 4.6-.8.3-10.2-.1-4.1 1-4 1.7-1.9 2.7-4-.6-1.7 1.1-2.5-1.2-3.8.2-2.1z"/><path fill="#F2F2F2" d="M968.8 402.2h-3.6l-1.4-1.2-3 .9-5.2 2.6-1.1 2-4.3 2.9-.8 1.6-2.3 1.3-2.7-.9-1.6 1.6-.8 4.4-4.5 5.2.2 2.2-1.6 2.7.4 3.7 2.5 1.4 1 2.1 2.5 1.3 1.9-1.6 2.7-.2 3.8 1.6-.8-4.8.2-3.6 9.7-.3 2.4.5 1.8-1 2.6.5 4.9.1 1.9-.7 1.2-2.8 2.7-.6 1.2-1.9.1-4.4-6.4-1.4-.2-3.1-3.1-4.1-.8-2.9.5-3.1zM1476.5 356.9l-4.5-10.1-1.5.1-.2 4-3.5-3.3 1.1-3.6 2.4-.4 1.6-5.3-3.4-1.1-5 .1-5.4-.9-1.2-4.4-2.7-.4-4.8-2.7-1.2 4.3 4.6 3.4-3.1 2.4-.8 2.3 3.7 1.7-.4 3.8 2.6 4.8 1.6 5.2 2.2.6 1.7.7.6-1.2 2.5 1.3 1.3-3.5-.9-2.6 5.1.2 2.8 3.7 1.5 3.1.8 3.2 2 3.3-1.1-5.1 2.1 1-.5-4.6zM1111.6 219.3l-3-.7-4-2.2-5.8 1.4-2.3 1.6-7.5-.3-4-1-1.9.5-1.8-2.6-1.1 1.4.7 2.3 2.8 2.6-1.7 1.9-.7 2 .6.7-.7.9 2.8 2 .8 4.1 3.8.2 3.9-1.7 3.9 2.1 4.6-.6-.3-3 5-2 4.5.8-2.1-3.5 1.3-4.4z"/><path fill="#E02020" d="m1052.2 209.9-2.3.1-1 1.3-1.9-1.4-.9 2.5 2.7 2.9 1.3 1.9 2.5 2.3 2 1.4 2.2 2.5 4.7 2.4.4-3.4 1.5-1.4.9-.6 1.2-.3.5-2.9-2.7-2.3 1-2.7h-1.8l-2.4-1.4-3.5.1-4.4-1z"/><path fill="#F2F2F2" d="m1102.8 144.4-5.2-1.5-4.6 2.3-2.6 1 .9 2.6-3.5 2-.5 3.4-4.8 2.2h-4.6l.6 2.7 1.7 2.3.3 2.4-2.7 1.2 1.9 2.9.5 2.7 2.2-.3 2.4-1.6 3.7-.2 5 .5 5.6 1.5 3.8.1 2 .9 1.6-1.1 1.5 1.5 4.3-.3 2 .6-.2-3.1 1.2-1.4 4.1-.3-2-3.9-1.5-2 .8-.6 3.9.2 1.6-1.3-1.7-1.6-3.4-1.1.1-1.1-2.2-1.1-3.7-3.9.6-1.6-1-2.9-4.8-1.4-2.3.7-1-1.4zM472.5 396.1l1.4-2.2 1-.2 1.3-1.7 1-3.2-.3-.6.9-2.3-.4-1 1.3-2.7.3-1.8h-1.1l.1-.9h-1l-2.5 3.9-.9-.8-.7.3-.1 1-.7 5-1.2 7.2h1.6zM645.7 625.5l1.6-1.3-.8-3.6 1.3-2.8.5-5-1.6-4-3.2-1.7-.8-2.6.6-3.6-10.7-.3-2.7-7.4 1.6-.1-.3-2.8-1.2-1.8-.5-3.7-3.3-1.9-3.5.1-2.5-1.9-3.8-1.2-2.4-2.4-6.3-1-6.4-5.7.3-4.3-.9-2.5.4-4.7-7.3 1.1-2.8 2.3-4.8 2.6-1.1 1.9-2.9.2-4.2-.6 5.5 10.3-1.1 2.1.1 4.5.3 5.4-1.9 3.2 1.2 2.4-1.1 2.1 2.8 5.3-2.8 6.9 3.1 4.3 1.2 4.6 3.2 2.7-1.1 6.2 3.7 7.1 3.1 8.8 3.8-.9 4-5.7 7.4 1.5 3.7 4.6 1.6-5.1 6.3.3 1 1.3 1.5-7.6-.2-3.4 2.1-5.6 9.5-1.9 5.1.1 5.4 3.3.3 1.9z"/><path fill="#F2F2F2" d="m649 485.1-1.4.2-3.1-.5-1.8 1.7-2.6 1.1-1.7.2-.7 1.3-2.7-.3-3.5-3-.3-2.9-1.4-3.3 1-5.4 1.6-2.2-1.2-3-1.9-.9.8-2.8-1.3-1.5-2.9.3.7 1.8-2.1 2.4-6.4 2.4-4 1-1.7 1.5-4.4-1.6-4.2-.8-1 .6 2.4 1.6-.3 4.3.7 4 4.8.5.3 1.4-4.1 1.8-.7 2.7-2.3 1-4.2 1.5-1.1 1.9-4.4.5-3-3.4-1.1.8-1-3.8-1.6-2-1.9 2.2-10.9-.1v3.9l3.3.7-.2 2.4-1.1-.6-3.2 1v4.6l2.5 2.4.9 3.6-.1 2.8-2.2 17.4-5.1-.3-.7 1-4.6 1.2-6.2 4.3-.4 3-1.3 2.2.7 3.4-3.3 1.9.1 2.7-1.5 1.1 2.6 5.8 3.3 3.8-1 2.8 3.7.3 2.3 3.4 4.9.2 4.4-3.8.2 9.7 2.6.7 3-1.1 4.2.6 2.9-.2 1.1-1.9 4.8-2.6 2.8-2.3 7.3-1.1-.4 4.7.9 2.5-.3 4.3 6.4 5.7 6.3 1 2.4 2.4 3.8 1.2 2.5 1.9 3.5-.1 3.3 1.9.5 3.7 1.2 1.8.3 2.8-1.6.1 2.7 7.4 10.7.3-.6 3.6.8 2.6 3.2 1.7 1.6 4-.5 5-1.3 2.8.8 3.6-1.6 1.3 1.9 3.6.4 8.6 6 1.2 2.1-1.2 3.9 1.7 1.2 1.9 1 5.8.9 2.5 2 .3 2-1.1 2.1 1.2.3 3.5-.3 3.8-.7 3.6 2.6-1.2 3.1 3.7.5 5.1-4.2 3.5-3.3 2.6-5.3 6.2-5.9 8.6 3.4-.7 6.2 4.9 1.9-.2 6.2 4.1 4.8 3.5 3.8 4.3-1.9 3 2.1 3.7 2.9-3.7 1.5-6 3.2-3 3.9-5 4.5-11.2 3.4-3.5.8-3.1.3-6.4-1.3-3.5.3-4.8 4.1-6.3 6-5.1 6-1.8 3.6-2.9 8.5-2.4h5.9l1.1-3.8 4.2-2.8.6-6.5 5.1-8.3.5-8.5 1.6-2.6.3-4.1 1.1-9.9-1-11.9 1.4-4.7 1.4-.1 3.9-5.5 3.3-7.2 7.7-8.8 2.7-4.2 2-10.5-1-3.9-2-8.1-2.1-2-4.8-.2-4.3-1.9-7.3-7.1-8.4-5.3-8.4.3-10.9-3.4-6.5 2 .8-3.5-2.7-3.8-9.4-3.8-7.1-2.3-4.2 4.1-.3-6.3-9.9-1-1.7-2 4.2-5.2-.1-4.4-3-1-3-11.2-1.3-3.5-1.9.3-3.5 5.8-1.8 4.7-2.1 2.4-2.7.5-.8-1.8-1.2-.3-1.8 1.8-2.4-1.3-3.2-1.4-2.7.7-2.3-.6-.5 1.8.9 1.3-.5 1.3-3.1-.5zM1607.8 468.4l2.7 3.3 1.1-2.2 2.7.2.1-4.1.1-3.1-4.6 3.5-2.1 2.4zM1464.7 320.5l-2.7-1.8-2.9-.1-4.2-1.5-2.6 1.6-2.6 4.8.3 1.2 5.5 2.5 3.2-1 4.7.4 4.4-.2-.4-3.9zM1106.7 610l-1-.5-3.2 1.5h-1.6l-3.7 2.5-2-2.6-8.6 2.2-4.1.2-.9 22.7-5.4.2-.6 18.5 1.4 1 3 6.1-.7 3.8 1.1 2.3 4-.7 2.8-2.8 2.7-1.9 1.5-3.1 2.7-1.5 2.3.8 2.5 1.8 4.4.3 3.6-1.5.6-2 1.2-3 3-.5 1.7-2.4 2-4.3 5.2-4.7 8-4.7-3.4-2.9-4.2-.9-1.5-4.1.1-2.2-2.3-.7-6-7-1.6-3.7-1.1-1.1-1.9-5.1zM1100.5 442.3l-.5-.3-2-1.8-.3-2 .8-2.6V433l-3.3-4-.7-2.7-3.5 1.1-2.8 2.5-4 7-5.2 2.9-5.4-.4-1.6.6.6 2.3-2.9 2.2-2.3 2.5-7.1 2.4-1.4-1.4-.9-.2-1 1.7-4.7.4-2.7 6.5-1.4 1.1-.4 5 .6 2.7-.4 1.9 2.6 3.3.5 2.3 2.1 3.2 2.6 2.1.3 2.9.6 1.8 2.9-5.9 3.3-3.4 3.8 1.1 3.6.4.5-4.5 2.2-3.2 3-2 4.6 2.1 3.6 2.4 4.1.6 4.2 1.2 1.6-3.8.8-.5 2.6.6 6.2-3.1 2.2 1.3 1.8-.2.9-1.5 2-.6 4.3.7 3.6.1 1.8-.6-.9-2.1-4.2-2.5-1.5-3.8-2.4-2.7-3.8-3.4-.1-2-3.1-2.6-3.8-2.5zM649 201.7l-.7-3-2.5 1.9.5 2.1 5.6 2.6 1.9-.4 3.3-2.5-4.7.1-3.4-.8Zm14.4-15.9.2-1.1-4.1-2.6-5.9-1.6-1.9.6 3.5 2.9 5.7 1.9 2.5-.1Zm-305.3 3.7.2-3.4-3.2-2.6-.4-2.9-.1-2.1-4.1-.7-2.4-.9-4.1-1.4-1.4 1.5-.6 3.3 4.3 1.1-.4 1.8 2.9 2.2v2.2l6.3 2.8 3-.9ZM694.2 176l3.9-3.8 1.4-1.7-2.1-.3-4.9 2.2-4.2 3.5-8.1 9.8-5.3 3.7 1.6 1.7-3.8 2.2.2 1.9 9.6.1 5.4-.3 4.4 1.5-4.4 2.9 2.9.2 7.3-5.4 1.2.8-2.5 5.1 3 1.2 2.3-.2 3.5-5.5-.5-3.9.3-3.3-3.7 1.1 2.8-4.6-4.3-1.9-2.7 1.5-3.9-1.7 2.4-2.1-2.9-1.3-3.8 2 4.9-5.4Zm-356.8-21.2-1.9 2-1.4 2.6.9 1.9-.6 2.8.7 2.8h1.9l-.2-4.9 7.1-6.9-4.9.5-1.6-.8Zm280.9-47-.4-1.2-1.7-.1-2.8 1.7-.4.4.1 1.7 1.7.5 3.5-3Zm-9.6-3.2.8-1.1-6-.1-4.9 2.7v1.5l3 .2 7.1-3.2ZM605.6 88l-2.7-.5-5 5.2-3.6 4.4-5.7 2.8 6.3-.6-.8 3.4 8.2-3 6.2-3 .8 2.6 5.9 1.3 4.9-1.8-1.9-1.8-3.4.4 1.3-2.7-3.7-1.7-3.4-1.9-1.5-1.5-2.8.9.9-2.5Zm44.6-8.2 3.7-1.7 1-.7 1.4-2.3-2.3-1.5-4.2.7-3.8 3.1-.7 2.6 4.9-.2Zm-73.8-10.7-.8-2-.3-1-1.6-1-3-1.5-4.9 2.3-5 1.7 3.5 2.4 3.8-.6 4.1 1.6 4.2-1.9Zm22.4-2.1-6.6-1 5.7-2.6-.4-6-1.9-2.3-4.5-.8-8.1 3.8-5.5 5.8 2.9 2.1 1.6 3.3-6.3 5.5-3.2-.2-6.2 4.4 4.2-5.2-4.8-1.8-4.5.9-2.4 3.4-5.9-.1-7.2.8-5.1-2.4-5 .4-1.5-2.9-2.1-1.3-3.8.5-5.2.3-4.4 1.8 2 2.3-7 2.8-1.4-3.3-4.4 1-11.8.6-6.4-1.2 8.5-2.6-2.8-2.8-4.4.4-4.7-1-7.5-1.9-3.8-2.3-4.5-.3-3.3 1.6-5.9.9 3.9-4.1-9.4 3.6-1.4-4.7-2.1-.6-3.8 2.5-4.5 1.2-.2-2.2-8.2 1.4-8.8 2.3-5.2-.6-7 1.6-6.2 2.3-3.7-.5-3.3-2.6-5.9-1.3-24.3 20.2-35.4 32.4 4.2.1 2.7 1.6.6 2.6.2 3.9 7.6-3.3 6.4-1.9-.5 3 .7 2.4 1.7 2.7-1.1 4.2-1.5 6.8 4.6 3.8-3.1 3.7-5.1 2.9-2.5 3.1 2.1 4.4-3.1 4.9 4.1 2.6-3.6 3.7-1.3 5.5 6.9 2.5 1.6 2.7 5.4 6.1h136.6l1.3-2.4h1.6l-.8 3.4 1 1 3.2.4 4.6 1 3.8 1.9 4.4-.8 5.3 1.6 3.2-2.4 3.2-1 1.8-1.5 1.5-.8 4 1.2 3.3.2.8.8.1 3.5 5.2 1-1.7 1.7 1.2 1.9-1.9 2.3 1.8.8-1.9 2.1 1.2.2 1.3-.9.5 1.4 3.4.7 3.8.1 3.8.6 4 1.2.8 2 1.4 4.7-2.4 2-3.8-.8-1-3.8-.9 3.9-3.8 3.4-.8 2.9-1.1 1.7-4.1 2-3.7 3.4-2 2.2 2.7.4 4.5-2 2.9-1.7 1.6-.3 2.6.6 1.7-.9 2.8-.8 4.7-.8.3-1.8-.3.1-1.7.3-1.8-.6 2.3-2.1 1.9-.7 3.9-.9 4.6-.9 1.8 1.2 1.9-1.4 1.9-.8.9.4.1.1 6.7-4.2 2.7-1.2h17l1-1.6 1.7-.3 2.5-.9 2.7-2.8 3.2-4.9 5.5-4.7 1.1 1.7 3.7-1.1 1.5 1.8-2.8 8.5 2.1 3.5 5.9-.8 8.1-.2-10.4 5.1-1.5 5.2 3.7.5 7.1-4.5 5.8-2.4 12.2-3.7 7.5-4.1-2.6-2.2 1-4.5-7.1 7-8.6.8-5.5-3.1-.1-4.6.6-6.8 6.1-4.1-3.3-3.1-7.6.6-12.1 5.2-10.9 8.2-4.6 1 7.8-5.7 10.1-8.3 7.2-2.7 5.7-4.4 5.2-.5 7.3.1 10 1.3 8.6-1 7.8-5.1 8.7-2.2 4.2-2.1 4.2-2.3 2-6.8-1.1-2.3-3.4-.8v-5.1l-2.3-1.9-6.9-1.6-2.8-3.4-4.8-3.4 3.4-3.7-2-7.1-2.6-7.5-1-5.2-4.3 2.7-7.4 6.5-8.1 3.2-1.6-3.4-3.7-1 2.2-7.3 2.6-4.9-7.7-.5-.1-2.2-3.6-3.3-3-2-4.5 1.5-4.2-.5-6.6-1.6-3.9 1.3-3.8 9-1 5.3-8.8 6.1 3.1 4.5.5 5-1.7 4-4.7 4.1-7.5 4.2-9 2.8 1.7 3.2-2.2 9.6-5.6 6.3-4.6 1.9-4.4-5.8-.1-6.8 1.7-6 3.6-5.2-4.8-.6-7.5-.4-3.6-2.5-4.8-1.6-1.7-2.9-3.3-2.2-7-2.6-7.1 1.2.7-4.5 1.5-5.5-6-1 4.9-6.8 4.9-4.6 9.4-6.5 8.6-4.6 5.6-.7 2.9-3.7 5.1-2.4 6.4-.4 7.7-3.8 2.9-2.4 7.4-4.7 3.2-2.8 3.2 1.7 6.5-.9L627 80l2.3-2.7-.8-2.9 5-2.9 1.7-2.7-3.5-2.6-5.4-.8-5.5-.4-4.6 5.9-6.5 4.6-7.2 4-1.3-3.7 4.2-4-2.2-3.5-8.7 4.2 4.3-5.5Zm-75.5-18.9-2.8-1-14.1 3.2-5.1 2-7.8 3.9 5.4 1.4 6.2-.1-11.5 2.1v1.9l5.6.1 9-.4 6.5 1.2-6.2 1-5.5-.3-7.1.9-3.3.6.6 4.2 4.2-.6 4.1 1.5-.3 2.5 7.8-.5 11.2-.8 9.4-1.8 5-.4 5.7 1.5 6.7.8 3.1-1.9-.7-2.1 7-.4 2.6-2.4-5-2.5-4.2-2.6 2.4-3.6 2.7-5.1-2.2-2-3-.9-4.2.8-2.8 5.3-4.3 2.1 2.2-5.1-1.7-1.7-7.3 2.7L529 49l-10.4 1.5 4.7-2.4Zm39.1-1.5-1.7-1.1-5.4.2-2.1.7 2.2 3.6 7-3.4Zm107.7 1.6-4.4-2.8-8.4-.5-2.1.3-1.7 1.8 2 2.8.9.3 4.8-.7 4.1.1 4.1.1.7-1.4Zm-39.4-.3 5.7-3.2-11.2 1.3-5.8 2.1-7.1 4.6-3.3 5.2 5.6.1-6.1 2.3 1.8 1.9 5.9.8 7.3 1.5 13.8 1.2 7.9-.6 3.2-1.6 2 1.8 3.3.3 2 3.3-3.5 1.4 7.1 1.8 4.6 2.6.5 1.9-.4 2.4-8.6 5.4-3.2 2.7.2 2-9.2.7-8 .1-5.4 4.2 2.4 1.9 13-.9.9-1.6 4.7 2.7 4.7 2.9-2.4 1.6 3.8 2.8 7.6 3.3 10.7 2.3.3-2-2.8-3.5-3.5-4.9 8.5 4.6 4.7 1.5 3.6-4.1v-5.6l-1-1.5-4.4-2.5-2.7-3.3 2.3-3.2 5.8-.7 3.8 5.4 4 2.4 10.7-6.5 3.3-3.9-6.4-.3-3.2-5.1-5.9-1.2-7.7-3.5 9-2.5-.8-5-2.2-2.1-8.3-2.1-1.9-3.3-8.2 1.2 1.1-2.3-3.6-2.5-6.8-2.6-5.2 2.1-9 1.5 3.3-3.4-2.3-5.3-11.6 2.1-7.1 4.1-.3-3.2Zm-50-3.4-7.1 2.4.9 3.4-7.4-.7-1.7 1.7 5.8 3.9.9 2 3.4.5 8.4-2L589 51l-3.8-2.2 6-2.4.5-1.5-7.5.6-3.5-1Zm22.3 5.4 5.6-1 10-4.5-6.1-1.2-7.8-.2-5.2 1.4-4.2 2.1-2.5 2.6-1.8 4.5 4.3.2 7.7-3.9Zm-114.7 7.2 2.6-2.3 9.1-3.6 13.8-3.6 6.4-1.3-1.6-2.1-1.9-1.5-9.4-.2-4.1-1.1-14 .8-.3 3.1-7.6 3.3-7.4 3.8-4.3 2.2 5.9 2.7-.6 2.3 13.4-2.5Zm124.1-18.3.3-1.6-1.4-1.7-6.9 1.3L600 39l3.2 1.3 5.1.4 4.1-1.9Zm-8.7-8.6-1.1.7-4.8-.3-7.6 1.6-3.8-.1-4.3 3.8 6.6-.4-3.4 2.9 3.2.8 6.8-.5 5.8-3.7 2.8-2.5-.2-2.3Zm-39.1 2.5 1.8-2.3-3.1-.5-5.7 1.7-.7 4.7-6.1-.4L548 33l-8.2-1.6-5.4 1.4-11.6 4.8 4.1.8 17.8-.5-10.6 2.2-1.5 1.6 5.9-.1 12.2-2.2 13.8-.8 5.1-2.3 2.3-2.4-3.7-.2-4.3.8.7-1.8Zm55.2-4.3-7.1-.3-3.8 2 2.6 1.5 7 .6 1.4 2.1-2.2 2.4-1.5 2.8 8.5 1.6 5.5.6 8-.1 11.6-.8 4.3.6 6.7-1 3.5-1.4 1-2-2.3-1.9-5.8-.3-8 .4-7 1.1-5.1-.4-4.8-.3-1.2-1.1-3.1-1.1 2.8-1.9-1.4-1.6-7.3.1-2.3-1.6Zm-75-2.6-6 .7-5.5-.1-12.1 3.1-11.6 3.7 3.6 1 7-.7 9.8-2.1 3.8-.3 5.2-1.6 5.8-3.7Zm80.5.6 1-.5-1.5-.9-7.2-.1-.6 1.3 6.4.3 1.9-.1Zm-58.4-.8 3.2-1.4-4.1-.8-5.9.5-5.1 1.5 3.3 1.5 8.6-1.3Zm7.8-4.2-3.3-.9-1.6-.2-5.7 1.3-1 .7h6l5.6-.9Zm46.4 2.5 3-1.7-2.3-1.6-1.7-.3-4.4-.1-2.1 1.8-.7 1.8 1.6 1.1 6.6-1Zm-13.7-1.2.1-2.2-7.4-1.7-6.1-.6-2.1 1.7 2.8 1.1-5.3 1.4 7.7.2 4 1.5 5.2.5 1.1-1.9Zm53.7-6.1.6-2.8-4.7-.8-4.7-.9-1.6-2.2-8.2.2.3.9-3.9.3-4.1 1.3-4.9 1.9-.3 1.9 2 1.5h6.5l-4.3 1.2-2.1 1.6 1.6 1.9 6.7.6 6.8-.4 10.5-3.4 6.4-1.3-2.6-1.5Zm78.5-13.8-7-.2-6.9-.3-10.2.6-1.4-.4-10.3.2-6.4.4-5.1.6-5 2-2.3-1-3.9-.2-6.7 1.4-7.4.6-4.1.1-6 .8-1.1 1.3 2.5 1.2.8 1.6 4.4 1.5 12.4-.3 7.2.5-7.2 1.5-2.2-.4-9.3-.2-1.1 2.2 3 1.7-2.8 1.6-7.5 1.1-4.9 1.7 4.8.9 1.7 3-7.5-2-2.5.3-2 3.4-8 1.1-2 2.3 6.7.3 4.9.6 11.7-.8 8.4 1.4 12.6-3 1-1.1-6.4.2.5-1.1 6.5-1.4 3.6-1.9 6.8-1.3 5-1.6-.8-2.2 3.3-.8-4.3-.6 11.1-.4 3.2-.9 7.9-.8 9.3-3.5 6.8-1.1 10.3-2.5h-7.4l3.9-.9 9-.8 9.7-1.6 1.1-1.1-5.2-1-6.7-.4-8.5-.3ZM1014.3 195.6l-5.4-1.9-1 1.4h-4.2l-1.3 1-2.3-.6.2 1.6-3.5 3.5v2.8l2.4-.9 1.8 2.7 2.2 1.3 2.4-.3 2.7-2.1.9 1 2.4-.2.9-2.5 3.8.8 2.1-1.1.3-2.5-2.6-.2-2.3-1.1.7-1.6-.2-1.1zM638.4 830.2l-3.7-.7-3.3 2.5.2 4.1-1.2 2.8-7.2-2.2-8.6-4-4.5-1.3 9.7 6.8 6.3 3.2 7.5 3.4 5.3.9 4.3 1.8 3 .5 2.3.1 3.2-1.8.5-2.4-2.9-.2h-5l-5.9-13.5Zm-47.3-196.3-3.7-7.1 1.1-6.2-3.2-2.7-1.2-4.6-3.1-4.3-1.2 3.3-2.7 1.6 2.1 9 1.5 10.4-.1 14.2v13.2l.9 12.3-1.9 7.8 2.1 7.8-.5 5.3 3.2 9.5-.1 9.5-1.2 10.2-.6 10.5-2.1.2 2.4 7.3 3.3 6.3-1.1 4.3 1.9 11.6 1.5 8.8 3.5.9-1.1-7.7 4 1.6 1.8 12.7-6.4-2.1 2 10.2-2.7 5.5 8.2 1.8-3.4 4.8.2 6 5 10.6 4.2 4.1.2 3.6 3.3 3.8 7.5 3.5 7.4 4.2 6.2 2 2-.1-1.8-5.7 3.4-2.2 1.7-1.5h4.2l-4.8-.9-12-.8-3.5-3.6-1.8-4.6-3.1.4-2.6-2.2-3.1-6.6 2.7-2.7.1-3.9-1.8-3.2.7-5.3-1.1-8.2-1.8-3.7 1.8-1.1-1.3-2.3-2.8-1.3.8-2.6-3.1-2.3-3.6-7.1 1.6-1.2-3.3-7.6-.7-6.4-.3-5.7 2.5-2.4-3.3-6.3-1.5-5.9 2.9-4.3-1.4-5.4 1.6-6.2-1.3-5.9-1.6-1.2-4.9-10.9 2.1-6.5-1.7-6.2.9-5.8 2.6-5.9 3.2-4-2-2.5.9-2-1.6-10.6 5.6-3.2 1.1-6.6-.9-1.6-3.8.9-3.1-8.8Z"/><path d="m1577.2 378.3.6-3.6 2-2.8-1.6-2.5-3.2-.1-5.8 1.8-2.2 2.8 1 5.5 4.9 2 4.3-3.1Zm13.2-196.5-6.1-6.1-4.4-3.7-3.8-2.7-7.7-6.1-5.9-2.3-8.5-1.8-6.2.2-5.1 1.1-1.7 3 3.7 1.5 2.5 3.3-1.2 2 .1 6.5 1.9 2.7-4.4 3.9-7.3-2.3.6 4.6.3 6.2 2.7 2.6 2.4-.8 5.4 1 2.5-2.3 5.1 2 7.2 4.3.7 2.2-4.3-.7-6.8.8-2.4 1.8-1.4 4.1-6.3 2.4-3.1 3.3-5.9-1.3-3.2-.5-.4 4 2.9 2.3 1.9 2.1-2.5 2-1.9 3.3-4.9 2.2-7.5.2-7.2 2.2-4.4 3.3-3.2-2-6.2.1-9.3-3.8-5.5-.9-6.4.8-11.2-1.3-5.5.1-4.7-3.6-4.9-5.7-3.4-.7-7.9-3.8-7.2-.9-6.4-1-3-2.7-1.3-7.3-5.8-5-8.1-2.3-5.7-3.3-3.3-4.4-1.7.5-1.8 4.2-3.8.6 2.5 6.2-1.6 2.8-10.7-2 1 11.1-2 1.4-9 2.4 8.7 10.7-2.9 1.6 1.7 3.5-.2 1.4-6.8 3.4-1 2.4-6.4.8-.6 4-5.7-.9-3.2 1.2-4 3 1.1 1.5-1 1.5 3 5.9 1.6-.6 3.5 1.4.6 2.5 1.8 3.7 1.4 1.9 4.7 3 2.9 5 9.4 2.6 7.6 7.5.8 5.2 3 3.3.6 3.3-4.1-.9 3.2 7 6.2 4 8.5 4.4 1.9-1.5 4.7 2 6.4 4.1 3.2.9 2.5 3.1 4.5 1.2 5 2.8 6.4 1.5 6.5.6 3-1.4 1.5 5.1 2.6-4.8 2.6-1.6 4.2 1.5 2.9.1 2.7 1.8 4.2-.8 3.9-4.8 5.3-4 4.9 1.5 3.2-2.6 3.5 3.9-1.2 2.7 6.1.9 3-.4 2.7 3.7 2.7 1.5 1.3 4.9.8 5.3-4.1 5.3.7 7.5 5.6-1 2.3 5.8 3.7 1.3-.8 5.2 4.5 2.4 2.5 1.2 3.8-1.8.6 2.6.7 1.5 2.9.1-1.9-7.2 2.7-1 2.7-1.5h4.3l5.3-.7 4.1-3.4 3 2.4 5.2 1.1-.2 3.7 3 2.6 5.9 1.6 2.4-1 7.7 2-.9 2.5 2.2 4.6 3-.4.8-6.7 5.6-.9 7.2-3.2 2.5-3.2 2.3 2.1 2.8-2.9 6.1-.7 6.6-5.3 6.3-5.9 3.3-7.6 2.3-8.4 2.1-6.9 2.8-.5-.1-5.1-.8-5.1-3.8-2-2.5-3.4 2.8-1.7-1.6-4.7-5.4-4.9-5.4-5.8-4.6-6.3-7.1-3.5.9-4.6 3.8-3.2 1-3.5 6.7-1.8-2.4-3.4-3.4-.2-5.8-2.5-3.9 4.6-4.9-1.9-1.5-2.9-4.7-1-4.7-4.4 1.2-3 5-.3 1.2-4.1 3.6-4.4 3.4-2.2 4.4 3.3-1.9 4.2 2.3 2.5-1.4 3 4.8-1.8 2.4-2.9 6.3-1.9 2.1-4 3.8-3.4 1-4.4 3.6 2 4.6.2-2.7-3.3 6.3-2.6-.1-3.5 5.5 3.6-1.9-3.1 2.5-.1-3.8-7.3-4.7-5.3 2.9-2.2 6.8 1.1-.6-6-2.8-6.8.4-2.3-1.3-5.6-6.9 1.8-2.6 2.5h-7.5l-6-5.8-8.9-4.5-9.9-1.9ZM936.5 431.2l-2.3.9-1.3.8-.9-2.7-1.6.7-1-.1-1 1.9-4.3-.1-1.6-1-.7.6-1.1.5-.5 2.2 1.3 2.6 1.3 5.1-2 .8-.6.9.4 1.2-.3 2.8h-.9l-.3 1.8.6 3.1-1.2 2.8 1.6 1.8 1.8.4 2.3 2.7.2 2.5-.5.8-.5 5.2 1.1.2 5.6-2.4 3.9-1.8 6.6-1.1 3.6-.1 3.9 1.3 2.6-.1.2-2.5-2.4-5.5 1.5-7.2 2.3-5.3-1.4-9.1-3.8-1.6-2.7.2-1.9 1.6-2.5-1.3-1-2.1-2.5-1.4zM1050.1 427.9l.2-4.3-.5-4.2-2.2-4.1-1.6.4-.2 2 2.3 2.6-.6 1.1-.3 2.1-4.6 5-1.5 4-.7 3.3-1.2 1.4-1.1 4.5-3 2.6-.8 3.2-1.2 2.6-.5 2.6-3.9 2.2-3.2-2.6-2.1.1-3.3 3.7-1.6.1-2.7 6.1-1.4 4.5v1.8l1.4.9 1.1 2.8 2.6 1.1 2.2 4.2-.8 5 9.2.2 2.6-.4 3.4.8 3.4-.8.7.3 7.1.3 4.5 1.7 4.5 1.5.4-3.5-.6-1.8-.3-2.9-2.6-2.1-2.1-3.2-.5-2.3-2.6-3.3.4-1.9-.6-2.7.4-5 1.4-1.1 2.7-6.5.9-1.7-1.8-4.4-.8-2.6-2.5-1.1-3.3-3.7 1.2-3 2.5.6 1.6-.4 3.1.1-3.1-5.8zM1114.9 464.4l-4.3-.7-2 .6-.9 1.5-1.8.2-2.2-1.3-6.2 3.1-2.6-.6-.8.5-1.6 3.8-4.2-1.2-4.1-.6-3.6-2.4-4.6-2.1-3 2-2.2 3.2-.5 4.5-.3 3.8-1.6 3.4-1.1 4-.7 5.6.3 3.6-.9 2.2-.2 2.4-.6 2-3.7 3.1-2.6 3.2-2.5 6.2.2 5.3-1.4 2-3.3 3.1-3.4 4-2-1.1-.4-1.8-3.1-.1-1.9 2.4-1.5-.6-2 1.3-.9 1.7-.2 2.7-1.5.7.8 2 2.3-.9 1.7.1 1.9-.7 16.6.1 1.3 4.7 1.6 3.8 1.3 2.1 2.1 3.3 3.7-.5 1.9-.9 3 .9.9-1.6 1.5-3.7 3.4-.3.3-1.1h2.9l-.5 2.3h6.8v4l1.2 2.4-.9 3.8.3 4 1.9 2.3-.5 7.6 1.4-.6 2.4.2 3.5-1 2.6.4 1.9.1.3 2 2.6-.1 3.5.6 1.8 2.8 4.5.9 3.4-2 1.2 3.4 4.3.8 2 2.8 2.1 3.5h4.3l-.3-6.9-1.5 1.2-3.9-2.5-1.4-1.1.8-6.4 1.2-7.5-1.2-2.8 1.6-4.1 1.6-.7 7.5-1.1 1 .3.2-1.1-1.5-1.7-.7-3.5-3.4-3.5-1.8-4.5 1-2.7-1.5-3.6 1.1-10.2.1.1-.1-1.1-1.4-2.9.6-3.5.8-.4.2-3.8 1.6-1.8.1-4.8 1.3-2.4.3-5.1 1.2-3 2.1-3.3 2.2-1.7 1.8-2.3-2.3-.8.3-7.5-5-4.2-1.4-2.7-3.1 1.3-2.6-.4-1.5 1.1-2.5-.8-3.5-5.2-1.8.6-3.6-.1z" fill="#F2F2F2"/><path fill="#F2F2F2" d="m1070.3 474.9-3.6-.4-3.8-1.1-3.3 3.4-2.9 5.9-.4 3.5-4.5-1.5-4.5-1.7-7.1-.3-.4 2.8 1.5 3.3 4.2-.5 1.4 1.2-2.4 7.4 2.7 3.8.6 4.9-.8 4.3-1.7 3-4.9-.3-3-3-.5 2.8-3.8.8-1.9 1.6 2.1 4.2-4.3 3.5 4.6 6.7 2.2-2.7 1.8-1.1 2 2.2 1.5.6 1.9-2.4 3.1.1.4 1.8 2 1.1 3.4-4 3.3-3.1 1.4-2-.2-5.3 2.5-6.2 2.6-3.2 3.7-3.1.6-2 .2-2.4.9-2.2-.3-3.6.7-5.6 1.1-4 1.6-3.4.3-3.8zM568.3 422.2l1.2-2.1-1.3-1.7-2-.4-2.9 3.1-2.3 1.4-4.6 3.2-4.3-.5-.5 1.3-3.6.1-3.3 3-1.4 5.4-.1 2.1-2.4.7-4.4 4.4-2.9-.2-.7.9 1.1 3.8-1.1 1.9-1.8-.5-.9 3.1 2.2 3.4.6 5.4-1.2 1.6 1.1 5.9-1.2 3.7 2 1.5-2.2 3.3-2.5 4-2.8.4-1.4 2.3.2 3.2-2.1.5.8 2 5.6 3.6 1-.1 1.4 2.7 4.7.9 1.6-1 2.8 2.1 2.4 1.5 1.5-.6 3.7 3 1.8 3 2.7 1.7 3.4 6.7 4.2.8 3-1.7 2.1 1.1 3.3-.6 4.4 3-3.5 6.5 1.7.1 2.9 3.4 2.2-17.4.1-2.8-.9-3.6-2.5-2.4v-4.6l3.2-1 1.1.6.2-2.4-3.3-.7v-3.9l10.9.1 1.9-2.2 1.6 2 1 3.8 1.1-.8-1.7-6.4-1.4-2.2-2-1.4 2.9-3.1-.2-1.5-1.5-1.9-1-4.2.5-4.6 1.3-2.1 1.2-3.4-2-1.1-3.2.7-4-.3-2.3.7-3.8-5.5-3.2-.8-7.2.6-1.3-2.2-1.3-.6-.2-1.3.8-2.4-.4-2.5-1.1-1.4-.6-2.9-2.9-.5 1.8-3.7.9-4.5 1.8-2.4 2.2-1.8 1.6-3.2 3.7-1.1zM499.1 427.6l-1.4 1.3-1.7-.4-.8-1.3-1.7-.5-1.4.8-3.5-1.7-.9.8-1.4 1.2 1.5.9-.9 2-.1 2 .7 1.3 1.7.6 1.2 1.8 1.2-1.6-.3-1.8 1.4 1.1.3 1.9 1.9.8 2.1 1.3 1.5 1.5.1 1.4-.7 1.1 1.1 1.3 2.9 1.4.4-1.2.5-1.3-.1-1.2.8-.7-1.1-1 .1-2.5 2.2-.6-2.4-2.7-2-2.6-1.2-3.4zM529 352.3l-4.9-2.1-4.3-.1-4.7-.5-1.4.7-4.2.6-3 1.3-2.7 1.4-1.5 2.3-3.1 2 2.2.6 2.9-.7.9-1.6 2.3-.1 4.4-3.3 5.4.3-2.3 1.6 1.8 1.3 7 1 1.5 1.3 4.9 1.7 3.2-.2.8 3.6 1.7 1.8 3.5.4 2.1 1.7-4.1 3.5 7.9-.6 3.8.5 3.7-.3 3.8-.8.8-1.5-3.9-2.6-4-.3.6-1.7-3.1-1.3h-1.9l-3-2.8-4.2-4-1.8-1.5-5.2.8-1.9-2.4zM1039.4 173.5l-2.1.6-1.4-.7-1.1 1.2-3.4 1.2-1.7 1.5-3.4 1.3 1 1.9.7 2.6 2.6 1.5 2.9 2.6 3.8 2 2.6-2.5 1.7-.5 4 1.9 2.3-.3 2.3 1.2.6-1.4 2.2.1 1.6-.6.1-.6.9-.3.2-1.4 1.1-.3.6-1.1h1.5l-2.6-3.1-3.6-.3-.7-2-3.4-.6-.6 1.5-2.7-1.2.1-1.7-3.7-.6-2.4-1.9z"/><path fill="#F2F2F2" d="m1033.6 157.3-2.4-1.9-5.5-2.4-2.5 1.7-4.7 1.1-.1-2.1-4.9-1.4-.2-2.3-3 .9-3.6-.8.4 3.4 1.2 2.2-3 3-1-1.3-3.9.3-.9 1.3 1 2-1 5.6-1.1 2.3h-2.9l1.1 6.4-.4 4.2 1 1.4-.2 2.7 2.4 1.6 7.1 1.2-2.3 4.2-.5 4.5h4.2l1-1.4 5.4 1.9 1.5-.3 2.6 1.7.6-1.6 4.4.3 3.4-1.2 2.4.2 1.7 1.3.4-1.1-1-4 1.7-.8 1.5-2.9-2.9-2.6-2.6-1.5-.7-2.6-1-1.9 3.4-1.3 1.7-1.5 3.4-1.2 1.1-1.2 1.4.7 2.1-.6-2.3-3.9.1-2.1-1.4-3.3-2-2.2 1.2-1.6-1.4-3.1zM1207.8 424.2l-2.5-1.7 3.1-1.5.1-2.7-1.4-1.9-1.6 1.5-2.4-.5-1.9 2.8-1.8 3 .5 1.7.2 2 3.1.1 1.3-.5 1.3 1.1 2-3.4z"/><path d="m1025.9 146.2-1.7-3-6.7 2 .9 2.5 5.1 3.4 2.4-4.9Zm-8.6-5.1-2.6-.9-.7-1.6 1.3-2-.1-3-3.6 1.6-1.5 1.7-4 .4-1.2 1.7-.7 1.6.4 6.1 2.1 3.4 3.6.8 3-.9-1.5-3 3.1-4.3 1.4.7 1-2.3ZM569.6 382.4v1.8l1.4 1 2.6-4.4 2-.9.6 1.6 2.2-.4 1.1-1.2 1.8.3 2.6-.2 2.5 1.3 2.3-2.6-2.5-2.3-2.4-.2.3-1.9-3 .1-.8-2.2-1.4.1-3.1-1.6-4.4-.1-.8 1.1.2 3.5-.7 2.4-1.5 1.1 1.2 1.9-.2 1.8zM1007.4 262.3l-2.2-1.5h-5.6l-4.9 2.6-2.7-1-8.7.5-8.9 1.2-5 2-3.4 2.6-5.7 1.2-5.1 3.5 2 4.1.3 3.9 1.8 6.7 1.4 1.4-1 2.5-7 1-2.5 2.4-3.1.5-.3 4.7-6.3 2.5-2.1 3.2-4.4 1.7-5.4 1-8.9 4.7-.1 7.5v.4l-.1 1.2 20.3 15.5 18.4 13.9 18.6 13.8 1.3 3 3.4 1.8 2.6 1.1.1 4 6.1-.6 7.8-2.8 15.8-12.5 18.6-12.2-2.5-4-4.3-2.9-2.6 1.2-2-3.6-.2-2.7-3.4-4.7 2.1-2.6-.5-4 .6-3.5-.5-2.9.9-5.2-.4-3-1.9-5.6-2.6-11.3-3.4-2.6v-1.5l-4.5-3.8-.6-4.8 3.2-3.6 1.1-5.3-1-6.2 1-3.3zM543.1 498.1l-2.4-1.5-2.8-2.1-1.6 1-4.7-.9-1.4-2.7-1 .1-5.6-3.6-3.9 2.5-3.1 1.4.4 2.6-2.2 4.1-1 3.9-1.9 1 1 5.8-1.1 1.8 3.4 2.7 2.1-2.9 1.3 2.8-2.9 4.7.7 2.7-1.5 1.5.2 2.3 2.3-.5 2.3.7 2.5 3.2 3.1-2.6.9-4.3 3.3-5.5 6.7-2.5 6-6.7 1.7-4.1z" fill="#F2F2F2"/><path fill="#E02020" d="m1119.7 299.8-5.5-1.9-5.3-1.7-7.1.2-1.8 3 1.1 2.7-1.2 3.9 2 5.1 1.3 22.7 1 23.4h65.3l-1-1.3-6.8-5.7-.4-4.2 1-1.1-5.3-7-2-3.6-2.3-3.5-4.8-9.9-3.9-6.4-2.8-6.7.5-.6 4.6 9.1 2.7 2.9 2 2 1.2-1.1 1.2-3.3.7-4.8 1.3-2.5-.7-1.7-3.9-9.2-2.5 1.6-4.2-.4-4.4-1.5-1.1 2.1-1.7-3.2-3.9-.8-4.7.6-2.1 1.8-3.9 2-2.6-1z"/><path fill="#F2F2F2" d="m1188.1 399-3.2-3.1-1.8-5.9-3.7-7.3-2.6 3.6-4 1-1.6 2-.4 4.2-1.9 9.4.7 2.5 6.5 1.3 1.5-4.7 3.5 2.9 3.2-1.5 1.4 1.3 3.9.1 4.9 2.5 1.6 2.2 2.5 2.1 2.5 3.7 2 2.1 2.4.5 1.6-1.5-2.8-1.9-1.9-2.2-3.2-3.7-3.2-3.6-7.9-6zM1083.2 122.5l-5.5.9-5.4 1.6.9 3.4 3.3 2.1 1.5-.8.1 3.5 3.7-1 2.1.7 4.4 2.2h3.8l1.6-1.9-2.5-5.5 2.6-3.4-.9-1-4.6.2-5.1-1z"/><path fill="#F2F2F2" d="m1177.6 402-1.5 4.7-6.5-1.3-.7 5.5-2.1 6.2-3.2 3.2-2.3 4.8-.5 2.6-2.6 1.8-1.4 6.7v.7l.2 5-.8 2-3 .1-1.8 3.6 3.4.5 2.9 3.1 1 2.5 2.6 1.5 3.5 6.9 2.9 1.1v3.6l2 2.1h3.9l7.2 5.4h1.8l1.3-.1 1.2.7 3.8.5 1.6-2.7 5.1-2.6 2.3 2.1h3.8l1.5-2 3.6-.1 4.9-4.5 7.4-.3 15.4-19.1-4.8.1-18.5-7.6-2.2-2.2-2.1-3.1-2.2-3.5 1.1-2.3-1.3-1.1-1.3.5-3.1-.1-.2-2-.5-1.7 1.8-3 1.9-2.8-2-2.1-2.5-3.7-2.5-2.1-1.6-2.2-4.9-2.5-3.9-.1-1.4-1.3-3.2 1.5-3.5-2.9zM1083.4 69.4l.8-3.8-5.7-2.1-5.8 1.8-1.1 3.9-3.4 2.4-4.7-1.3-5.3.3-5.1-2.9-2.1 1.4 5.9 2.7 7.2 3.7 1.7 8.4 1.9 2.2 6.4 2.6.9 2.3-2.6 1.2-8.7 6.1-3.3 3.6-1.5 3.3 2.9 5.2-.1 5.7 4.7 1.9 3.1 3.1 7.1-1.2 7.5-2.1 8-.5 7.9-7.4 3.3-3.3.9-2.9-7.3-3.9.9-3.7-4.9-4.1 1.7-4.8-6.4-6.3 2.8-4.1-7.2-3.7-.4-3.7zM1966.7 599.4l-3.7 2-1.9.3-3.1 1.3.2 2.4 3.9-1.3 3.9-1.6.7-3.1Zm-11 8.1-1.6 1-2.3-.8-2.7 2.2-.2 2.8 2.9.8 3.6-.9 1.8-3.3-1.5-1.8ZM1040.2 482.7l-.7-.3-3.4.8-3.4-.8-2.6.4v7.6h-8.2l-1.9.3-1.1 4.8-1.3 4.6-1.3 2-.2 2.1 3.4 6.6 3.7 5.3 5.8 6.4 4.3-3.5-2.1-4.2 1.9-1.6 3.8-.8.5-2.8 3 3 4.9.3 1.7-3 .8-4.3-.6-4.9-2.7-3.8 2.4-7.4-1.4-1.2-4.2.5-1.5-3.3.4-2.8z"/><path d="m940 152.5-4.9-3.7-3.9.3.8 3.2-1.1 3.2 2.9-.1 3.5 1.3 2.7-4.2Zm13-24.3-5.5.5-3.6-.4-3.7 4.8-1.9 6.1 2.2 3 .1 5.8 2.6-2.8 1.4 1.6-1.7 2.7 1 1.6 5.7 1.1h.1l3.1 3.8-.8 3.5-7.1-.6-1 4 2.6 3.3-5.1 1.9 1.3 2.4 7.5 1-4.3 1.3-7.3 6.5 2.5 1.2 3.5-2.3 4.5.7 3.3-2.9 2.2 1.2 8.3-1.7 6.5.1 4.3-3.3-1.9-3.1 2.4-1.8.5-3.9-5.8-1.2-1.3-2.3-2.9-6.9-3.2-1-4.1-7.1-.4-.6-4.8-.4 4.2-5.3 1.3-4.9h-5l-4.7.8 5-6.4ZM1190 225.2l-7.5-2.9-7.7-1-4.5-1.1-.5.7 2.2 1.9 3 .7 3.4 2.3 2.1 4.2-.3 2.7 5.4-.3 5.6 3 6.9-1 1.1-1 4.2 1.8 2.8.4.6-.7-3.2-3.4 1.1-.9-3.5-1.4-2.1-2.5-5.1-1.3-2.9 1z" fill="#E02020"/><path fill="#F2F2F2" d="m966.8 427.1-2.6-.5-1.8 1-2.4-.5-9.7.3-.2 3.6.8 4.8 1.4 9.1-2.3 5.3-1.5 7.2 2.4 5.5-.2 2.5 5 1.8 5-1.9 3.2-2.1 8.7-3.8-1.2-2.2-1.5-4-.4-3.2 1.2-5.7-1.4-2.3-.6-5.1.1-4.6-2.4-3.3.4-1.9zM902.4 418l-.8.4-3-.5-.4.7-1.3.1-4-1.5-2.7-.1-.1 2.1-.6.7.4 2.1-.8.9h-1.3l-1.4 1-1.7-.1-2.6 3.1 1.6 1.1.8 1.4.7 2.8 1.3 1.2 1.5.9 2.1 2.5 2.4 3.7 3-2.8.7-1.7 1-1.4 1.5-.2 1.3-1.2h4.5l1.5 2.3 1.2 2.7-.2 1.8.9 1.7v2.3l1.5-.3 1.2-.2 1.5-.7 2.3 3.9-.4 2.6 1.1 1.3 1.6.1 1.1-2.6 1.6.2h.9l.3-2.8-.4-1.2.6-.9 2-.8-1.3-5.1-1.3-2.6.5-2.2 1.1-.5-1.7-1.8.3-1.9-.7-.7-1.2.6.2-2.1 1.2-1.6-2.3-2.7-.6-1.7-1.3-1.4-1.1-.2-1.3.9-1.8.8-1.6 1.4-2.4-.5-1.5-1.6-.9-.2-1.5.8h-.9l-.3-2.3zM872.8 413.5l5 .1 1.4-.9h1l2.1-1.5 2.4 1.4 2.4.1 2.4-1.5-1.1-1.8-1.8 1.1-1.8-.1-2.1-1.5-1.8.1-1.3 1.5-6.1.2-.7 2.8z"/><path fill="#F2F2F2" d="m890.2 417.1-10.3-.3-1.5.7-1.8-.2-3 1.1.3 1.3 1.7 1.4v.9l1.2 1.8 2.4.5 2.9 2.6 2.6-3.1 1.7.1 1.4-1h1.3l.8-.9-.4-2.1.6-.7.1-2.1zM1030.1 482.8l-9.2-.2-1.9 7.2 1 .9 1.9-.3h8.2z"/><path d="m1091.9 269.9-.8 2.8 6.6 1.2v1.1l7.6-.6.5-1.9-2.8.8v-1.1l-3.9-.5-4.1.4-3.1-2.2Zm11.5-37.4-2.7-1.6.3 3-4.6.6-3.9-2.1-3.9 1.7-3.8-.2-1 .2-.7 1.1-2.8-.1-1.9 1.3-3.3.6v1.6l-1.6.9-.1 2.1-2.1 3 .5 1.9 2.9 3.6 2.3 3 1.3 4.3 2.3 5.1 4.6 2.9 3.4-.1-2.4-5.7 3.3-.7-1.9-3.3 5 1.7-.4-3.7-2.7-1.8-3.2-3 1.8-1.4-2.8-3-1.6-3.8.9-1.3 3 3.2h2.9l2.5-1-3.9-3.6 6.1-1.6 2.7.6 3.2.2 1.1-.7 1.2-3.9Z" fill="#E02020"/><path fill="#F2F2F2" d="m877.4 1.3-26-.4-11.8.3-5 1.3-11.5-.1-12.7 2.1-1.6 1.7 6.7 2.1-6.2-1.3-4.5-.3-7-1.4-10.6 2.1-2.7-1.2h-10.4l-10.9.6-8.9 1-.2 1.8-5.3.5-14.6 2.9-4.6 1.7 8.1 1.5-2.8 1.6L720 20l-15.5 2.2-2.2 1.7 6.4 2 14.5 1.2-7.5.2-10.9 1.5 3.8 3.1 3 1.5 9.4-.3 10.1-.2 7.6.3 8 2.9-1.4 2.1 3.6 1.9 1.4 5.3 1 3.6 1.4 1.9-7 4.8 2.6 1.3 4.4-.8 2.6 1.8 5.3 3.4-7.5-1.4h-3.8l-3 2.8-1.5 3.6 4.2 1.8 4-.8 2.6-.8 5.5-1.9-2.8 4.2-2.6 2.3-7.1 2-7 6.3 2 2-3.4 4 3.7 5.2-1.5 5 .7 3.7 4.8 7.1.8 5.6 3.1 3.2h8.9l5 4.7 6.5-.3 4.1-5.7 3.5-4.8-.3-4.4 8.6-4.6 3.3-3.7 1.4-3.9 4.7-3.5 6.5-1.3 6.1-1.4 3-.2 10.2-3.9 7.4-5.7 4.8-2.1 4.6-.1 12.5-1.8 12.1-4.3 11.9-4.6-5.5-.3-10.6-.2 5.3-2.8-.5-3.6 4.2 3 2.7 2.1 7.3-1-.6-4.3-4.5-3.1-5-1.3 2.4-1.4 7.2 2.1.5-2.3-4.1-3.4h5.4l5.6-.8 1.7-1.8-4-2.1 8.6-.3-4-4.3 4.1-.5.1-4.2-6.2-2.5 6.4-1.6 5.8-.1-3.6-3.2 1.1-5.1 3.6-2.9 4.9-3.2-8-.2 11.3-.7 2.2-1L925 9.8l-1.6-1.7-10-.8-16.9 1.5-9.2 1.5 4.5-2.3-2.3-1.4-7 1.2-9.7-1.4-12.1.5-1.4-.7 18.3-.4 12.9-.2 6.6-1.4-19.7-2.9zM472.8 383.9l-5.1-.1h-5.2l-.4 3.6h-2.6l1.8 2.1 1.9 1.5.5 1.4.8.4-.4 2.1H457l-3.3 5.2.7 1.2-.8 1.5-.4 1.9 2.7 2.6 2.5 1.3 3.4.1 2.8 1.1.2-1 2.1-1.6 1.1-.7-.2-.7 1.4-.4 1.3-1.6-.3-1.3.5-1.2 2.8-1.8 2.8-2.4-1.5-.8-.6.9-1.7-1.1h-1.6l1.2-7.2.7-5zM646.1 459.2l-2.1-2.3-2.9-3.1-2.1-.1-.1-3.3-3.3-4.1-3.6-2.4-4.6 3.8-.6 2.3 1.9 2.3-1.5 1.2-3.4 1.1v2.9l-1.6 1.8 3.7 4.8 2.9-.3 1.3 1.5-.8 2.8 1.9.9 1.2 3-1.6 2.2-1 5.4 1.4 3.3.3 2.9 3.5 3 2.7.3.7-1.3 1.7-.2 2.6-1.1 1.8-1.7 3.1.5 1.4-.2-3.3-5.6-.7-3.5-1.8-.1-2.4-4.6 1.1-3.3-.3-1.5 3.5-1.6 1-5.7z"/><path fill="#F2F2F2" d="m504.1 401.8-1.3-1.8-1.9-1-1.5-1.4-1.6-1.2-.8-.1-2.5-.9-1.1.5-1.5.2-1.3-.4-1.7-.4-.8.7-1.8.7-2.6.2-2.5-.6-.9.4-.5-.6-1.6.1-1.3 1.1-.6-.2-2.8 2.4-2.8 1.8-.5 1.2.3 1.3-1.3 1.6 1.5.5 1.1 1.3 1.6 1 .1.9 2.5-.8 1.1.5.7.7-.6 2.5 1.7.6.7 2 1.8-.3.8-1.5h.8l.2-3.1 1.3-.2h1.2l1.4-1.7 1.5 1.3.6-.8 1.1-.7 2.1-1.8.3-1.3.5.1.8-1.5.6-.2.9.9 1.1.3 1.3-.8h1.4l2-.8.9-.9z"/><path fill="#E02020" d="m1055 205.4-4-2.6-1.6-.8-3.9 1.7-.3 2.5-1.7.6.2 1.7-2-.1-1.8-1-.8 1-3.5-.2-.2.1v2.2l1.7 2 1.3-2.6 3.3 1 .3 2 2.5 2.6-1 .5 4.6 4.5 4.8 1.8 3.1 2.2 5 2.3.5-1-4.7-2.4-2.2-2.5-2-1.4-2.5-2.3-1.3-1.9-2.7-2.9.9-2.5 1.9 1.4 1-1.3 2.3-.1 4.4 1 3.5-.1 2.4 1.4 1.7-2.3-1.7-1.8-1.5-2.4-1.8.9-4.2-1.2z"/><path fill="#F2F2F2" d="m570.6 371.7-4.6-1-3.4-.2-1.4 1.7 3.4 1-.3 2.4 2.2 2.8-2.1 1.4-4.2-.5-5-.9-.7 2.1 2.8 1.9 2.7-1.1 3.3.4 2.7-.4 3.6 1.1.2-1.8-1.2-1.9 1.5-1.1.7-2.4zM1069.1 188.8l-1.6.4-1 1.5-2.2.7-.6-.4-2.3 1-1.9.2-.3 1.2-4.1.8-1.9-.7-2.6-1.6-.2 2.6h-2.8l1.1 1.3-1.3 4 .8.1 1.2 2.1 1.6.8 4 2.6 4.2 1.2 1.8-.9 3.7-1.6 3.2.2 3.8-1.1 2.6-4.3 1.9-4.2 2.9-1.3-.6-1.6-2.9-1.7-1 .6-5.5-1.9zM1641.9 562.3l.5-1.7-1.8-1.9-2.8-2-5.3 1.3 7 4.4 2.4-.1Zm20.9-.6 4-4.8.1-1.9-.5-1.3-5.7 2.6-2.8 3.9-.7 2.1.6.8 5-1.4Zm-35.6-13-1.6 2.2-3.1.1-2.2 3.6 3 .1 3.9-.9 6.6-1.2-1.2-2.8-3.5.6-1.9-1.7Zm28.1 0-5.2 2.3-3.8.5-3.4-1.9-4.5 1.3-.2 2.3 7.4.8 8.6-1.8 1.1-3.5Zm-79.5-8.4-.7-2.3-2.3-.5-4.4-2.4-6.8-.4-4.1 6.1 5.1.4.8 2.8 10 2.6 2.4-.8 4.1.6 6.3 2.4 5.2 1.2 5.8.5 5.1-.2 5.9 2.5 6.6-2.4-6.6-3.8-8.3-1.1-1.8-4.1-10.3-3.1-1.3 2.6-10.7-.6Zm146.6-3.6.2-3-1.2-1.9-1.3 2.2-1.2 2.2.3 4.8 3.2-4.3Zm-41-17.5-1.4-2.1-5.7.3 1 2.7 3.9 1.2 2.2-2.1Zm18.1-2.4-6.1-1.8-6.9.3-1.5 3.5 3.9.2 3.2-.4 4.6.5 4.7 2.6-1.9-4.9Zm21-12.3-.8-2.4-9-2.6-2.9 2.1-7.6 1.5 2.3 3.2 5 1.2 2.1 3.7 8.3.1.4 1.6-4-.1-6.2 2.3 4.2 3.1-.1 2.8 1.2 2.3 2.1-.5 1.8-3.1 8.2 5.9 4.6.5 10.6 5.4 2.3 5.3 1 6.9-3.7 1.8-2.8 5.2 7.1-.2 1.6-1.8 5.5 1.3 4.6 5.2 1.5-20.8 1-20.7-6-1.2-4.1-2.3-4.7-2.2h-5l-6.6 3.8-4.9 6.8-5.7-3.8-1.3-10.3Zm-50-16.4-1-1.4-5.5 4.6-6.5.3-7.1-.9-4.4-1.9-4.7 4.8-1.2 2.6-2.9 9.6-.9 5-2.4 4.2 1.6 4.3 2.3.1.6 6.1-1.9 5.9 2.3 1.9 3.6-1 .3-9.1-.2-7.4 3.8-1.9-.7 6.2 3.9 3.7-.8 2.5 1.3 1.7 5.6-2.4-3 5.2 2.1 2.2 3.1-1.9.3-4.1-4.7-7.4 1.1-2.2-5.1-8.1 5-2.5 2.6-3.7 2.4.9.5-2.9-10.5 2.1-3.1 2.9-5-5.6.9-4.8 4.9-1 9.3-.3 5.4 1.3 4.3-1.3 4.4-6.3Zm19.4 1.9-.6-2.6-3.3-.6-.5-3.5-1.8 2.3-1 5.1 1.7 8.2 2.2 4 1.6-.8-2.3-3.3.9-3.9 2.9.6.2-5.5Zm-60.9-4.5.9-2.9-4.3-6 3-5.8-5-1h-6.4l-1.7 7.2-2 2.2-2.7 8.9-4.5 1.3-5.4-1.8-2.7.6-3.2 3.2-3.6-.4-3.6 1.2-3.9-3.5-1-4.3-3.3 4.2-.6 5.9.8 5.6 2.6 5.4 2.8 1.8.7 8.5 4.6.8 3.6-.4 2 3.1 6.7-2.3 2.8 2 4 .4 2 3.9 6.5-2.9.8 2.3 2.5-9.7.3-6.4 5.5-4.3-.2-5.8 1.8-4.3 6.7-.8-6.5-5.9Zm-68.7 48.9.7-9.8 1.7-8-2.6-4-4.1-.5-1.9-3.6-.9-4.4-2-.2-3.2-2.2 2.3-5.2-4.3-2.9-3.3-5.3-4.8-4.4-5.7-.1-5.5-6.8-3.2-2.7-4.5-4.3-5.2-6.2-8.8-1.2-3.6-.3.6 3.2 6.1 7 4.4 3.6 3.1 5.5 5.1 4 2.2 4.9 1.7 5.5 4.9 5.3 4.1 8.9 2.7 4.8 4.1 5.2 2.2 3.8 7 5.2 4.5 5.3 6.2-.1ZM1404.1 305.1l-8.5-4.4-6.2-4-3.2-7 4.1.9-.6-3.3-3-3.3-.8-5.2-7.6-7.5-3.7 5.4-5.7 1-8.5-1.6-1.9 2.8 3.2 5.6 2.9 4.3 5 3.1-3.7 3.7 1 4.5-3.9 6.3-2.1 6.5-4.5 6.7-6.4-.5-4.9 6.6 4 2.9 1.3 4.9 3.5 3.2 1.8 5.5h-12l-3.2 4.2 7.1 5.4 1.9 2.5-2.4 2.3 8 7.7 4 .8 7.6-3.8 1.7 5.9.8 7.8 2.5 8.1 3.6 12.3 5.8 8.8 1.3 3.9 2 8 3.4 6.1 2.2 3 2.5 6.4 3.1 8.9 5.5 6 2.2-1.8 1.7-4.4 5-1.8-1.8-2.1 2.2-4.8 2.9-.3-.7-10.8 1.9-6.1-.7-5.3-1.9-8.2 1.2-4.9 2.5-.3 4.8-2.3 2.6-1.6-.3-2.9 5-4.2 3.7-4 5.3-7.5 7.4-4.2 2.4-3.8-.9-4.8 6.6-1.3 3.7.1.5-2.4-1.6-5.2-2.6-4.8.4-3.8-3.7-1.7.8-2.3 3.1-2.4-4.6-3.4 1.2-4.3 4.8 2.7 2.7.4 1.2 4.4 5.4.9 5-.1 3.4 1.1-1.6 5.3-2.4.4-1.1 3.6 3.5 3.3.2-4 1.5-.1 4.5 10.1 2.4-1.5-.9-2.7.9-2.1-.9-6.6 4.6 1.4 1.5-5.2-.3-3.1 2.1-5.4-.9-3.6 6.1-4.4 4.1 1.1-1.3-3.9 1.6-1.2-.9-2.4-6.1-.9 1.2-2.7-3.5-3.9-3.2 2.6-4.9-1.5-5.3 4-3.9 4.8-4.2.8 2.7 2 .4 3.9-4.4.2-4.7-.4-3.2 1-5.5-2.5-.3-1.2-1.5-5.1-3 1.4.1 2.7 1.5 4.1-.1 2.5-4.6.1-6.8-1.5-4.3-.6-3.8-3.2-7.6-.9-7.7-3.5-5.8-3.1-5.7-2.5.9-5.9 2.8-2.9z"/><path fill="#E02020" d="m937.3 156.7-3.5-1.3-2.9.1 1.1-3.2-.8-3.2-3.7 2.8-6.7 4.7 2.1 6.1-4.2 6.4 6.7.9 8.7-3.6 3.9-5.4zM1203.5 249.4l-3.2-2.9-1.2-2.4-3.3 1.8 2.9 7.3-.7 2 3.7 5.2 4.7 7.8 3.7 1.9 1 3.8-2.3 2.2-.5 5 4.6 6.1 7 3.4 3.5 4.9-.2 4.6h1.7l.5 3.3 3.4 3.4 1.7-2.5 3.7 2.1 2.8-1 5.1 8.4 4.3 6.1 5.5 1.8 6.1 4.9 6.9 2.1 5.1-3.1 4-1.1 2.8 1.1 3.2 7.8 6.3.8 6.1 1.5 10.5 1.9 1.2-7.4 7.4-3.3-.9-2.9-2.7-1-1-5.7-5.6-2.7-2.8-3.9-3.2-3.3 3.9-5.8-1.1-4-4.3-1.1-1.1-4-2.7-5.1 1.6-3.5-2.5-.9.5-4.7.5-8-1.6-5.5-3.9-.2-7.3-5.7-4.3-.7-6.5-3.3-3.8-.6-2.1 1.2-3.5-.2-3 3.7-4.4 1.2-.2 1.6-7.9 1.7-7.6-1.1-4.3-3.3-5.2-1.3-2.5-4.8-1.3.3-3.8-3.4 1.2-3.1-1.9-1.9-1.9.5-5.3 4.7-1.8.2-3.7-.9z"/><path fill="#E02020" d="m1197.3 259.9-6.2-.9-2.1 1-2.1 4.1-2.7 1.6 1.2 4.7-.9 7.8-11 6.7 3.1 7.7 6.7 1.7 8.5 4.5 16.7 12.7 10.2.5 3.2-6.1 3.7.5 3.2.4-3.4-3.4-.5-3.3h-1.7l.2-4.6-3.5-4.9-7-3.4-4.6-6.1.5-5 2.3-2.2-1-3.8-3.7-1.9-4.7-7.8-2.3 1.1-2.1-1.6z"/><path fill="#F2F2F2" d="m905.7 83.6-6.9-.4-7.3 2.9-5.1-1.5-6.9 3-5.9-3.8-6.5.8-3.6 3.7 8.7 1.3-.1 1.6-7.8 1.1 8.8 2.7-4.6 2.5 11.7 1.8 5.6.8 3.9-1 12.9-3.9 6.1-4.2-4.4-3.8 1.4-3.6zM1047.8 253.6l-4 .5-5.2.7-6.2-.6-.6 3.4 7.5 3.3 2.7.7 4.2 2.4.9-3.3-.9-2 1.6-5.1Zm-33.7-18.9-2.5 1.9-2.8-.3 1.3 3.6.4 7.6 2.1 1.7 2-2.1 2.4.4.4-8.4-3.3-4.4Zm14.3-34.3-1.3-2.2-4.8 1.1-.5 1.2-3.1-.9-.3 2.5-2.1 1.1-3.8-.8-.9 2.5-2.4.2-.9-1-2.7 2.1-2.4.3-2.2-1.3-.2 1.7 1.6 2.4-1.7 1.8 1.5 4.8 2.7.8-.5 2.7 2.1-.5 2.8-2.8 2.3-.9 4.2 2.1 2.6.7 1.9 6 3.6 3.6 4.9 4 4.2 2.8 3.9.4 2.3 2.5 3.4 1.2 1.7 2.7 2.2.8 1.8 3.2 2.3 3.7-1.1 1.3-.8 3.5.1 2 2.1-.5 2.5-5.6 2.1-.4.4-3.3-3.9-2.3 1.9-4.1 4.5 1 3.1 3 .8-2.3-.6-1.2-4.7-3.2-3.9-1.9-4.8-2.3 1.4-1.2-1.4-1.4-4 .1-6-5-2.9-5.1-4.9-3.1-1.9-3.1.5-1.8-.4-3 3.9-2.2 4.1.9-1.4-2.7.3-3-7.2-1.6Z"/><path d="m1047.8 253.6-4 .5-5.2.7-6.2-.6-.6 3.4 7.5 3.3 2.7.7 4.2 2.4.9-3.3-.9-2 1.6-5.1Zm-33.7-18.9-2.5 1.9-2.8-.3 1.3 3.6.4 7.6 2.1 1.7 2-2.1 2.4.4.4-8.4-3.3-4.4ZM1029 202c-.436-1.091-2.103-.425-5 2s-6.564 4.425-11 6l-10.8 5.9 2.7.8-.5 2.7 2.1-.5 2.8-2.8 2.3-.9 4.2 2.1 2.6.7 1.9 6 3.6 3.6 4.9 4 4.2 2.8 3.9.4 2.3 2.5 3.4 1.2 1.7 2.7 2.2.8 1.8 3.2 2.3 3.7-1.1 1.3-.8 3.5.1 2 2.1-.5 2.5-5.6 2.1-.4.4-3.3-3.9-2.3 1.9-4.1 4.5 1 3.1 3 .8-2.3-.6-1.2-4.7-3.2-3.9-1.9-4.8-2.3 1.4-1.2-1.4-1.4-4 .1-6-5-2.9-5.1-4.9-3.1-1.9-3.1.5-1.8-.4-3 3.9-2.2 4.1.9-1.4-2.7.3-3h-6.6Z" fill="#E02020"/><path fill="#F2F2F2" d="m540.7 383.5 3.9-.1-.8-1.8-2.7-1.5-3.7-.6-1.2-.2-2.4.4-.8 1.5 2.9 2.3 3 1 1.8-1z"/><path fill="#E02020" d="m1176.6 292.6-3.1-7.7-9.6 6.7-6.3-2.5-.7 2 .4 3.9-.6 1.9.4 2.4-1.7 10.2.3.9 6.1 1 2.1-2 1.1-2.3 4-.8.7-2.2 1.7-1-6.1-6.4 10.4-3.1.9-1z"/><path d="m1682.5 279.9-4.5-1.3-1.1 2.7-3.3-.8-1.3 3.8 1.2 3 4.2 1.8-.1-3.7 2.1-1.5 3.1 2.1 1.3-3.9-1.6-2.2Zm24.4-19.3-3.6-6.7 1.3-6.4-2.8-5.2-8.1-8.7-4.8 1.2.2 3.9 5.1 7.1 1 7.9-1.7 2.5-4.5 6.5-5-3.1v11.5l-6.3-1.3-9.6 1.9-1.9 4.4-3.9 3.3-1.1 4-4.3 2 4 4.3 4.1 1.9.9 5.7 3.5 2.5 2.5-2.7-.8-10.8-7.3-4.7 6.1-.1 5-3 8.6-1.4 2.4 4.8 4.6 2.4 4.4-7.3 9.1-.4 5.4-3 .6-4.6-2.5-3.2-.6-5.2Zm-11.8-44.2-5.3-2.1-10.4-6.4 1.9 4.8 4.3 8.5-5.2.4.6 4.7 4.6 6.1h5.7l-1.6-6.8 10.8 4.2.4-6.1 6.4-1.7-6-6.9-1.7 2.6-4.5-1.3ZM1298.8 148.8l-9-1.3-3.1 2.5-10.8 2.2-1.7 1.5-16.8 2.1-1.4 2.1 5 4.1-3.9 1.6 1.5 1.7-3.6 2.9 9.4 4.2-.2 3-6.9-.3-.8 1.8-7.3-3.2-7.6.2-4.3 2.5-6.6-2.4-11.9-4.3-7.5.2-8.1 6.6.7 4.6-6-3.6-2.1 6.8 1.7 1.2-1.7 4.7 5.3 4.3 3.6-.2 4.2 4.1.2 3.2 2.8 1 4.4-1.3 5-2.7 4.7 1.5 4.9-.3 1.9 3.9.6 6-4.6-.9-4 1 .9 4.5-5-.6.6 2 3.2 1.6 3.7 5.5 6.4 2.1 1.5 2.1-.7 2.6.7 1.5 1.8-2 5.5-1.3 3.8 1.7 4.9 4.9 2.5-.3-6.2-22.8 11.9-3.6 1.1.5 9.1 4.5 4.8 2.3 6.5 5.5 5.7-.9 8.6-.5 7.5 4.5 1.5 6.2 2.5.1 2.6 5 6.6.2 2.3 3h1.9l.9-4.5 5.4-4.3 2.5-1.2.3-2.7 3.1-.8 9.1 2.1-.5-3.6 2.5-1.3 8.1 2.6 1.6-.7 8.6.2 7.8.6 3.3 2.2 3.5.9-1.7-3.5 2.9-1.6-8.7-10.7 9-2.4 2-1.4-1-11.1 10.7 2 1.6-2.8-2.5-6.2 3.8-.6 1.8-4.2-4.3-3.8-6 .9-3.3-2.6-3.9-1.2-4.1-3.6-3.2-1.1-6.2 1.6-8.3-3.6-1.1 3.3-18.1-15.5-8.3-4.7.8-1.9-9.1 5.7-4.4.4-1.2-3.3-7-2.1-4.3 1.5-4.3-6.3zM1201.7 472.2h-3.8l-2.3-2.1-5.1 2.6-1.6 2.7-3.8-.5-1.2-.7-1.3.1h-1.8l-7.2-5.4h-3.9l-2-2.1v-3.6l-2.9-1.1-3.8 4.2-3.4 3.8 2.7 4.4.7 3.2 2.6 7.3-2.1 4.7-2.7 4.2-1.6 2.6v.3l1.4 2.4-.4 4.7 20.2 13 .4 3.7 8 6.3 2.2-2.1 1.2-4.2 1.8-2.6.9-4.5 2.1-.4 1.4-2.7 4-2.5-3.3-5.3-.2-23.2 4.8-7.2z" fill="#F2F2F2"/><path fill="#F2F2F2" d="m1377.2 227.6-3.5-.9-3.3-2.2-7.8-.6-8.6-.2-1.6.7-8.1-2.6-2.5 1.3.5 3.6-9.1-2.1-3.1.8-.3 2.7 1.8.6-3.1 4.1 4.6 2.3 3.2-1.6 7.1 3.3-5.2 4.5-4.1-.6-1.4 2-5.9-1.1.6 3.7 5.4-.5 7.1 2 9.5-.9 1-1.5-1.1-1.5 4-3 3.2-1.2 5.7.9.6-4 6.4-.8 1-2.4 6.8-3.4.2-1.4zM1564.8 406.8l-5.2-2.3-2 4.3-4.9-2.4-5.3-1-7.1 1.3-3 5.2 2.1 7.7 3.4 6.6 2.6 3.3 4.7.9 4.7-2.5 5.8-.5-2.8-3.8 8.9-4.9-.1-7.7-1.8-4.2zM1627.3 256.7l6.2 5.5-3.4 1.1 5.2 6.8 1.1 4.8 2.1 3.5 4.5-.5 3.2-2.7 4.2-1.2.5-3.6-3.4-7.5-3.3-4.2-8.2-7.6.1 1.6-2.1.4-3.5.3-.7 2.9-2.4-.2-.1.6zM1225.6 306.4l-3.7-.5-3.2 6.1 4.9.6 1.7 3.1 3.8-.2-2.4-4.8.3-1.5-1.4-2.8z"/><path fill="#F2F2F2" d="m1564.8 406.8.2-6.4-2-4.5-4.8-4.4-4.3-5.6-5.7-7.5-7.3-3.8 1.3-2.3 3.3-1.7-3-5.5-6.8-.1-3.4-5.7-4-5.1-2.7 1 1.9 7.2-2.9-.1-.7-1.5-4.1 4.1-.8 2.4 2.6 1.9.9 3.8 3.8.3-.4 6.7 1 5.7 5.3-3.8 1.8 1.2 3.2-.2.8-2.2 4.3.4 4.9 5.2 1.3 6.3 5.2 5.5.5 5.4-1.5 2.9 4.9 2.4 2-4.3 5.2 2.3zM919.4 448.3l-1.6-.2-1.1 2.6-1.6-.1-1.1-1.3.4-2.6-2.3-3.9-1.5.7-1.2.2-2.6 3-2.6 3.4-.3 1.9-1.3 2 3.7 4.1 4.8 3.5 5.1 4.8 5.7 3.1 1.5-.1.5-5.2.5-.8-.2-2.5-2.3-2.7-1.8-.4-1.6-1.8 1.2-2.8-.6-3.1.3-1.8zM1101.8 296.4l-1.5-2.1-5.4-.8-1.8-1.1h-2l-2-2.8-7.3-1.3-3.6.8-3.7 3-1.5 3.1 1.5 4.8-2.4 3-2.5 1.6-5.9-3.1-7.7-2.7-4.9-1.2-2.8-5.7-7.2-2.8-4.5-1.1-2.2.6-6.4-2.2-.1 4.9-2.6 1.8-1.5 2-3.7 2.5.7 2.6-.4 2.7-2.6 1.4 1.9 5.6.4 3-.9 5.2.5 2.9-.6 3.5.5 4-2.1 2.6 3.4 4.7.2 2.7 2 3.6 2.6-1.2 4.3 2.9 2.5 4 8.8 2.8 3.1 3.5 3.9-2.4 5.4-3.5 22.3 12.2 22.4 12.2v-2.7h6.3l-.5-12.7-1-23.4-1.3-22.7-2-5.1 1.2-3.9-1.1-2.7 1.8-3zM1422.2 457.7l2.3-1.8.6-6.6-3-6.6-2.9-4.5-4.1-3.5-1.9 10.3 1.4 9.1 2.8 5.1 4.8-1.5zM1118.1 691.5l1.1-2 3.1-1 1.1-2.1 1.9-3.1-1.7-1.9-2.3-2-2.6 1.3-3.1 2.5-3.2 4 3.7 4.9 2-.6zM1090.4 146.2l-5-2.9-2.5-.4-.9-1.3-4.4.6-7.9-.4-5 1.9 1.7 5 5 1.1 2.2.9-.2 1.7.6 1.5 2.5.6 1.4 1.9h4.6l4.8-2.2.5-3.4 3.5-2-.9-2.6zM997 183.6l.2-2.7-1-1.4-1.3.2-.4 3.5 1.1.5 1.4-.1z"/><path fill="#F2F2F2" d="M1092.1 135.1h-3.8l-4.4-2.2-2.1-.7-3.7 1-.2 4.6-3.6.1-4.4-4.5-4 2.1-1.7 3.7.5 4.5 5-1.9 7.9.4 4.4-.6.9 1.3 2.5.4 5 2.9 2.6-1 4.6-2.3-2.1-3.6-1-2.8zM955.2 273.4l-2.3-.1-5.5-1.4-5 .4-3.1-2.7h-3.9l-1.8 3.9-3.7 6.7-4 2.6-5.4 2.9-3.5 4.3-.9 3.4-2.1 5.4 1.1 7.9-4.7 5.3-2.7 1.7-4.4 4.4-5.1.7-2.8 2.4-.1.1-3.6 6.5-3.7 2.3-2.1 4-.2 3.3-1.6 3.8-1.9 1-3.1 4-2 4.5.3 2.2-1.9 3.3-2.2 1.7-.3 3h.1l12.4-.5.7-2.3 2.3-2.9 2-8.8 7.8-6.8 2.8-8.1 1.7-.4 1.9-5 4.6-.7 1.9.9h2.5l1.8-1.5 3.4-.2-.1-3.4h.8l.1-7.5 8.9-4.7 5.4-1 4.4-1.7 2.1-3.2 6.3-2.5.3-4.7 3.1-.5 2.5-2.4 7-1 1-2.5-1.4-1.4-1.8-6.7-.3-3.9-2-4.1zM1108.5 208.3l1.2-.7.5-2.1 1.1-2-.5-1.1 1-.5.6.9 3 .2 1.2-.5-1-.6.2-1-2-1.5-1.1-2.6-1.9-1.1v-2.1l-2.5-1.6-2-.3-3.9-1.9-3.2.6-1.1.9 1.6.6 1.8 1.9 1.9 2.6 3.4 3.7.6 2.7-.2 2.7 1.3 2.8zM1245.7 583.4l-1.1-4.2-1.4-2.7-1.8-2.7-2 2.8-.3 3.8-3.3 4.5-2.3-.8.6 2.7-1.8 3.2-4.8 3.9-3.4 3.7h-2.4l-2.2 1.2-3.1 1.3-2.8.2-1 4.1-2.2 3.5.1 5.9.8 4 1.1 3-.8 4.1-2.9 4.8-.2 2.1-2.6 1.1-1.3 4.6.2 4.6 1.6 5-.1 5.7 1.2 3.3 4.2 2.3 3 1.7 5-2.7 4.6-1.5 3.1-7.4 2.8-8.9 4.3-12 3.3-8.8 2.7-7.4.8-5.4 1.6-1.5.7-2.7-.8-4.7 1.2-1.9 1.6 3.8 1.1-1.9.8-3.1-1.3-2.9-.5-7.7zM434.4 332.8l-3.6-1.4-3.9-2-.8-3-.2-4.5-2.4-3.6-1-3.7-1.6-4.4-3.1-2.5-4.4.1-4.8 5-4-1.9-2.2-1.9-.4-3.5-.8-3.3-2.4-2.8-2.1-2-1.3-2.2h-9.3l-.8 2.6h-15l-10.7-4.4-7.1-3.1 1-1.3-7 .7-6.3.5.2 5.7.7 5.1.7 4.1.8 4 2.6 1.8 2.9 4.5-1 2.9-2.7 2.3-2.1-.3-.6.5 2.3 3.7 2.9 1.5 1 1.7.9-.9 3.1 2.9 2.1 2 .1 3.4-1.2 4.7 2.5 1.6 3.3 3.1 2.9 3.6.7 3.9h1l2.7-2.3.4-1.2-1.5-2.8-1.6-2.9-2.6-.2.4-3.4-.9-3-1-2.8-.5-5.9-2.6-3.2-.6-2.3-1.2-1.6v-4.1l-1 .1-.1-2.2-.7-.5-.4-1.4-2.7-4.4-1.1-2.6 1-4.8.1-3 1.8-2.6 2.4 1.7 1.9-.2 3.1 2.5-.9 2.4.4 4.9 1.5 4.7-.4 2 1.7 3.1 2.3 3.4 2.7.5.3 4.4 2.4 3.1 2.5 1.5-1.8 4 .7 1.5 4.1 2.6 1.9 4 4.5 4.9 3.8 6.4 1.3 3.2v2.5l1.4 2.9-.3 2.2-1.6 1.6.3 1.8-1.9.7.8 3.1 2.2 4 5.3 3.6 1.9 2.9 5.4 2 3 .4 1.2 1.7 4.2 3 5.9 3 4 .9 4.8 2.9 4 1.2 3.7 1.7 2.9-.7 4.8-2.4 3.1-.4 4.4 1.6 2.6 2.1 5.5 6.9.4-1.9.8-1.5-.7-1.2 3.3-5.2h7.1l.4-2.1-.8-.4-.5-1.4-1.9-1.5-1.8-2.1h2.6l.4-3.6h5.2l5.1.1.1-1 .7-.3.9.8 2.5-3.9h1l1.2-.1 1.2 1.6 2-5 1.2-2.7-.9-1.1 1.8-3.9 3.5-3.8.6-3.1-1.2-1.3-3.4.5-4.8-.2-6 1.5-4 1.7-1.2 1.8-1.2 5.4-1.8 3.7-3.9 2.6-3.6 1.1-4.3 1.1-4.3.6-5.1 1.8-1.9-2.6-5.6-1.7-1.8-3.2-.7-3.6-3-4.7-.4-5-1.2-3.1-.5-3.4 1.1-3.1 1.8-8.6 1.8-4.5 3.1-5.6-2.1.2zM1084 229.8l-2.8-2-2.4.1-1.7.4-1.1.2-2.9 1-.1 1.2h-.7l-.4 2.1.9 2.6 2.3 1.6 3.3-.6 1.9-1.3 2.8.1.7-1.1 1-.2zM990.3 375.3l-6.1.6-.1-4-2.6-1.1-3.4-1.8-1.3-3-18.6-13.8-18.4-13.9-8.4.1 2.4 27.4 2.4 27.5 1 .8-1.3 4.4-22.3.1-.9 1.4-2.1-.4-3.2 1.3-3.8-1.8-1.8.2-1 3.7-1.9 1.2.2 3.9 1.1 3.7 2.1 1.8.4 2.4-.3 2 .3 2.3h.9l1.5-.8.9.2 1.5 1.6 2.4.5 1.6-1.4 1.8-.8 1.3-.9 1.1.2 1.3 1.4.6 1.7 2.3 2.7-1.2 1.6-.2 2.1 1.2-.6.7.7-.3 1.9 1.7 1.8.7-.6 1.6 1 4.3.1 1-1.9 1 .1 1.6-.7.9 2.7 1.3-.8 2.3-.9-.4-3.7 1.6-2.7-.2-2.2 4.5-5.2.8-4.4 1.6-1.6 2.7.9 2.3-1.3.8-1.6 4.3-2.9 1.1-2 5.2-2.6 3-.9 1.4 1.2h3.6l3.6-.3 2-2.2 7.6-.6 4.9-1 .5-3.9 3-4.3-.1-14.6zM1523.9 360.8l-.6-2.6-3.8 1.8-2.5-1.2-4.5-2.4.8-5.2-3.7-1.3-2.3-5.8-5.6 1-.7-7.5 4.1-5.3-.8-5.3-1.3-4.9-2.7-1.5-2.7-3.7-3 .4.9 2.4-1.6 1.2 1.3 3.9-4.1-1.1-6.1 4.4.9 3.6-2.1 5.4.3 3.1-1.5 5.2-4.6-1.4.9 6.6-.9 2.1.9 2.7-2.4 1.5.5 4.6-2.1-1 1.1 5.1 4.6 5.2 3.4.9-.4 2.2 5.4 7.4 1.9 5.9-.9 7.9 3.6 1.5 3.2.6 5.8-4.6 3.2-3.1 3.1 5.2 2 8.1 2.6 7.6 2.6 3.3.2 6.9 2.2 3.8-1.3 4.8.9 4.8 2.2-6.6 2.6-5.9-2.8-5.8-.2-3-1-3.5-4.2-5.1-1.7-3.2 1.7-1.1 1.4-5.6-2.9-4.2-4.1-4.6-3.5-5.6 2.2-1.1 1.5-6.9 3.9-.3 2.8-2.8 3-1.4.8-2.4 4.1-4.1z"/><path fill="#E02020" d="m1070 224.8.4-.6-2-1.2-1.8-.7-.8-.8-1.5-1.1-.9.6-1.5 1.4-.4 3.4-.5 1 2.3 1.2 1.6 2.1 1.1.4-.5-1.9 2-3.1.4 1.2 1.3-.5.8-1.4z"/><path fill="#F2F2F2" d="m1463.7 177.1-3.7-4.6-6.6-1.5-4.8-.8-6.9-2.5-1.3 6.4 4 3.6-2.4 4.3-7.9-1.6-5-.2-4.7-2.9-5.1-.1-5.3-1.9-5.9 2.9-6.6 5.4-4.7 1 3.3 4.4 5.7 3.3 8.1 2.3 5.8 5 1.3 7.3 3 2.7 6.4 1 7.2.9 7.9 3.8 3.4.7 4.9 5.7 4.7 3.6 5.5-.1 11.2 1.3 6.4-.8 5.5.9 9.3 3.8 6.2-.1 3.2 2 4.4-3.3 7.2-2.2 7.5-.2 4.9-2.2 1.9-3.3 2.5-2-1.9-2.1-2.9-2.3.4-4 3.2.5 5.9 1.3 3.1-3.3 6.3-2.4 1.4-4.1 2.4-1.8 6.8-.8 4.3.7-.7-2.2-7.2-4.3-5.1-2-2.5 2.3-5.4-1-2.4.8-2.7-2.6-.3-6.2-.6-4.6-5.5.5-3.9-2.1-3.3-.7-4.5 4.4-5.8 1-3.6 1.6-6.7-1h-4.5l-4.9-3.1-6.5-3-5.4-.8-5.7.8-3.9 1.1-8.4-2.6zM1193 565.7l-.8-2.9-4.6 3.7-6.2 2.5-3.3-.1-2.1 1.9-3.9.1-1.4.8-6.7-1.8-2.1.3-1.6 6 .7 7.3h.3l1.9 2 2.2 4.6.1 8.2-2.5 1.3-1.9 4.5-3.4-4-.2-4.5 1.3-2.9-.3-2.6-2.1-1.6-1.6.6-3-3-17.1 5.2.3 4.5.3 2.4 4.6-.1 2.6 1.3 1.1 1.6 2.6.5 2.8 2-.3 8.1-1.3 4.4-.5 4.7.8 1.9-.8 3.7-.9.6-1.6 4.6-6.2 7.2 2.2 9 1.1 4.5-1.4 7.1.4 2.3.6 2.9.3 2.8h4.1l.7-3.3-1.4-.5-.3-2.6 2.6-2.4 6.8-3.4 4.6-2.2 2.5-2.3.9-2.6-1.2-1.1 1.1-3 .5-6.2-1 .3v-1.9l-.8-3.7-2.4-4.8.7-4.6 2.3-1.4 4.1-4.6 2.2-1.1 6.7-6.8 6.4-3.1 5.2-2.5 3.7-3.9 2.4-4.4 1.9-4.6-.9-3.1.2-9.9-.4-5.6.4-6.3zM939.8 338.3l-20.3-15.5-.2 9.7-17.9-.3-.2 16.3-5.2.5-1.4 3.3.9 9.2-21.6-.1-1.2 2.2 2.8 2.7 1.4 3-.7 3.2.6 3.2.5 6.3-.8 5.9-1.7 3.2.4 3.4 2-2 2.7.5 2.8-1.4h3.1l2.6 1.8 3.7 1.7 3.2 4.7 3.6 4.4 1.9-1.2 1-3.7 1.8-.2 3.8 1.8 3.2-1.3 2.1.4.9-1.4 22.3-.1 1.3-4.4-1-.8-2.4-27.5-2.4-27.4 8.4-.1z"/><path fill="#F2F2F2" d="m1159.2 586.5.1-2.3-1.2-1.9.1-2.8-1.5-4.7 1.7-3.5-.1-7.7-1.9-4.1.2-.7-1.1-1.7-5.4-1.2 2.6 2.8 1.2 5.4-1 1.8-1.2 5.1.9 5.3-1.8 2.2-1.9 5.9 2.9 1.7 3 3 1.6-.6 2.1 1.6.3 2.6-1.3 2.9.2 4.5 3.4 4 1.9-4.5 2.5-1.3-.1-8.2-2.2-4.6-1.9-2h-.3v.8l1.1.3 1 3.4-.2.8-1.9-2.5-1 1.6-.8-1.4zM1533.6 457.7l-4.7-2.8-.9 1.1 1.4 2.7-.4 4.7 2.1 3.4 1 5.3 3.4 4.3.8 3.2 6.7 5 5.4 4.8 4-.5.1-2.1-2.3-5.6-2.1-1.8-.5-3.8-.6-2.1.5-2.9-.5-4.3-2.6-4.3-3.5-3.8-1.3-.6-1.7 2.6-3.7.8-.6-3.3Zm99 11-1.2-3.1 3.8-.4.3-2.4-4.8-2-3.8-1.7-.4-2.8-3.1-3.2h-2.3l-2.5 5-4.1 4.4-.1 3.1-.1 4.1-2.7-.2-1.1 2.2-2.7-3.3-2.6 4-3.8 5-6.7 1.4-2.4 1.2-.9 5.4-4.4 1.2-4.1-2.2 1 4.3 3.9 3.5 3.6-1.2 3.6.4 3.2-3.2 2.7-.6 5.4 1.8 4.5-1.3 2.7-8.9 2-2.2 1.7-7.2h6.4l5 1 4-2.1ZM1095.4 608.7l-10.3 2.5-13.4-.9-3.7-3-22.5.3-.9.4-3.2-2.9-3.6-.1-3.3 1-2.7 1.2.2 4.9 4.4 6.2 1.1 4 2.8 7.7 2.7 5.2 2.1 2.6.6 3.5v7.6l1.6 9.8 1.2 4.6 1 6.2 1.9 4.7 3.9 4.8 2.7-3.2 2.1 1.8.8 2.7 2.4.5 3.3 1.2 2.9-.5 5-3.2 1.1-23.6.6-18.5 5.4-.2.9-22.7 4.1-.2 8.6-2.2 2 2.6 3.7-2.5h1.6l3.2-1.5v-.5l-2.1-1.4-3.6-.4zM1041.3 350.6l-8.8-2.8-18.6 12.2-15.8 12.5-7.8 2.8.1 14.6-3 4.3-.5 3.9-4.9 1-7.6.6-2 2.2-3.6.3-.5 3.1.8 2.9 3.1 4.1.2 3.1 6.4 1.4-.1 4.4 1.9-1.9h2l4.3 3.7.3-5.7 1.6-2.6.8-3.6 1.4-1.4 6-.8 5.6 2.4 2.1 2.4 2.9.1 2.6-1.5 6.8 3.3 2.8-.2 3.3-2.7 3.3.2 1.6-.9 3 .4 4.3 1.8 4.3-3.5 1.3.2 3.9 7 1-.2.2-2 1.6-.4.5-2.9-3.6-.2v-4.1l-2.4-2.3 2.3-8.4 6.9-6 .2-8.3 1.8-12.9 1.1-2.7-2.3-2.2-.2-2.1-2-1.6-1.6-9.9-3.9 2.4-3.1-3.5z"/><path fill="#F2F2F2" d="m1045.8 417.7-1 .2-3.9-7-1.3-.2-4.3 3.5-4.3-1.8-3-.4-1.6.9-3.3-.2-3.3 2.7-2.8.2-6.8-3.3-2.6 1.5-2.9-.1-2.1-2.4-5.6-2.4-6 .8-1.4 1.4-.8 3.6-1.6 2.6-.3 5.7-.2 2.1 1.2 3.8-1.1 2.5.6 1.7-2.7 4-1.7 1.9-1 4 .1 4.1-.3 10.2h9.2l3.9 4.2 1.9 4.6 3 3.9 4.5.2 2.2-1.4 2.1.3 5.8-2.3 1.4-4.5 2.7-6.1 1.6-.1 3.3-3.7 2.1-.1 3.2 2.6 3.9-2.2.5-2.6 1.2-2.6.8-3.2 3-2.6 1.1-4.5 1.2-1.4.7-3.3 1.5-4 4.6-5 .3-2.1.6-1.1-2.3-2.6zM504.1 401.8l-1.9-.2-.9.9-2 .8h-1.4l-1.3.8-1.1-.3-.9-.9-.6.2-.8 1.5-.5-.1-.3 1.3-2.1 1.8-1.1.7-.6.8-1.5-1.3-1.4 1.7h-1.2l-1.3.2-.2 3.1h-.8l-.8 1.5-1.8.3-.4.4-.9-1-.7 1 2.6 2.9 2.2 2 1 2.1 2.5 2.6 1.8 2 .9-.8 3.5 1.7 1.4-.8 1.7.5.8 1.3 1.7.4 1.4-1.3-.8-1.1-.1-1.7 1.2-1.6-.2-1.7.7-2.7.9-.7.1-2.8-.2-1.7.4-2.8.9-2.5 1.4-2.2-.3-2.3.4-1.4.6-.6zM995.5 168.9h2.9l1.1-2.3 1-5.6-1-2-3.9-.2-6.5 2.6-3.9 8.9-2.5 1.7 3.6.5 4.4-1.3 3.1 2.7 2.8 1.4-1.1-6.4zM1078.8 58.1l-6.9 1.1-7.3-.3-5.1 4.4-6.7-.3-8.5 2.3-10.1 6.8-6.4 4-8.8 10.7-7.1 7.8-8.1 5.8-11.2 4.8-3.9 3.6 1.9 13.4 1.9 6.3 6.4 3 6-1.4 8.5-6.8 3.3 3.6 1.7-3.3 3.4-4 .9-6.9-3.1-2.9-1-7.6 2.3-5.3 4.3.1 1.3-2.2-1.8-1.9 5.7-7.9 3.4-6.1 2.2-3.9 4 .1.6-3.1 7.9.9v-3.5l2.5-.3 2.1-1.4 5.1 2.9 5.3-.3 4.7 1.3 3.4-2.4 1.1-3.9 5.8-1.8 5.7 2.1-.8 3.8 3.2-.5 6.4-2.2-5.4-3.3 4.8-1.4-13.6-3.9Zm-22.6-33.3-5.6-1-1.9-1.7-7.2.9 2.6 1.5-2.2 1.2 6.7 1.1 7.6-2Zm-25.4-8.3-4.8-1.6-5.1.2-1 1.5h-5l-2.2-1.5-9.3 1.6 3.2 3.5 7.6 3.8 5.7 1.4-3 1.7 8.4 2.9 4.4-.2.9-3.9 3-.9 1.2-3.4 8.5-1.8-12.5-3.3Zm24.2-3.1-9.1-1-3.2 1.2-5.3-1-10.4 1.2 4.3 2h5.1l.9 1.3 10.6.7 10.1-.5 4.3-2.4-7.3-1.5ZM1445.2 319.8l-6.5-.6-6.4-1.5-5-2.8-4.5-1.2-2.5-3.1-3.2-.9-6.4-4.1-4.7-2-1.9 1.5-2.8 2.9-.9 5.9 5.7 2.5 5.8 3.1 7.7 3.5 7.6.9 3.8 3.2 4.3.6 6.8 1.5 4.6-.1.1-2.5-1.5-4.1-.1-2.7zM1858.6 757.8l.9-2.6-5.8 2.9-3.4 3.4-3.2 1.6-5.9 4.6-5.6 3.2-7 3.2-5.5 2.4-4.3 1.1-11.3 6.1-6.4 4.6-1.1 2.3 5.1.4 1.5 2.1 4.5.1 4-1.8 6.3-2.8 8.1-6.2 4.7-4.1 6.2-2.3 4-.1.6-2.9 4.6-2.5 7-4.5 4.2-2.9 2.1-2.6.5-2.6-5.6 2.5.8-2.6Zm28.8-30.5 1.9-5.7-3.1-1.7-.8-3.6-2.3.5-.4 4.6.8 5.7.9 2.7-.9 1.1-.6 4.4-2.4 4.1-4.2 5-5.3 2.2-1.7 2.4 3.7 2.5-.8 3.5-6.9 5.1 1.4.9-.4 1.6 5.9-2.5 5.9-4.2 4.5-3.4 1.6-1.2 1.5-2.7 2.8-2 3.8.2 4.2-3.8 5.1-5.7-2.1-.8-4.6 2.5-3.2-.5-2.9-2.1 2.3-4.9-1.2-1.8-2.9 4.4.4-6.8Z"/><path d="m1291 362.8 2.1-2 .8-1.8 1.6-3.8-.1-1.4-2.1-.8-1.6-2.1-2.9-3.7-3.3-1.1-4.1-.9-3.3-2.3-2.9-4.3h-2.8l-.1 4.2 1.1.8-2.4 1.3.3 2.6-1.4 2.6.1 2.6 2.9 4.5-2.6 12.7-16.1 6.4 5.2 10.5 2.1 4.4 2.5-.3 3.6-2.2 3.1.6 2.5-1.8-.2-2.5 2.1-1.6h3.4l1.2-1.3.2-3.1 3.3-2.4h2.6l.4-.8-1-4.2.6-3.2 1-1.5 2.5.3 1.7-4.4Zm-16.6-30.4.2-2.6-.7-.6-1.3 2.2 1.3 2.2.5-1.2Z" fill="#E02020"/><path fill="#F2F2F2" d="m1378.3 271.3-9.4-2.6-2.9-5-4.7-3-2.8.7-2.4 1.2-5.8.8-5.3 1.3-2.4 2.8 1.9 2.8 1.4 3.2-2 2.7.8 2.5-.9 2.3-5.1-.2 3 4.2-3 1.6-1.5 3.8 1.1 3.8-1.7 1.8-2.1-.6-4 .9-.2 1.7h-4l-2.3 3.6.8 5.4-6.6 2.6-3.8-.5-.9 1.4-3.3-.8-5.3.9-9.6-3.2 3.2 3.3 2.8 3.9 5.6 2.7 1 5.7 2.7 1 .9 2.9-7.4 3.3-1.2 7.4 7.6-.9 8.9-.1 9.9-1.2 4.9 4.8 2.1 4.6 4.2 1.6 3.2-4.2h12l-1.8-5.5-3.5-3.2-1.3-4.9-4-2.9 4.9-6.6 6.4.5 4.5-6.7 2.1-6.5 3.9-6.3-1-4.5 3.7-3.7-5-3.1-2.9-4.3-3.2-5.6 1.9-2.8 8.5 1.6 5.7-1 3.7-5.4zM533.5 442l-2-1.8-1.7-1.9-2.5-1.1-3.1-.2.3-.6-3.1-.4-2 1.9-3.5 1.3-2.5 1.6-2.7.5-1.5-1.6-.5.5-2.3-.3.2-1.3-1.9-2.3-2.2.6-.1 2.5 1.1 1-.8.7.1 1.2-.5 1.3-.4 1.2.6 1 .3-1.4h2.4l1.4.7 2.3.5 1 2.5 1.8.4.8-1.1.8 3.8 2.6-.3.9-.9 1.5-.9-2.5-3.4.6-1.3 1.3-.3 2.3-1.6 1.2-2.2 2.5-.4 2.7 1.8 1 2.1 1.4.4-1.5 1.7 1 3.5 1.8 1.8.9-3.1 1.8.5 1.1-1.9-1.1-3.8.7-.9zM574.3 524.5l-2.9-3.4-1.7-.1 3.5-6.5-4.4-3-3.3.6-2.1-1.1-3 1.7-4.2-.8-3.4-6.7-2.7-1.7-1.8-3-3.7-3-1.5.6.8 4.9-1.7 4.1-6 6.7-6.7 2.5-3.3 5.5-.9 4.3-3.1 2.6-2.5-3.2-2.3-.7-2.3.5-.2-2.3 1.5-1.5-.7-2.7-4.4 4-1.6 4.5 3 6.1-1.7 2.8 4.1 2.6 4.5 4.1 2 4.7 2.4 2.9 6 12.7 6.2 11.7 5.4 8.4-.8 1.8 2.8 5.3 4.6 3.9 10.7 6.9 11.6 6.4.7 2.6 5.9 3.7 2.7-1.6 1.2-3.3 2.8-6.9-2.8-5.3 1.1-2.1-1.2-2.4 1.9-3.2-.3-5.4-.1-4.5 1.1-2.1-5.5-10.3-3 1.1-2.6-.7-.2-9.7-4.4 3.8-4.9-.2-2.3-3.4-3.7-.3 1-2.8-3.3-3.8-2.6-5.8 1.5-1.1-.1-2.7 3.3-1.9-.7-3.4 1.3-2.2.4-3 6.2-4.3 4.6-1.2.7-1zM1674.6 443.6l-.6-2.3-.8-3.2-4.8-3 .8 4.9-3.9.2-.7 2.8-4.2 1.7-2.2-2.8-2.8 2.4-3.4 1.7-1.9 5.4 1.1 1.9 3.9-3.6 2.7.3 1.5-2.7 3.8 3-1.5 3.1 1.9 4.6 6.8 3.7 1.4-3-2.1-4.7 2.4-3.2 2.5 6.4 1.5-5.8-.6-3.5-.8-4.3Zm-14.5-11.8v-6.1l-3.6 6.1.5-4.2-3 .3-.3 4-1.2 1.8-1 1.7 3.8 4.4 1.6-1.9 1.4-4 1.8-2.1Zm-30.1 6.1 2.6-4.4 3.4-3.5-1.5-5.2-2.4 6.3-2.9 4.4-3.8 4-2.4 4.4 7-6Zm17.4-16.4 1.2 3-.1 3.3.5 2.9 3.3-1.9 2.4-2.7-.2-2.6h-3.6l-3.5-2Zm20-1.7-1.8-2.4-5.4-.1 4 4.8.3 2.4-3.3-.5 1.2 3.9 1.7.3.7 4.5 2.5-1.4-1.7-4-.4-2.1 4.5 1.7-2.3-7.1Zm-22.9-5.8-2.2-2.3-4.8-.2 3.4 4.8 2.8 3.2.8-5.5Zm-6.4-34.6h-3.3l-.9 5.8 1.1 9.9-2.6-2 1.2 6 1.2 2.8 3.3 3.7.4-2.3 1.8 1.4-1.5 1.7.1 2.6 2.9 1.4 5-.9 4 3.8 1.1-2.4 2.5 3.4 4.8 3.1.2-2.9-2-1.6.1-3.4-7.5-3.6-2.3.8-3.1-.7-2-5.1.1-5.1 3-2.1.6-5.3-2.7-4.6.4-2.6-.7-1.6-1.5 1.6-3.7-1.8ZM1840.7 540.6l.9-1.8-2.4-2.2-2.5-4-1.6-1.5-.5-1.9-.8.7.9 4.8 2.2 4 2.2 2.5 1.6-.6Zm-21.2-8.6 2.1-3.9.4-3.5-1.1-1-3.4.1.4 3.7-3.3 2.3-1.7 2.2-3.2.5-.4-3.4-.8.1-1 3.1-3.1.5-5-.9-.6 1.9 3.1 1.8 4.5 1.9h2.9l3-1.5 3.2-1.6 1-1.8 3-.5Zm-27.8 12.2-.9-4.3 5.2-.7-1.1-3.3-9.1-4-.6-3.7-2.9-3.2-3.7-3.3-10.2-3.6-9.6-4.4-1 20.7-1.5 20.8 5.7.2 3.1 1.1 4.6-2.2-.3-4.7 3.6-2.1 4.9-1.8 7 2.8 2.4 5.6 2.9 3.5 3.9 4 5.5 1 4.8.7 1.1 1.6 3.8-.4.8-1.8-5.6-2.7 1.8-1.2-4.2-1.1.5-2.8-3.2.2-3-6.8-4.7-4.1Zm34.7-18.4-.5-3.3-2-2.1-2.1-2.6-2.3-1.5-1.9-1.4-2.9-1.8-1.6 1.5 3.9 1.9 3.1 2.7 2.4 2.1 1.2 2.4.8 3.8 1.9-1.7ZM1059.4 153.3l-4.6-.1-.5-1.4-4.8-1.1-5.7 2.1-7.1 2.8-3.1 1.7 1.4 3.1-1.2 1.6 2 2.2 1.4 3.3-.1 2.1 2.3 3.9 2.4 1.9 3.7.6-.1 1.7 2.7 1.2.6-1.5 3.4.6.7 2 3.6.3 2.6 3.1.3.4 1.9-.9 2.7 2.2 2.8-1.3 2.4.6 3.4-.8 4.9 2.3 1.1.4-1.6-2.8 3.8-5.1 2.3-.7.3-1.8-3.1-5.3-.5-2.7-1.9-2.9 2.7-1.2-.3-2.4-1.7-2.3-.6-2.7-1.4-1.9-2.5-.6-8.7.1-5.9-.7zM1634.7 227.3l-5.5-3.6.1 3.5-6.3 2.6 2.7 3.3-4.6-.2-3.6-2-1 4.4-3.8 3.4-2.1 4 3.3 1.7 3.4.7.8 1 .4 3.5 1.1 1.2-.9.7-.1 2.9 1.9 1 1.6.6.8 1.2 1.3-.5v-1.3l3.1 1.3.1-.6 2.4.2.7-2.9 3.5-.3 2.1-.4-.1-1.6-4.3-2.8-2.6-1 .2-.7-1.2-2.8 1.3-1.7 2.9-1 1-1.9.3-1.1 1.9-1.4-2.8-4.5.3-2.1.9-2 2.2.3-1.4-1.1zM927.2 258.8l2-2.5.8-1.7-1.8-1.9 1.6-4.3-2-3.8 2.2-.5.3-3 .9-.9.2-4.9 2.4-1.7-1.3-3.1-3-.2-.9.8h-3l-1.2-3.1-2.1.9-1.9 1.6.1 2.1.9 2.2.1 2.7-1.3 3.8-.4 2.5-2.2 2.3-.6 4.2 1.2 2.4 2.3.6.4 4-1 5.1 2.8-.7 2.7.9 2.2-1.7zM645.7 625.5l-.3-1.9-5.4-3.3-5.1-.1-9.5 1.9-2.1 5.6.2 3.4-1.5 7.6 11.2 10.4 4.6 1 7.2 4.7 5.9 2.5 1.1 2.8-4.2 9.6 5.7 1.8 6.2 1 4.2-1.1 4.3-4.8.3-5.7.7-3.6.3-3.8-.3-3.5-2.1-1.2-2 1.1-2-.3-.9-2.5-1-5.8-1.2-1.9-3.9-1.7-2.1 1.2-6-1.2-.4-8.6-1.9-3.6zM1248 340.5l.8-3.8-.5-3.7-1.9-2-1.4.7-1.1 3.3.8 4.7 1.8 1.2 1.5-.4zM1098.1 191.3h-2.1l-1 1.5-3.6.6-1.6.9-2.4-1.5h-3.2l-3.2-.7-1.9 1.3-2.9 1.3-1.9 4.2-2.6 4.3-3.8 1.1 2.9 2.5.8 1.9 3.2 1.5.7 2.5 3.1 1.8 1.4-1.3 1.4.7-1.1 1.1 1 1 1.8 2.6 1.9-.5 4 1 7.5.3 2.3-1.6 5.8-1.4 4 2.2 3 .7.4-7.4 1.6.5 2.3-1.3-.4-1.6-2.4-1.1-2.2 1-2.4-1.1-1.3-2.8.2-2.7-.6-2.7-3.4-3.7-1.9-2.6-1.8-1.9z"/><path d="m1322.3 20.1-4.5-4-13.6-4.1-9.4-2.1-6.2.9-5.3 2.9 5.8.8 6.6 3.2 8 1.7 11.5 1.3 7.1-.6Zm-178.7-7.3.9-.6-5.7-.9-2.8.7-1.3 1-1.5-1.2-5.2.1-6.2.8 7.7.1-1.1 1.3 4.4 1 3.6-.7.1-.7 2.9-.3 4.2-.6Zm200.5 9.9-1.5-1.8-12.5-2.6-3-.3-2.2.5 1.2 6 18-1.8Zm15.2 6.3-9.2-.7 3.4-1.2-8.2-1.5-6.1 1.9-1 2 1.5 2.1-6.9-.1-5.3 2.6-4.3-1.1-9.3.5.3 1.3-9.2.7-4.9 2.4-4.2.2-1.2 3.3 5.5 2.6-7.7.7-9.5-.3-5.8 1.1 4.8 5.4 6.9 4.3-9.6-3-7.9.3-5.1 2 4.5 3.8-4.9-1-2.1-5-4.2-2.8-1.8.1 3.6 3.7-4.6 3.5 8.1 4.2.4 5.4 2.9 2.9 4.7.5.4 3.5 4.4 3.1-1.9 2.6.5 2.7-3.7 1.4-.5 2-5.3-.8 3.5-7.8-.5-3.6-6.7-3.3-3.8-7.3-3.7-3.7-3.6-1.6.8-4.2-2.9-2.9-11.3-1.4-2.1 1 .5 4.7-4.3 4.7 1.2 1.7 4.7 4.1.1 2.6 5.3.5.8 1.1 5.8 2.9-1 2.8-18.5-6.1-6.6-1.7-12.8-1.6-1.2 1.7 5.9 3.1-2.7 3.6-6.4-3.2-5 2.2-7.6.1-2.1 1.9-5.3-.6 2.5-3.3-3.2-.2-12.3 4.6-7.6 2.6.4 3.5-6 1.2-4-1.9-1.2-3 5-.7-3.6-3-12.2-1.8 4.3 3.4-.8 3.2 4.7 3.3-1.1 3.8-4.6-1.9-4-.3-8 5.4 4.2 4.1-3.2 1.4-11.4-3.5-2.1 2.1 3.3 2.4.2 2.7-3.8-1.4-6-1.7-1.9-5.8-1-2.6-8-4 2.9-.7 20.1 4.2 6.4-1.5 3.7-2.9-1.6-3.6-4-2.6-17.6-6.1-11.6-1.3-7.6-3.2-3.6 1.8-6.4 2.2-3.2.5.4 3.7 7.2 3.7-2.8 4.1 6.4 6.3-1.7 4.8 4.9 4.1-.9 3.7 7.3 3.9-.9 2.9-3.3 3.3-7.9 7.4 5.3 2.8-4.5 3.2.9 1-2.6 3.4 2.5 5.5-1.6 1.9 2.4 1.4 1 2.8 2.1 3.6 5.2 1.5 1 1.4 2.3-.7 4.8 1.4 1 2.9-.6 1.6 3.7 3.9 2.2 1.1-.1 1.1 3.4 1.1 1.7 1.6-1.6 1.3-3.9-.2-.8.6 1.5 2 2 3.9 1.8.2 1-1.4 1.5.3 4.8-.5 3.8 3.4-.9 1.3.7 1.9 4 .2 2.2 2.7.2 1.2 6.6 2.2 3.5-1 3.6 2.9 2.9-.1 7.6 2 .4 1.9-1.3 3.2 1.8 3.4-.3 2.1-4.7.5-2.2 1.7.4 2.8 4.2-1 .4 1.3-6.8 2.6 3.2 2.4-3.2 5.2-3.4 1 5 3.6 6.2 2.4 7.4 5.1.5-.7 4.5 1.1 7.7 1 7.5 2.9 1.1 1.2 2.9-1 5.1 1.3 2.1 2.5 3.5 1.4 1.5.2 4.3 3.8 2.4.4.5-1.5 2.6-2.5-7.3-7.3-.4-4.1-5.9-5.9 3.5-6.3 4.6-1.1 1.4-3.7-2.8-1-.2-3.2-4.2-4.1-3.6.2-5.3-4.3 1.7-4.7-1.7-1.2 2.1-6.8 6 3.6-.7-4.6 8.1-6.6 7.5-.2 11.9 4.3 6.6 2.4 4.3-2.5 7.6-.2 7.3 3.2.8-1.8 6.9.3.2-3-9.4-4.2 3.6-2.9-1.5-1.7 3.9-1.6-5-4.1 1.4-2.1 16.8-2.1 1.7-1.5 10.8-2.2 3.1-2.5 9 1.3 4.3 6.3 4.3-1.5 7 2.1 1.2 3.3 4.4-.4 9.1-5.7-.8 1.9 8.3 4.7 18.1 15.5 1.1-3.3 8.3 3.6 6.2-1.6 3.2 1.1 4.1 3.6 3.9 1.2 3.3 2.6 6-.9 4.3 3.8 1.7-.5 4.7-1 6.6-5.4 5.9-2.9 5.3 1.9 5.1.1 4.7 2.9 5 .2 7.9 1.6 2.4-4.3-4-3.6 1.3-6.4 6.9 2.5 4.8.8 6.6 1.5 3.7 4.6 8.4 2.6 3.9-1.1 5.7-.8 5.4.8 6.5 3 4.9 3.1h4.5l6.7 1 3.6-1.6 5.8-1 4.5-4.4 3.3.7 3.9 2.1 5.5-.5 7.3 2.3 4.4-3.9-1.9-2.7-.1-6.5 1.2-2-2.5-3.3-3.7-1.5 1.7-3 5.1-1.1 6.2-.2 8.5 1.8 5.9 2.3 7.7 6.1 3.8 2.7 4.4 3.7 6.1 6.1 9.9 1.9 8.9 4.5 6 5.8h7.5l2.6-2.5 6.9-1.8 1.3 5.6-.4 2.3 2.8 6.8.6 6-6.8-1.1-2.9 2.2 4.7 5.3 3.8 7.3-2.5.1 1.9 3.1 1.4 1.1-.4-2 4-4.5 5.1 3 3.2-.1 4.4-3.6 1-3.7 2.1-7.1 1.9-7.2-1.3-4.3 1-9-5.2-9.9-5.5-7.3-1.3-6.2-4.7-5.1-12.7-6.7-5.6-.4-.3 3-5.8-1.3-5.7-3.8-8-.7 4.9-14.1 3.5-11.5 13.1-1.8 14.9 1 2.5-2.8 7.9.8 4.3 4.3 6.4-.6 8.4-1.6-7.7-3.5v-9.8l9.1-1.9 12.1 7.1 3.6-6.4-3.2-4.7 4.7-.5 6.5 8.1-2.4 4.6-.8 6 .3 7.5-5.7 1.3 2.8 2.7-.1 3.6 6.4 8.3 16 13.4 10.5 8.8 5.7 4.3 1.6-5.7-4.5-6.2 5.7-1.5-5.4-6.9 5-3.1-4.7-2.6-3.4-5 4.1-.2-9-8.6-6.7-1.4-2.9-2.4-1.1-5.6-3.1-3.9 7 .8 1.3-2.5 4.7 2.2 6.1-4.6 11.4 4-1.7-2.6 2-3.6 1.5-4 3.1-.7 6.5-4.3 9.8 1.2-.9-1.5-3.8-2.3-4.1-1.6-9.1-4.6-8.1-3 6.1.4 2-2.5-32.9-21.9-9.4-2.3-15.7-2.6-7.9.3-15.2-1.4 1.8 2.3 8.5 3.4-2.5 1.8-14.2-4.8-6.8.6-9.2-1.1-7 .2-3.9 1.1-7.2-1.6-5.1-3.8-6.5-2.2-9.2-.9-14.7 1-16.1-4-7.8-3-40.1-3.4-2.1 2.2 9.3 4.8-7.5-.7-1 1.5-9.7-1.6-5 1.4-9.3-2.4 3 5.5-8.9-2.1-10-4.1-.4-2.2-6-3.3-9.8-2.6h-6.1l-9.3-.9 4.7 3.9-17.2-.8-3.9-2.3-13.3-.9-5.3.8-.1 1.3-5.8-3.2-2.3.9-7.2-1.2-5.6-.7 1.1-1.5 6.6-2.8 2.3-1.5-2.4-2.5-5.5-1.9-11.5-2.3-10.8-.1-1.9 1.2-4.1-2.4Zm-162.2 31.6-9.9-4.3-3.1-4.3 3.3-4.9 2.8-5 8.6-4.7 9.8-2.4 11.3-2.4 1.3-1.5-4.2-1.9-6.6.6-4.9 1.8-11.7.9-10.1 3.1-6.8 2.7 2.5 2.2-6.6 4.4 3.9.7-5.4 4.3 1.6 2.8-3.4 1.1 1.9 2.8 7.9 1.4 2.2 2.3 13.4.7 2.2-.4Zm314-24.7-17.9-2.6-10.2-.2-3.4.9 3.4 3.4 12.4 3.2 4.5-1.2 14.2.2-3-3.7Zm25.2 2.3-11.7-1.3-8.2-.7 1.7 1.6 10.3 2 6.8.4 1.1-2Zm-12.5 9.5-2.5-1.4-8.3-1.9-4.1.5-.8 2 1.1.2 8.8.6h5.8ZM1686.4 60l-6-3.6-1.4 2.2 3.5 1.6 3.9-.2ZM1074 153.9l-.6-1.5.2-1.7-2.2-.9-5-1.1-6.3 2-.7 2.6 5.9.7 8.7-.1Zm589.7 21.8-7.2-6.2-5.1-6-6.8-5.8-4.9-4-1.3.8 4.4 2.8-1.9 2.8 6.8 8.3 7.8 6 6.4 8.3 2.4 4.6 5.5 6.8 3.8 6 4.6 5.2-.1-4.8 6.5 3.8-3-4.4-9.5-6.3-3.7-9 8.9 2-13.6-10.9ZM1137.6 504.4l-3.3 1.9-1.4-.6-1.6 1.8-.2 3.8-.8.4-.6 3.5 3.5.5 1.7-3.6 3 .4 1.6-.8.4-3.7-2.3-3.6zM919.6 321.2h-.8l.1 3.4-3.4.2-1.8 1.5h-2.5l-1.9-.9-4.6.7-1.9 5-1.7.4-2.8 8.1-7.8 6.8-2 8.8-2.3 2.9-.7 2.3-12.4.5h-.1l-.3 2.7 1.2-2.2 21.6.1-.9-9.2 1.4-3.3 5.2-.5.2-16.3 17.9.3.2-9.7.1-1.2v-.4z" fill="#F2F2F2"/><path fill="#E02020" d="m1218.7 312-10.2-.5-16.7-12.7-8.5-4.5-6.7-1.7-.9 1-10.4 3.1 6.1 6.4-1.7 1-.7 2.2-4 .8-1.1 2.3-2.1 2-6.1-1-.5 2.5v2.2l-.6 3.5h2.7l3.2 4.4 3.7 5.1 2.5 4.7 1.7 1.5 1.7 3.3-.2 1.4 2.1 3.7 3 1.3 2.8 2.5 3.6 7v3.8l.9 4.4 4 6.1 2.5 1 4.1 4.4 1.9 5.2 3.2 5.3 3 2.3.6 2.5 1.8 1.9.9 2.8 2.3-2.1-.7-2.7 1.2-3.1 2.4 1.7 1.5-.6 6.4-.2 1 .7 5.4.6 2.1-.3 1.6 2.1 2.5-1 3.5-6.7 5-2.9 15.7-2.4 16.1-6.4 2.6-12.7-2.9-4.5-1 1.3-16.8-3.2-2.6-6.4-.4-1.5-1.2-2.4-1.5.4-1.8-1.2-1-1.6-.9-2.1-1.7-1.8-1-2.1.4-2.1-.6-2.7-4-2.6-1.2-2.3-2.9-1.4-2.7-5.5-3.8.2-1.7-3.1-4.9-.6zM1173.5 284.9l11-6.7.9-7.8-1.2-4.7 2.7-1.6 2.1-4.1-5.9 1.1-2.8-.2-5.7 2.5h-4.3l-3-1.2-5.5 1.8-1.9-1.3.1 3.6-1.2 1.5-1.2 1.4-1 2.6 1.1 5 2.4.3 1.2 2.5-2.6 2.4-.9 3.5.3 2.6-.6 1h.1l6.3 2.5 9.6-6.7z"/><path fill="#F2F2F2" d="m1170.8 393.5.4-4.2 1.6-2 4-1 2.6-3.6-3.1-2.4-2.2-1.6-2.5-7.6-1.1-6.5 1.1-1.2-2.1-6.2H1104.2l.5 12.7h-6.3v2.7l1.1 25.2-4.8-.4-2.4 4.7-1.4 3.9 1.2 1.5-1.8 1.9.7 2.7-1.4 2.6-.5 2.4 2-.4 1.2 2.5.1 3.7 2.1 1.8v1.6l.7 2.7 3.3 4v2.6l-.8 2.6.3 2 2 1.8.5.3 1.7-.7 1.9-1.2 1.3-5.7 1.5-2.9 4-.9 1 1.8 3 3.7 1.5.5 2-1.1 4.1.3.8 1.3h5.5l.2-1.3 2.9-1.2.5-1.9 2.1-1.3 4.8 3.7 2.8-.7 2.7-4.5 3-3.5-.6-3.9-1.4-1.8 3.4-.3.3-1.5 2.6.5-.5 4.7.8 4.6 2.9 2.5.7 2.2v3.1l.8.1v-.7l1.4-6.7 2.6-1.8.5-2.6 2.3-4.8 3.2-3.2 2.1-6.2.7-5.5-.7-2.5 1.9-9.4z"/><path fill="#F2F2F2" d="m1156 433.7-.7-2.2-2.9-2.5-.8-4.6.5-4.7-2.6-.5-.3 1.5-3.4.3 1.4 1.8.6 3.9-3 3.5-2.7 4.5-2.8.7-4.8-3.7-2.1 1.3-.5 1.9-2.9 1.2-.2 1.3h-5.5l-.8-1.3-4.1-.3-2 1.1-1.5-.5-3-3.7-1-1.8-4 .9-1.5 2.9-1.3 5.7-1.9 1.2-1.7.7 3.8 2.5 3.1 2.6.1 2 3.8 3.4 2.4 2.7 1.5 3.8 4.2 2.5.9 2.1 3.5 5.2 2.5.8 1.5-1.1 2.6.4 3.1-1.3 1.4 2.7 5 4.2 2.3-1.7 3.5 1.4 4.5-1.5 4 .1 3.4-3 3.4-3.8 3.8-4.2-3.5-6.9-2.6-1.5-1-2.5-2.9-3.1-3.4-.5 1.8-3.6 3-.1.8-2-.2-5-.8-.1v-3.1zM898.9 404.2l-3.6-4.4-3.2-4.7-3.7-1.7-2.6-1.8h-3.1l-2.8 1.4-2.7-.5-2 2-1.3 3.3-2.8 4.4-2.5 1.2 2.7 2.3 2.2 5 6.1-.2 1.3-1.5 1.8-.1 2.1 1.5 1.8.1 1.8-1.1 1.1 1.8-2.4 1.5-2.4-.1-2.4-1.4-2.1 1.5h-1l-1.4.9-5-.1.8 4.9 3-1.1 1.8.2 1.5-.7 10.3.3 2.7.1 4 1.5 1.3-.1.4-.7 3 .5.8-.4.3-2-.4-2.4-2.1-1.8-1.1-3.7-.2-3.9zM909.4 443.7l-1.5.3v-2.3l-.9-1.7.2-1.8-1.2-2.7-1.5-2.3H900l-1.3 1.2-1.5.2-1 1.4-.7 1.7-3 2.8.7 4.7.9 2.3 2.9 3.5 4.1 2.5 1.5.5 1.3-2 .3-1.9 2.6-3.4zM477.2 412l.6-2.5-.7-.7-1.1-.5-2.5.8-.1-.9-1.6-1-1.1-1.3-1.5-.5-1.4.4.2.7-1.1.7-2.1 1.6-.2 1 1.4 1.3 3.1.4 2.2 1.3 1.9.6 3.3.1.7-1.5zM1074.8 210.2l-3.2-1.5-.8-1.9-2.9-2.5-3.2-.2-3.7 1.6 1.5 2.4 1.7 1.8-1.7 2.3h1.8l-1 2.7 2.7 2.3-.5 2.9-1.2.3 1.5 1.1.8.8 1.8.7 2 1.2-.4.6 1.2-.5.5-2 .9-.4.8.9 1 .4.8 1 .8.3 1.1 1.1h.8l-.5 1.5-.5.7.2.5 1.7-.4 2.4-.1.7-.9-.6-.7.7-2 1.7-1.9-2.8-2.6-.7-2.3 1.1-1.4-1-1 1.1-1.1-1.4-.7-1.4 1.3-3.1-1.8-.7-2.5zM658 458.8l-4.6.5-.6 1.1-6.7-1.2-1 5.7-3.5 1.6.3 1.5-1.1 3.3 2.4 4.6 1.8.1.7 3.5 3.3 5.6 3.1.5.5-1.3-.9-1.3.5-1.8 2.3.6 2.7-.7 3.2 1.4 1.4-2.7.6-2.9 1-2.8-2.1-3.7-.4-4.4 3.1-5.5-6-1.7zM1077.4 185.9l-4.9-2.3-3.4.8-2.4-.6-2.8 1.3-2.7-2.2-1.9.9-.3-.4h-1.5l-.6 1.1-1.1.3-.2 1.4-.9.3-.1.6-1.6.6-2.2-.1-.6 1.4-.3.8.7 2.1 2.6 1.6 1.9.7 4.1-.8.3-1.2 1.9-.2 2.3-1 .6.4 2.2-.7 1-1.5 1.6-.4 5.5 1.9 1-.6.7-2.5 1.1-1.7zM1049.4 202l-1.2-2.1-.8-.1-.9 1.1-4.3.1-2.4 1.4-4.2-.4-.3 3 1.4 2.7-1.1.5 3.5.2.8-1 1.8 1 2 .1-.2-1.7 1.7-.6.3-2.5zM1067.7 86.1l-1.9-2.2-1.7-8.4-7.2-3.7-5.9-2.7-2.5.3v3.5l-7.9-.9-.6 3.1-4-.1-2.2 3.9-3.4 6.1-5.7 7.9 1.8 1.9-1.3 2.2-4.3-.1-2.3 5.3 1 7.6 3.1 2.9-.9 6.9-3.4 4-1.7 3.3 4.2 8.4 4.4 6.7 2 5.7 5.3-.3 2.2-4.7 5.7.5 2-5.5.6-10 4.6-1.3 3.3-6.6-4.8-3.3-3.6-4 2.1-8.1 7.7-4.9 6.1-4.5-1.2-3.5 3.4-3.9 7-1.5zM1140.5 661.6l-2.7-1.2-1.6.5-.7 1.8-1.6 2.4-.1 2.2 3 3.5 3.3-.7 1.3-2.8-.3-2.8-.6-2.9zM1098.4 372.6l-22.4-12.2-22.3-12.2-5.4 3.5 1.6 9.9 2 1.6.2 2.1 2.3 2.2-1.1 2.7-1.8 12.9-.2 8.3-6.9 6-2.3 8.4 2.4 2.3v4.1l3.6.2-.5 2.9 2.2 4.1.5 4.2-.2 4.3 3.1 5.8-3.1-.1-1.6.4-2.5-.6-1.2 3 3.3 3.7 2.5 1.1.8 2.6 1.8 4.4-.9 1.7 4.7-.4 1-1.7.9.2 1.4 1.4 7.1-2.4 2.3-2.5 2.9-2.2-.6-2.3 1.6-.6 5.4.4 5.2-2.9 4-7 2.8-2.5 3.5-1.1v-1.6l-2.1-1.8-.1-3.7-1.2-2.5-2 .4.5-2.4 1.4-2.6-.7-2.7 1.8-1.9-1.2-1.5 1.4-3.9 2.4-4.7 4.8.4-1.1-25.2zM971.7 427.2l-4.9-.1-.4 1.9 2.4 3.3-.1 4.6.6 5.1 1.4 2.3-1.2 5.7.4 3.2 1.5 4 1.2 2.2 4.6-1.3-1.4-4.4.2-14.6-1.1-1.3-.2-3.1-2-2.3-1.7-1.9.7-3.3zM1552.7 406.4l1.5-2.9-.5-5.4-5.2-5.5-1.3-6.3-4.9-5.2-4.3-.4-.8 2.2-3.2.2-1.8-1.2-5.3 3.8-1-5.7.4-6.7-3.8-.3-.9-3.8-2.6-1.9-3 1.4-2.8 2.8-3.9.3-1.5 6.9-2.2 1.1 3.5 5.6 4.1 4.6 2.9 4.2-1.4 5.6-1.7 1.1 1.7 3.2 4.2 5.1 1 3.5.2 3 2.8 5.8-2.6 5.9-2.2 6.6-1.3 6.1-.3 3.9 1.2 3.6.7-3.8 2.9 3.1 3.2 3.5 1.1 3.2 2.4 2.4.9-1.1 4.7 2.8.6 3.3 3.7-.8 1.7-2.6-3.1-3.3-3.4-.8-3.3-3.6-1.4-5.5-2.6-5.8-3.7-.2-.7-4.6 1.4-5.6 2.2-9.3-.2-7 4.9-.1-.3 5 4.7-.1 5.3 2.9-2.1-7.7 3-5.2 7.1-1.3 5.3 1zM1334.1 240.7l-2.1.2-1.3-1.8.2-2.9-6.4 1.5-.5 4-1.5 3.5-4.4-.3-.6 2.8 4.2 1.6 2.4 4.7-1.3 6.6 1.8.8 3.3-2.1 2.1 1.3.9-3 3.2.1.6-.9-.2-2.6 1.7-2.3 3.2 1.5v2l1.6.3 1 5.4 2.6 2.1 1.5-1.3 2.1-.7 2.5-2.9 3.8.5h5.4l-1.8-3.7-.6-2.5-3.5-1.4-1.6.6-3-5.9-9.5.9-7.1-2-5.4.5-.6-3.7 5.9 1.1 1.4-2zM1315.6 259.2l-.8-4-7.7-2.7-6.2-3.2-4.2-3-7-4.4-4.3-6.4-2-1.2-5.5.3-2.3-1.3-1.9-4.9-7.8-3.3-3.3 3.6-3.8 2.2 1.6 3.1-5.8.1-2.5.3-4.9-4.9-3.8-1.7-5.5 1.3-1.8 2 2.5 4-.5-4.5 3.7-1.6 2.4 3.6 4.6 3.7-4 2-5.3-1.5.1 5.2 3.5.4-.4 4.4 4.5 2.1.7 6.8 1.8 4.5 4.4-1.2 3-3.7 3.5.2 2.1-1.2 3.8.6 6.5 3.3 4.3.7 7.3 5.7 3.9.2 1.6 5.5 5.9 2.4 3.9-.8.4-3 4-.9 2.5-2-.1-5.2 4.1-1.2.3-2.3 2.9 1.7 1.6.2zM1666.8 556.9l4.9-1.8 6-2.8 2.2-1.7-2-.8-1.8.8-4 .2-4.9 1.4-.8 1.5.5 1.3-.1 1.9zM1028 286.4l-2-1-1.5-3-2.8-.1-1.1-3.5 3.4-3.2.5-5.6-1.9-1.6-.1-3 2.5-3.2-.4-1.3-4.4 2.4.1-3.3-3.7-.7-5.6 2.6-1 3.3 1 6.2-1.1 5.3-3.2 3.6.6 4.8 4.5 3.8v1.5l3.4 2.6 2.6 11.3 2.6-1.4.4-2.7-.7-2.6 3.7-2.5 1.5-2 2.6-1.8.1-4.9z"/><path d="m1156.6 233.9-9.7-4.4-8.5.2-5.7 1.7-5.6 4-9.9-.8-1.6 4.8-7.9.2-5.1 6.1 3.6 3-2 5 4.2 3.6 3.7 6.4 5.8-.1 5.4 3.5 3.6-.8.9-2.7 5.7.2 4.6 3.5 8-.7 3.1-3.7 4.6 1.5 3.2-.6-1.7 2.4 2.3 3 1.2-1.4 1.2-1.5-.1-3.6 1.9 1.3 5.5-1.8 3 1.2h4.3l5.7-2.5 2.8.2 5.9-1.1 2.1-1 6.2.9 2.1 1.6 2.3-1.1-3.7-5.2.7-2-2.9-7.3 3.3-1.8-2.4-1.9-4.2-1.5v-3.1l-1.3-2.2-5.6-3-5.4.3-5.5 3.2-4.5-.6-5.8 1-7.8-2.4Zm-49.6 4 2-1.9 6.1-.4.7-1.5-4.7-2-.9-2.4-4.5-.8-5 2 2.7 1.6-1.2 3.9-1.1.7.1 1.3 1.9 2.9 3.9-3.4Z" fill="#E02020"/><path fill="#F2F2F2" d="m1632.3 352.2 1.2-10.2.1-3.9-2.9-1.9-3.3 4.8-1.9 6.3 1.5 4.7 4 5.4 1.3-5.2zM1139.6 503.6l-2 .8 2.3 3.6-.4 3.7-1.6.8.3 2.5 1.2 1.5v2l-1.4 1.4-2.2 3.3-2.1 2.3-.6.1-.3 2.7 1.1.9-.2 2.7 1 2.6-1.3 2.4 4.5 4.3.3 3.9 2.7 6.5.3.2 2.2 1.1 3.5 1.1 3.2 1.9 5.4 1.2 1.1 1.7.4-1.2 2.8 3.4.3 6.7 1.8 2.4v.1l2.1-.3 6.7 1.8 1.4-.8 3.9-.1 2.1-1.9 3.3.1 6.2-2.5 4.6-3.7-2-1.4-2.2-6.3-1.8-3.9.4-3.1-.3-1.9 1.7-3.9-.2-1.6-3.5-2.3-.3-3.6 2.8-7.9-8-6.3-.4-3.7-20.2-13-2.8 2.8-1.9 2.9 2.2 2.2-3.2 1.6-.7-.8-3.2.4-2.5 1.4-1.6-2.4 1.1-4.5.2-3.8-6.2-.1z"/><path fill="#F2F2F2" d="m1157.6 470.1-3.4 3-4-.1-4.5 1.5-3.5-1.4-2.3 1.7-.3 7.5 2.3.8-1.8 2.3-2.2 1.7-2.1 3.3-1.2 3-.3 5.1-1.3 2.4-.1 4.8 1.4.6 3.3-1.9 2-.8 6.2.1-.3-2.5 2.6-3.7 3.5-.9 2.4-1.5 2.9 1.2.3.5v-.3l1.6-2.6 2.7-4.2 2.1-4.7-2.6-7.3-.7-3.2-2.7-4.4zM1128.5 166l-4.8.5-1.5-.3-1 1.4-1.8-.2-4.1.3-1.2 1.4.2 3.1-2-.6-4.3.3-1.5-1.5-1.6 1.1-2-.9-3.8-.1-5.6-1.5-5-.5-3.7.2-2.4 1.6-2.2.3 3.1 5.3-.3 1.8-2.3.7-3.8 5.1 1.6 2.8-1.1-.4-1.1 1.7-.7 2.5 2.9 1.7.6 1.6 1.9-1.3 3.2.7h3.2l2.4 1.5 1.6-.9 3.6-.6 1-1.5h2.1l1.1-.9 3.2-.6 3.9 1.9 2 .3 2.5 1.6v2.1l1.9 1.1 1.1 2.6 2 1.5-.2 1 1 .6-1.2.5-3-.2-.6-.9-1 .5.5 1.1-1.1 2-.5 2.1-1.2.7 2.4 1.1 2.2-1 2.4 1.1 3.3-4.6 1.3-3.4 4.5-.8.7 2.4 8 1.5 1.7 1.4-4.5 2.1-.7 1.2 5.8 1.8-.6 2.9 3 1.3 6.3-3.6 5.3-1.1.6-2.2-5.1.4-2.7-1.5-1-3.9 3.9-2.3 4.6-.3 3-2 3.9-.5-.4-2.8 2.2-1.7 4.7-.5.3-2.1-1.8-3.4 1.3-3.2-.4-1.9-7.6-2-2.9.1-3.6-2.9-3.5 1-6.6-2.2-.2-1.2-2.2-2.7-4-.2-.7-1.9.9-1.3-3.8-3.4zM682.5 712l-2.1-3.7 1.9-3-3.8-4.3-4.8-3.5-6.2-4.1-1.9.2-6.2-4.9-3.4.7-.5 5.1-.3 6.5 1.1 6.3-.9 1.4.4 4.2 3.9 3.5 3.6-.2 5.4 2.7 2.7-.6 4.2 1.2 5.3-3.5 1.6-4zM106.7 375.7l2-.9 2.5-1.4.2-.4-.9-2.2-.7-.8-.8-.6-1.9-1.1-.4-.1-.4.6v1.3l-1.2 1-.4.7.4 2.3-.6 1.8 1.2.9 1-1.1Zm-.6-9.9.6-.7-1.2-1-1.8-.6-.7.5v.4l.5.5.6 1.4 2-.5Zm-3-3.4-2.6-.2-.6.7 2.9.2.3-.7Zm-4.7-.9-1.1-2.1-.3-.4-1.7.9.1.2.4 1.5 1.8.2.4.1.4-.4Zm-8.3-4.2.3-1.5-1.3-.1-1 .6-.4.5 1.6 1.1.8-.6Zm412.1-173.2h-1.6l-1.3 2.4H363.4l-1.6 5.1-2.4 5.1-2.3 1.6 1.1-5.9-5.8-2.1-1.4 1.2-.4 2.9-1.8 5.4-4.2 8.3-4 5.6-4 5.6-5.4 5.8-1.1 4.7-2.8 5.3-3.9 5.2 1 3.4-1.9 5.2 1.5 5.4 1.3 2.2-.8 1.5.4 9 2.5 6.5-.8 3.5 1 1 4.6.7 1.3 1.7 2.8.3-.1 1.9 2.2.7 2.1 3.7-.3 3.2 6.3-.5 7-.7-1 1.3 7.1 3.1 10.7 4.4h15l.8-2.6h9.3l1.3 2.2 2.1 2 2.4 2.8.8 3.3.4 3.5 2.2 1.9 4 1.9 4.8-5 4.4-.1 3.1 2.5 1.6 4.4 1 3.7 2.4 3.6.2 4.5.8 3 3.9 2 3.6 1.4 2.1-.2-.6-2.2.4-3.1 1-4.4 1.9-2.8 3.7-3.1 6-2.7 6.1-4.7 4.9-1.5 3.5-.4 3.5 1.4 4.9-.8 3.3 3.4 3.8.2 2.4-1.2 1.7.9 1.3-.8-.9-1.3.7-2.5-.5-1.7 2.4-1 4.2-.4 4.7.7 6.2-.8 3 1.5 2 3 .9.3 6.1-2.9 1.9 1 3 5.3.8 3.5-2 4.2.4 2.5 1.6 4.9 2 5.5 1.8 1.4.4 2.8 2.6.8 1.7-.8 2-3.9.7-2.5.9-4.3-1.2-7.4.5-2.7-1.5-4.5-.7-5.4.1-4.4 1.8-4.5 3.5-3.8 3.7-3 6.9-4.1 1.3-2.2 3.3-2.3 2.8-.4 4.4-3.8 6-1.9 4.6-4.8.9-6.5.1-2.2-1.4-.4 1.5-6.2-3-2.1 3.2 1v-4.1l1.9-2.7-1 5.3 2 2.5-2.9 4.4.4.2 4.4-5.1 2.4-2.5.6-2.5-.9-1.1-.1-3.5 1.2 1.6 1.1.4-.1 1.6 5.2-4.9 2.5-4.5-1.4-.3 2.1-1.8-.4.8h3.3l7.8-1.9-1.1-1.2-7.9 1.2 4.8-1.8 3.1-.3 2.4-.3 4.1-1.1 2.4.1 3.8-1 1-1.7-1.1-1.4-.2 2.2-2.1-.1-.6-3.3 1.1-3.3 1.4-1.3 3.9-3.7 5.9-1.8 6-2.1 6.3-3-.2-2-2.1-3.5 2.8-8.5-1.5-1.8-3.7 1.1-1.1-1.7-5.5 4.7-3.2 4.9-2.7 2.8-2.5.9-1.7.3-1 1.6h-17l-2.7 1.2-6.7 4.2.2.9-.6 2.4-4.6 2-3.9-.5-4-.2-2.6.7-.3 1.8-.1.6-5.8 3.7-4.5 1.8-2.9.8-3.7 1.7-4 .9-2.5-.3-2.7-1.3 2.7-2.4 2-2.2 3.7-3.4.7-2.5.5-3.5-1.6-.7-4.3 2.8-.9-.1.3-1.5 3.8-2.5 1.6-2.8.7-2.8-2.7-2.4-3.7-1.3-1.7 2.4-1.4.6-2.2 3.1.4-2.1-2.6 1.5-2.1 2-2.6 3.1-1.3 2.6.1 3.8-1.8 4-3.3 3-1.4.9-1.6.7h-1.8l-.3-.4-.1-3.3.7-1.6.7-1.5.6-3 2.5-3.5 2.9-4.3 4.6-4.7h-.7l-5.4 4-.4-.7 2.9-2.3 4.7-4 3.7-.5 4.4-1.3 3.7.7h.1l4.7-.5-1.5-2.5-1.2-.2-1.4-.3-.4-1.7-5.1.5-5 1.4-2.5-2.3-2.5-.8 3.1-3.3-5.3 2-4.9 2.1-4.6 1.5-2.1-2.1-5.5 1.3.4-.9 4.6-2.6 4.7-2.5 5.9-2.1-5.3-1.6-4.4.8-3.8-1.9-4.6-1-3.2-.4-1-1 .8-3.4Zm-240.6-46.9 6.9-2.8v-1.8l-2.6-.4-3.4.9-6.4 2.1-2.2 2.7.7 1.6 7-2.3Zm-38.7-16.4 2.3-2.3-2.9-.5-5.7 1 .8 1.6 1.6 1.1 3.9-.9Zm1.2-22.3-3.1 2.2.4.5 4.2-.4.3 1.1 1.7 1.2 4.9-1.2 1.2-.6-3.3-.8-1.6-1.5-3.4.6-1.3-1.1ZM349 58.3l-4.4-1.1-10.2 2.8-3.2-.3-11 2.3-4.8.6-7.8 2.5-4.8 2.6-8.6 2.5-7.6.1-6.3 2.9 3.2 1.7.7 2.3-.8 2.7 2.3 2.1-1.2 3.5-9.2.2 4.3-2.8h-3.4l-13.1 2.7-9.1 2.3 1 3.3-1.2 2.2 4.5 1.4 6.9-.7 1.8 1.3 2.9-1.3 6.1-1.2h2.7l-5.9 2.1 1.1 1-2.5 2.6-5.5 1.8-2.5-.5-7 2.7-1.8-.9-4.1.4-5.3 3-7.6 3.1-5.8 3.4.3 2.4-4 3.3 1.4 1.4.5 2.7 7.2-1.1.4 2.1-3.3 2.1-3.6 3.5h2.8l7.2-2.3-1.6 2.9 3.6-2.1-.4 3 4.8-2.2.4 1.1 7.2-1.8-6.2 3.4-5.7 4.5-5.7 2.1-2.3 1.2-10.3 3.6-4.9 2.4-6.5.7-8.5 3.3-6.6 1.8-8.1 2.8-.4 1 10-1.7 6-2 6.9-2 6.1-1.7 2.8.5 8.1-2.6 4.5-2.8 10.5-3.1 3.9-2.6 6.6-1.8 7.6-2.5 8.9-4.2-.2-2.9 11.1-4.1 7.4-3.9 9.2-3.2-.4 1.4-6.7 1.8-8.3 5.7-3.2 3.5 6.4-1.3 6.1-1.9 6.5-1.3 2.9-.3 3.5-4.1 6.3-1.2 2.6 2.5 6 2.7 6.7-.5 5.7 2 3.2 1.1 3.3 6.1 3.7 1.7 7.1.2 4.1.4-2.7 5.5 1.6 4.9-3.3 5.2 2.5 1.9.6 2.2 5.1-2.9 3.1-3.7-4.6-3.8 1.5-6.8 1.1-4.2-1.7-2.7-.7-2.4.5-3-6.4 1.9-7.6 3.3-.2-3.9-.6-2.6-2.7-1.6-4.2-.1 35.4-32.4 24.3-20.2-3.5-.7-4.1-1.6-6.5.8-2.2-.7-7.1-.5-6.2-1.6-4.8.5-4.9-.9 2-1.2-6.3-.3-3.3 1 .5-2.4ZM1329.8 228.1l-2.5 1.2-5.4 4.3-.9 4.5h-1.9l-2.3-3-6.6-.2-2.6-5-2.5-.1-1.5-6.2-7.5-4.5-8.6.5-5.7.9-6.5-5.5-4.8-2.3-9.1-4.5-1.1-.5-11.9 3.6 6.2 22.8 5.8-.1-1.6-3.1 3.8-2.2 3.3-3.6 7.8 3.3 1.9 4.9 2.3 1.3 5.5-.3 2 1.2 4.3 6.4 7 4.4 4.2 3 6.2 3.2 7.7 2.7.8 4h2.9l4.3 1.4 1.3-6.6-2.4-4.7-4.2-1.6.6-2.8 4.4.3 1.5-3.5.5-4 6.4-1.5-.2 2.9 1.3 1.8 2.1-.2 4.1.6 5.2-4.5-7.1-3.3-3.2 1.6-4.6-2.3 3.1-4.1-1.8-.6zM632 443.9l-2.2-1.5-2.9.2-.7-5.1-4.1-3.2-4.4-.4-1.8-3 4.8-1.9-6.7.1-6.9.4-.2 1.6-3.2 1.9-4.2-.7-3.1-2.9-6 .7-5-.1-.1-2.1-3.5-3.5-3.9-.1-1.7-4.5-2.1 2 .6 3-7.1 2.6v4.8l1.6 2.2-1.5 4.6-2.4.4-1.9-5 2.7-3.7.3-3.3-1.7-2.9 3.3-.8.3-1.5-3.7 1.1-1.6 3.2-2.2 1.8-1.8 2.4-.9 4.5-1.8 3.7 2.9.5.6 2.9 1.1 1.4.4 2.5-.8 2.4.2 1.3 1.3.6 1.3 2.2 7.2-.6 3.2.8 3.8 5.5 2.3-.7 4 .3 3.2-.7 2 1.1-1.2 3.4-1.3 2.1-.5 4.6 1 4.2 1.5 1.9.2 1.5-2.9 3.1 2 1.4 1.4 2.2 1.7 6.4 3 3.4 4.4-.5 1.1-1.9 4.2-1.5 2.3-1 .7-2.7 4.1-1.8-.3-1.4-4.8-.5-.7-4 .3-4.3-2.4-1.6 1-.6 4.2.8 4.4 1.6 1.7-1.5 4-1 6.4-2.4 2.1-2.4-.7-1.8-3.7-4.8 1.6-1.8v-2.9l3.4-1.1 1.5-1.2-1.9-2.3.6-2.3 4.6-3.8zM1561.6 360l-5.9-1.6-3-2.6.2-3.7-5.2-1.1-3-2.4-4.1 3.4-5.3.7h-4.3l-2.7 1.5 4 5.1 3.4 5.7 6.8.1 3 5.5-3.3 1.7-1.3 2.3 7.3 3.8 5.7 7.5 4.3 5.6 4.8 4.4 2 4.5-.2 6.4 1.8 4.2.1 7.7-8.9 4.9 2.8 3.8-5.8.5-4.7 2.5 4.5 3.7-1.3 4.3 2.3 4 6.6-5.9 4.1-5.3 6.1-4.1 4.3-4.2-.4-11.2-4-11.7-4.1-5.1-5.6-4-6.4-8.3-5.3-6.7.5-4.4 3.7-6 6.5-5.5zM1898.6 601.9l-2.7-3.6-.6 1.7 1.3 2.8 2-.9Zm-2-9.7-2.3-2-.9 4.9.5 1.8 1.2-.4 1.3.8.2-5.1Z"/><path fill="#E02020" d="m1261.5 391.2-2.1-4.4-5.2-10.5-15.7 2.4-5 2.9-3.5 6.7-2.5 1-1.6-2.1-2.1.3-5.4-.6-1-.7-6.4.2-1.5.6-2.4-1.7-1.2 3.1.7 2.7-2.3 2.1.4 2.7-.6 1.3.7 2.9-1.1.3 1.7 2.6 1.3 4.7 1 1.9v3.4l1.6 3.8 3.9.3 1.8-.9 2.7.2.8-1.7 1.5-.4 1.1-1.7 1.4-.4 4.7-.3 3.5-1.2 3.1-2.7 1.7.4 2.4-.3 4.7-4.5 8.8-3 5.3-2.7v-2.1l.9-2.9 3.9-1.7z"/><path d="m1138.2 638.7-2.9-.6-1.9.8-2.6-1.1-2.2-.1-8 4.7-5.2 4.7-2 4.3-1.7 2.4-3 .5-1.2 3-.6 2-3.6 1.5-4.4-.3-2.5-1.8-2.3-.8-2.7 1.5-1.5 3.1-2.7 1.9-2.8 2.8-4 .7-1.1-2.3.7-3.8-3-6.1-1.4-1-1.1 23.6-5 3.2-2.9.5-3.3-1.2-2.4-.5-.8-2.7-2.1-1.8-2.7 3.2 3.5 8.2v.1l2.5 5.3 3.2 6-.2 4.8-1.7 1.2 1.4 4.2-.2 3.8.6 1.7.3-.9 2.1 2.9 1.8.1 2.1 2.3 2.4-.2 3.5-2.4 4.6-1 5.6-2.5 2.2.3 3.3-.8 5.7 1.2 2.7-1.2 3.2 1 .8-1.8 2.7-.3 5.8-2.5 4.3-2.9 4.1-3.8 6.7-6.5 3.4-4.6 1.8-3.2 2.5-3.3 1.2-.9 3.9-3.2 1.6-2.9 1.1-5.2 1.7-4.7h-4.1l-1.3 2.8-3.3.7-3-3.5.1-2.2 1.6-2.4.7-1.8 1.6-.5 2.7 1.2-.4-2.3 1.4-7.1-1.1-4.5-2.2-9Zm-20.1 52.8-2 .6-3.7-4.9 3.2-4 3.1-2.5 2.6-1.3 2.3 2 1.7 1.9-1.9 3.1-1.1 2.1-3.1 1-1.1 2ZM1139.2 551.7l-1.9-.5.4-1.3-1-.3-7.5 1.1-1.6.7-1.6 4.1 1.2 2.8-1.2 7.5-.8 6.4 1.4 1.1 3.9 2.5 1.5-1.2.3 6.9h-4.3l-2.1-3.5-2-2.8-4.3-.8-1.2-3.4-3.4 2-4.5-.9-1.8-2.8-3.5-.6-2.6.1-.3-2-1.9-.1.5 2-.7 3 .9 3-.9 2.4.5 2.2-11.6-.1-.8 20.3 3.6 5.2 3.5 4 4.6-1.5 3.6.4 2.1 1.4v.5l1 .5 6.2.7 1.7.7 1.9-.1 3.2-4.1 5.1-5.3 2-.5.7-2.2 3.3-2.5 4.2-.9-.3-4.5 17.1-5.2-2.9-1.7 1.9-5.9 1.8-2.2-.9-5.3 1.2-5.1 1-1.8-1.2-5.4-2.6-2.8-3.2-1.9-3.5-1.1-2.2-1.1-.3-.2.5 1.1-1 .4-1.2-1.4z" fill="#F2F2F2"/><path fill="#F2F2F2" d="m1138.2 638.7 6.2-7.2 1.6-4.6.9-.6.8-3.7-.8-1.9.5-4.7 1.3-4.4.3-8.1-2.8-2-2.6-.5-1.1-1.6-2.6-1.3-4.6.1-.3-2.4-4.2.9-3.3 2.5-.7 2.2-2 .5-5.1 5.3-3.2 4.1-1.9.1-1.7-.7-6.2-.7 1.9 5.1 1.1 1.1 1.6 3.7 6 7 2.3.7-.1 2.2 1.5 4.1 4.2.9 3.4 2.9 2.2.1 2.6 1.1 1.9-.8 2.9.6zM1213.4 430.7l-2.6-2.7-1.2-2.6-1.8-1.2-2 3.4-1.1 2.3 2.2 3.5 2.1 3.1 2.2 2.2 18.5 7.6 4.8-.1-15.4 19.1-7.4.3-4.9 4.5-3.6.1-1.5 2-4.8 7.2.2 23.2 3.3 5.3 1.3-1.5 1.3-3.4 6.1-7.7 5.3-4.8 8.3-6.4 5.6-5.1 6.4-8.7 4.7-7.1 4.6-9.3 3.2-8.2 2.5-7.1 1.3-6.8 1.1-2.3-.2-3.4.4-3.7-.2-1.7h-2.1l-2.6 2.2-2.9.6-2.5.9-1.8.2-3.2.2-1.9 1.1-2.8.5-4.8 1.9-6.1.8-5.2 1.6h-2.8zM671.4 481.2l1.8-4.7 3.5-5.8-.9-2.6-5.8-5.4-4.1-1.5-1.9-.7-3.1 5.5.4 4.4 2.1 3.7-1 2.7-.6 2.9-1.4 2.8 2.4 1.3 1.8-1.8 1.2.3.8 1.8 2.7-.5 2.1-2.4z"/><path d="m1015.7 228.8-1.1-5.2-3.2 2.3-1 2.3 1.4 4.2 2.4 1.2 1.5-4.8Zm-31.5-50.9-2.4-2.4-2.2-.1-.7-2.2-4.3 1.2-1.4 5.1-11.3 4.8-4.6-2.6 1.4 7-8.2-1.6-6.4 1.3.4 4.6 7.5 2.4 3.6 3.1 5.1 6.5-1 12.3-2.7 3.7 2 2.4 9.4 2.8 1.9-1.3 5.7 2.8 6-.8.5-3.7 7.4-2 10 1.6 4.5-3.4.5-2.7-2.7-.8-1.5-4.8 1.7-1.8-1.6-2.4.2-1.7-1.8-2.7-2.4.9v-2.8l3.5-3.5-.2-1.6 2.3.6 1.3-1 .5-4.5 2.3-4.2-7.1-1.2-2.4-1.6-1.4.1-1.1-.5-4.4-2.8-2.5.4-3.4-2.9Z" fill="#E02020"/><path fill="#E02020" d="m1015.7 228.8-1.1-5.2-3.2 2.3-1 2.3 1.4 4.2 2.4 1.2zM975 250.7v-.2h-.5l-.3-.4-.1.2-.1.2v.2h.5l.4.1.1-.1Zm-.8-1.6h.3l.6-.7v-.3l-.3-.2-1.1.2-.2.3v.3l-.3.1-.1.4.1.2.8.1.2-.4ZM957 221l-8.2-.2-4.2.3-5.4-1h-6.8l-6.2-1.1-7.4 4.5 2 2.6-.4 4.4 1.9-1.6 2.1-.9 1.2 3.1h3l.9-.8 3 .2 1.3 3.1-2.4 1.7-.2 4.9-.9.9-.3 3-2.2.5 2 3.8-1.6 4.3 1.8 1.9-.8 1.7-2 2.5.4 2.1 4.8 1 1.4 3.7 2 2.2 2.5.6 2.1-2.5 3.3-2.3 5 .1h6.7l3.8-5 3.9-1.3 1.2-4.2 3-2.9-2-3.7 2-5.1 3.1-3.5.5-2.1 6.6-1.3 4.8-4.2-.3-3.5-6 .8-5.7-2.8-1.9 1.3-9.4-2.8-2-2.4Zm26 22.6.1-.3.1-.2.1-.1-.2-.2v-.1l.2-.2-.2-.1-1.3.4-.7.4-2.1 1.5v.3l.1.2h.4l.2.4.4-.4.3-.1.3.1.3.2.1.6.1.2.6.1.9.4.4-.2.5-.3.2-.6.3-.5.3-.5.3-.4-.1-.4-.3-.1-.3-.1-.5.2-.5-.2Zm6-.3.1-.4v-.1l-.5-.7-.9-.3-1 .1-.1.1v.4l.1.1.6.1 1.6.7h.1Z"/><path fill="#F2F2F2" d="m576.6 417.9-.1-.1-.3-.6-.3-.3-.1.1-.1.3.3.3.3.4.3.1v-.2zM617.9 381.2l.1-.2-.2-.1-.8.5v.1zM975.4 226.7l.1-.2.1-.2v-.1l-.2-.1-.7-.2-.3-.1-.2.1-.2.2-.1.3.1.1v.4l.1.2h.4l.3-.1.5-.3h.1zM624.3 388.8l.2-.1V388.4l-.1-.1-.1-.2-.4-.2-.5.5v.2l.1.3.6.1.2-.2Zm.2-3.5v-.5l-.1-.2h-.3l-.1-.1h-.1l-.1.1.1.6.5.3.1-.2ZM564.4 362.3l.2-.6-.3-.1-.5.7-.6.3h-.3l-.7-.3h-.5l-.4.5-.6.1.1.1v.2l-.2.3v.2l.1.3 1.5-.1 1.3-.2.7-.9.2-.5Zm.8-2-.4-.3-.4.3.1.3.7-.3Zm0-5.8-.4-.2-.3.5.3.1.7-.1.5.1.5.4.3-.2-.1-.1-.4-.3-.6-.1h-.2l-.3-.1Zm-6.6 1.3.7-.6.7-.3.9-1.1-.1-.9.2-.4-.6.1-.1.3-.1.3.3.4v.2l-.2.4-.3.1-.1.2-.3.1-.4.5-.8.6-.2.3.4-.2Zm1.2-3.2-.6-.2-.2-.4-.4-.1-.1.2v.2l.1.4.2-.1.8.4.4-.3-.2-.1Zm-4.1-1.1v-.7l-.4-.5-.6-.4-.1-1.2-.3-.7-.2-.6-.4-.8v.5l.1.1.1.6.4.9.1.4-.1.4-.4.1-.1.2.5.3.8.3.5 1.3.1-.2Zm-4.1-3.5-.5-.3-.2-.3-.7-.7-.3-.1-.2.4.4.1.9.7.4.2h.2Zm7.3-4-.1-.3h-.1l-.3.1-.3.9h.3l.5-.7Zm-17.6-1.1-.2-.3-.3.2h-.5l-.2.1h-.4l-.3.2.4.8.3.3.1 1 .2.1-.1.7 1.1.1.4-.8V343.6l-.3-.5-.4.6-.4-.3.6-.4v-.1Zm12.9.3-1-1.4v-.2l-.5-1.5-.3-.1-.1.1-.1.2.4.4v.4l.3.2.4 1.1.4.4-.1.3-.4.3-.1.2h.1l.6-.1h.4v-.3Zm-10.5-5.2.5-.2-.3-.2h-.7l-.4.1-.2.2.1.1.4.1.6-.1Zm-2.4 2-.5-.6-.3-.9-.2-.4.1-.5-.3-.4-.6-.4-.3.1.1 1.1-.2.6-.8 1.1.1.4.1.2-.5.4v-.3l-.6.1.3.5.6.4.3.1.3-.2v.5l.3.4.1.4.3-.3.6-.2.2-.2.7-.4v-.2l.1-.6.1-.7Zm6.7-5-.3-.5-.1.1-.1.4-.3.4.5-.1.4.1.6.5.7.2.3.6.6.6v.6l-.4.6-.1.7-.6.1.1.1.3.3.1.4.2.2v-.7l.3-.8.4-1.3-.1-.3-.3-.3-.7-.9-.7-.3-.8-.7Zm-8.8-7.9-.5-.4-.2.4v.1l-.1.3-.5.4-.5.1-.7-.6-.2-.1.8 1.1.3.1h.4l.9-.3 1.6-.5 1.7-.2.1-.2-.1-.3-.8.2-1-.1-.2.2h-.4l-.6-.2Zm6.1 5.2.2-.3.4-1.8.8-.6.1-1.2-.5-.5-.4-.2-.1-.2.1-.2-.2-.1-.3-.2-.4-.6-.4-.4-.7-.1-.6-.1-.4-.1-.5.3h.8l1.5.3.7 1.5.5.4.1.4-.2.4v.4l-.3.5-.1.8-.3.4-.7.5.4.2.3.6.2-.1ZM620.2 291.8l.4-.6h-.1l-.5.5-.6.2.1.1h.1zM634.9 413.9l.4-.4-.3-.3-.6-.8-.3.1v1l.1.3.5.3.2-.2zM1211.1 575.5l-.4-.4h-.4v.2l.1.4 1.1.2-.4-.4Zm3.9-1.5h-.1l-.2.1-.1.2-.1.3h-.9l.8.5.5.5.2.2.1-.2.1-.7-.3-.9Zm-5.6-1.1.2-.3-.2-.7-.4-.8.1-1.4-.2-.2h-.3l-.1.1-.1.3-.3 2 .4.6.3.1.5.4.1-.1ZM831.4 402.6l.1-.4-.2-.6-.3-.1-.6.4-.1.3.1.3.3.3.3.1.4-.3Zm6.3-1.7.4-.2v-.7l-.1-.3h-.4l-.2.4v.5l.2.3h.1Zm-1.4.8-.5-.9-.3-.1-.6-.7v-.3l-.3-.1V400.2l-.2.5v.5l.4.8.4.2.7.1.4-.6Zm3.1-7.8v.5l-.3.7.5.3.3.1.6-.4.2-.5-.1-.3-.3-.3-.3-.1-.1.1-.5-.1Zm-6.4-2.5-1-.1-.6-.2h-.1v.3l.4.8.2-.5.2-.1.8.2.4-.1-.1-.1-.2-.2Zm6.7-.2-.1-.5v-.7h-.2l-.3.2.1.7.1.1.2.5.2-.3Zm-11.1-1v-.2l-.3-.5-.3.1-.4.2-.1.3.4.2h.2l.5-.1Zm-1.5-.9.8-.6.2-.3-.2-.5-.5-.1-1.2.6-.1.2.1.3.1.5.2.1.6-.2ZM517 374.1l-.1-.3-.1.1v.6h.7l.3-.2h.6l-.1-.2-.8-.1-.1.1-.2.1-.2-.1Zm8-2.3-.1-.1h-.1l-.3.1h-.2l-.1.1-.1.1h.2l.4-.2H525Zm.8-.1.5-.2-.1-.1h-.1l-.1.1h-.1l-.5.3h.2l.2-.1ZM625.8 400.1l.3-.7-.1-1-.2-.4-.8-.3v.2l-.1.5.3.8.1 1.1.5-.2zM680.3 827.7l-.1-.3-.4-.2-.2-.1.1.2.1.3.1.2.2.1.2-.2Zm5.5-1.3-.1-.1h-.2l-.1.2.2.3.4.1-.2-.5Zm-12.9-1.4-.1.2-.4.1.2.3.6.4h.4l.1-.3-.1-.6h-.3l-.4-.1Zm2.8-2-.9-.3-.4-.3h-.3l.4.4.1.2.1.2.6.3.6.3.4.3-.1.1-.8.3h-.3l-.2.1.4.2.6-.1.2-.1h.2l.3.1v.2l-.1.2-.2.2-.4.3-.6.4h-.8l-.7.7.9.5.7.3h.9v-.1l.2-.1h.3l.1-.1.2-.4v-.6h.2l.3.1.7-.1.3-.1.6-.9.4-.8.2-.4.3-.2.1-.2.1-.3.3-.2v-.3l-.4-.2-.3-.2-.3.3-.2-.1-.9.3h-.4l-.3-.2-.4-.1-.4.1-.5.5-.8-.2Zm.7-.4.1-.3-.1-.2-.5-.2h-.5l.2.5.2.2h.6Zm5.9-.7h-.4l.4.5-.8.8.2.6.3.4.1.2-.1.1-.4.1-.3.1-.2.3-.9.9.2.2-.3.7.2.3.8.7.8.4v-.7l.4-.1.4.2.4-.2-.9-1h.3l2.5.5-.1-.4-.1-.2-.3-.4 1.5-.4.5-.3.2-.3.6-.1.8-.3-.1-.1.1-.3-.4-.2-.5-.1.1-.3.5-.1-.8-.7-.3-.1-1 .1-.3.1v.2l.1.3.3.3.1.2-.2-.1-1.1-.4-.2-.1-.2-.4.2-.1.3.1.1-.3-.4-.3-.4-.1-.9.1-.8-.3ZM937 111.9v-.3l-.1-.3v-.2h-.1l-.5-.1-.1-.2h-.1v.2l.1.4.5.4.3.2h.1l-.1-.1Zm.5-2.1v-.1l-.2-.2-.5-.2-.2-.1-.2.1v.2l.1.1.4.1.4.3h.1l.1-.2Zm-2.4-1.9-.2-.1-.5.1h-.3l.1.3.6.2h.6l.2-.1-.1-.2-.4-.2Zm2.5-.5-.8-.2-.6-.3-1 .1.7 1.1.8.7.4.2V108.7l-.4-.5-.1-.1v-.1l.1-.1h.2l.3.2h.2l.2-.7Zm1-.2-.3-.2-.4-.4v.9h.1l.3.1.3-.4ZM622.1 420.7l.5-.2.2-1.1-.3-.1-.3.3-.3.5v.4l-.2.3.4-.1zM1594.9 355.9v-.4l-.4-.2h-.3l.1.2.4.5.2-.1Zm-1.3 0-.1-.5.2-.3-.9.3-.1.3v.1l.2.1h.7Zm1.6-1.2-.1-.3-.2-.1-.1-.3-.1-.2-.3-.1-.2-.1h-.4l-.1.1h-.2l-.2.2v.2l-.5.4v.2l.3.2.5-.1.6.2.8.3v-.5l.2-.1ZM619.9 388.2v-.3l-.2-.2h-.3v.5l.2.2.3-.2Zm-.5-.7-.1-.2-.1-.1-.2-.4-.4-.4-.2.1-.1.2v.1l.3.3.4.1.2.4.2-.1ZM627.4 409.2l.1-1.2-.1-.5-.2.1-.3.4-.4.6-.1.3v.6l.6.4.4-.7zM1014.4 198.6v-.2l.1-.2-.1-.1-.1-.2-.1-.1v-.2l-.1-.1v-.2l-.1-.1-.2.6v.5l.1.2h.1l.4.1zM1379.1 476.6l.1-.1v-.2l-.1-.1h-.1l-.1.2v.2h.2Zm.3-5.9.1-.2v-.4l-.1.1-.1.2v.1l-.1.1v.1h.2ZM1043.6 269l-.2-.2-.5-.5-.5-.1.1.6.4.4h.5l.2-.2Zm-1.4-1.2v-.2l-.3-.1-.4.1.1.1.3.2.3-.1ZM621.8 390.7l-.1-.5h-.1l-.2.4v.3l.3.1.1-.3zM1284.7 627.5l.3-.3.2-.4.3-.3.1-.7-.2-.8-.4-.7-.5.1-.3.4-.2.5-.5.3-.1.3-.2.7-.1.4-.2.1v.2l.3.3.8.1.7-.2zM1887.3 641.1v-.3l-.4-.2-.2.5v.1l.2.1h.2l.2-.2Zm4.6-7.6-.1-.1v-.3l.1-.2-.4.2-.6.2.1.8-.1.4.3.1.1.3h.2l.7-.2.3-1.1h-.4l-.2-.1Zm-3-1.7.3-.5.1-.2-.2-.7-.3-.3.3-1-.1-.2-.4-.2-.9.3-.1.2.5.1.2.2-.5.7-.5.1.1.5.2.4.7.2.3.4h.3Zm-3.9-2.9.3-.3.3-.4-.1-.1v-.3l.2-.4.3-.1-.2-.2-.2-.1v.3l-.3.7-.1.3-.5.6h.3Zm-12.3-2.9-.6-.7-.1.2-.1.4v.3l.3.2.1.2-.1.5v.4l.6.9.1.7.3.6.5.5.4.5.8 1.4.2.5.4.3 1 1.2.4.4.4.2.9.7.6.3.3.5.6.3.8.4.1.2v.3l.1.3.5.4.6.3.1.2.1.2.3-.1.3.1.9.7.4-.1h.3l.5-.2.3-.4-.1-1.1-.5-.5-.7-.4-.4-.5-.4-.5-.8-1-1.1-1-.5-.2-.3-.4-.3-.1-.2-.3-.5-.3-.3-.6-.6-.6-.1-.3.1-.3-.1-.3-.4-.3-.2-.5-.2-.3-.4-.2-.7-.4-1.6-1.9-.7-.6-.7.2-.6-.4Zm-22-6 .2-.4.1-.8-.2.4-.2 1 .1-.2ZM1905 500.5v-.2h-.2l-.1.2.1.1.1.1zM264.2 652.4v-.2l-.1-.2-.2-.1-.1.1.1.2.2.2.1.1zM590.8 382.3v-.1h.1v-.1l.1-.1v-.1h-.5v.2l.2.1v.1h.1Zm13.6-.3.7-.2v-.1l-.4-.1h-.6l-.5.2.1.2h.7Zm-3.7-2.2-.1-.2h-.2l-3.5-.1-1.3-.2-.3.1-.3.1-.1.4-.2.2-.3.2.1.3.1.2.2.4-.1.5-.2 1 .3.2.7-.1.3.1.3.1.4-.1.4-.2.9.1.5-.1.6.3.4-.1.2.1H600.4l.9-.2.8-.5.3-.5.4-.3.6-.4v-.9l-.7-.1-.6-.3-1.1-.1h-.1l.1.2h-.1l-.2-.1ZM203.2 629.9l-.1-.3-.2-.3-.1.1.1.1.2.3v.2l.1-.1Zm9.3-14.7-.2-.2-.4-.2-.2-.1-.2-.1-.1.1.1.1h.1l.3.2.3.1.2.1v.1l.1-.1Zm-24.5-1.1-.6-.3.1.2.4.2.2.1-.1-.2Zm20.5-.2-.4-.5h-.3l.7.6v-.1Zm-21.6-1-.4-.4-.2-.3-.3-.1.1.1.4.4.3.4.2.1-.1-.2Zm-.3-2.1-.1-.1v-.3l.2-.3.6-.4v-.1l-.2.1-.4.2-.2.2-.1.2-.1.3.1.2.1.1h.2l-.1-.1Zm-47.4-1.1-.2-.6-.3-.5-.8-.1-.5.2-.1.2.1.4.5.7.5.1.8-.1.4.6.2.1.4.1.1-.3-.2-.5-.9-.3Zm-2.9-.9.1-.4-.2-.1h-.5v.2l.1.2.1.1.3.2.1-.2Zm-9.7-4.3h.2l-.4-.6-.3-.2V604.5l.3.1.2-.1Zm43.9-1.6h-.6l.5.1.4.2-.3-.3Zm-.7.1-.3-.1-.3-.2h-.3l.7.3h.2Zm-43.8.1.1-.2-.1-.1-.4-.2.1.3v.2l.2.1.1-.1Zm32.8-2-.3-.4-.2-.3-.2-.4-.4-.5.1.3.1.2.2.2.2.4.1.2.3.4h.1v-.1Zm16.2-1.5.1-.5h-.2v.5h.1Zm-14.4-1.6-.6-.6h-.1l.1.2.5.5.1.2v-.3Zm30.8-33.9.1-.2v-.2l-.1-.1-.3-.1.1.7.2-.1Zm-2.7-3.7-.1-.2h-.2l-.1.1v.5l.4-.4Zm.1-1.6-.8.5.2.4.4.1.2-.2.8-.1.3-.4-.3.1-.8-.4Zm-6.1-1.7.2-.5-.2-.1-.4.2v.2l.3.4.1-.2Zm2.6-3.1.3-.1v-.1l-.2-.2-.3-.1-.1.1-.1.2.1.3.3-.1Zm-2.9-.1.1-.3v-.2l-.1-.2-.9-.2-.1.1v.4l.2.5h.3l.5-.1ZM1551 488.7l.1-.2-.2-.2-.3-.1-.5-.2-.6.1-.3.6.9.4.9-.4zM1899.1 571.4l-.2-.2-.1-.4h-.3l-.3.1.2.6h.2l.5-.1Zm-35.6.8-.1-.2-.5-.4-1.9-1.3-.4-.1-.1.1-.1.3.1.2.5.1v.1l.3.2.7.2.4.3.1.5.3.1.3.1.4-.2Zm32-6.6v-.1l.2-.3-.2-.1-.5-.1-.7.1-.3.2-.2.3h-.2v.2l.1.4.2-.1.2.1.5-.5h.4l.5-.1Zm-24.4-2.3-.1-.2-.2-.1-.9-.7-.5-.2h-.5l-.1.5v.3h.6l.4.2v.6l.2.2v.5l1.2.9.7.4.7.1.4.2.5-.1.5.2.4-.1-.4-.3v-.4l-.5-1.3-.3-.3-.5.1-.5-.2h-.4l-.7-.3Zm-.4-4.9-.6-1.6-.2-.1.1.6.1.4-.1.5-.1.6.2.2.2-.2.4.5V558.4Zm-9.8-2.2-.3-.1-.4.3-.1.3-.1.7v.4l.3.7.3.5.3.3.2.2.9.1 1.7.1.9.4.9.2.4-.1.5-.2.1-.1-.1-.6-.2-.3-.4-.2-.2-.6-.5-.4-.9-.7h-1.6l-.6.1-1.1-1Zm2.6-1.8-.5.2v.3l.4.1.4.2.1.3.2-.1.4.2.2-.3-.4-.5-.4-.3h-.1l-.3-.1Zm-5.6.8.3-.2v-.4h-.3l-.1-.2h-.2l-.3.2-.2.3.1.2h.4l.2.1h.1Zm-8.4-2.3-.1-.2-.3-.2h-.2l-.5.1.1.1.6.3.3.1.1-.2Zm3.1.4.3-.2-.1-.2-.1-.5-.4.7.1.2h.2Zm-.5-.9v-.4l-.2-.1.4-.3-.1-.1-.6-.2-.2.2-.2.1-.1.1-.1.1-.1.5.2.4.4.2.6-.5Zm-4 .2-.3-.4.1-.5.2-.1.2-.5-.1-.4-.2.1-.7.6-.1.3.6.8.3.2v-.1Zm13-1.3-.2-.4v-.2l-.3-.2-.2.1-.1.3.1.2.4.3.3-.1Zm6-1.2h-.2l-.1.1h-.5l-.1.2.6 1.1-.3.5.4 2.2.4 1.2.8.8v.2l.8.5.6 1.3.2.1.1-.2v-.6l-.5-1.1.1-.8-.2-.3v-.3l-.2-.8-.6-.7-.3-.1-.2-.3.2-.6.2-.2.1-.3-1.3-1.9Zm-16.6-.5-.6-.2-.2-.3v-1l-.6-.3-.3.2-.6.7-.2.4-.5.3-.1.3v.4l.4.1.3-.4.9-.1.3.1v.4l.1.7.3.3.5.2.4.6.1-.3h.2l.2-.4-.3-1.2-.3-.5Zm-6.5-.4.1-.5-.1-.9-.2.1v.2l-.1.4.2.8.1-.1Zm3.2-.4.2-.2v-.9l-.2-.4-.2-.2-.5.1-.4.5v.5l.4.6h.7Zm-2.6-1.2.2-.3.5-.7.1-.3-.5-.2-.4-.5-.4-.2-.3.4v.4l.5.6-.1.4.2.1.1.4.1-.1Zm17.5 3.9-.1-.5-.3-.4.4-.5-2.2-1.9-.3-.2-.4-.1-.5-.4-.5-.1-.5-.4-.2-.3-.6-.4-.6-.8-1.5-.3.1.2.4.4.1.7.5.4.5.6.2.1.2.2.4.5.8.4.8.6.3.1.3.3 1.5.7.5.7.7.5v-.1Zm-21.8-9.2.2-.3-.7-.5-.2.3-.2.5.4.2.5-.2Zm9.1 1.5-.1-.1h-.3l-.4-.2-.7-.8-.2-.3-.2-1-.4-.4-1.4-.8-.8-.8-.7-.2-.2.2v.5l.2.3 1 .9 1.1 1.7 1 1 .8.1h.4v.1l.1.2.5.2.5-.4-.2-.2ZM1004.1 496.4l.5-.8v-.5l-.3-.5h-.4l-.5.4-.3.4v.3l.1.7.1.3.3.2.5-.5Zm4.3-9.2.2-.4v-.2l-.1-.1-.1-.1-.2.1-.3.5.1.2.2.2.2-.2ZM617.1 382.2l.2.2.3.1.1-.1v-.2zM1278.5 527l-.5-.8-.4.3.2.3.3.2.1.4.3.2v-.6zM568.7 358.1l-.1.4v.2l.2.1.6-.1.1-.1.2-.1v-.1l-.4.1-.6-.4Zm3.6.6.2-.2-.2-.2-.7-.2-.2.1v.3h.6l.3.3v-.1Zm-1.1-.5-.1-.1-.1-.6h-.5v.2l.1.2h.1l.1.2.3.2.1-.1ZM3.3 632.7l-.2.3v.2l.4.4-.2-.9Zm-1.6-.9h-.2l.2-.1-.4-.2H.9l-.2-.1v-.2l-.2.3.2.3.9.4.3.2.2-.6v-.2l-.3.1v.1h-.1Zm2.5-16 .1-.2v-.2l-.3-.1h-.1l-.3.5.1.1.3.2h.1l.1-.3ZM625.4 432.7l.1-.2v-.6l.2-.4-.2-.4-.1-.6.1-.5v-.7l.2-.3.5-.8h-.9l-.6.2-1.1.1-.5.2-.7.1-.4.2.1.1.5.2.2.2.1.2.1.4-.3 1.7-.1.1-.6.1-.2.3-1.4.8.8-.1.9.1 2.4-.1.9-.3Zm1.8-6.7 1.2-.5.1-.4h-.2l-.8.3-.6.5v.2l.3-.1ZM624.5 416.4v-.1h.1v-.2h-.1v.2h-.1v.1h.1Zm.7-1.9.1-.2.1-.1-.1-.1v.1l-.2.1v.2h-.2.1l.1.1.1-.1Zm.3-1.1.3-.2.1-.6-.1-.4h-.2l-.3.1-.2.3-.1.5.4.4.1-.1ZM609.2 380.1l.3-.2-.2-.1h-.4l-.3.2.1.1h.5Zm1.1-.4.4-.4-.5.1-.2.2.1.1h.2Zm.8-1.8h-.7l.1.1h.3l.3.1v-.2ZM607.9 383.9l-.7.2-.1.4h1.1l.7-.3h-.6l-.4-.3Zm.9-3.5-.5-.1-.2.2.3.1.4-.2Zm-1.1.1-.2-.2-.3-.1-.4.1.5.3.4-.1ZM1139.9 273.4l-.3-.1-.5.2-.4.4-.4.3-.5-.3.2.9.6 1.1.2.3.3.2 1.1.3H1141.1l.2.1.2.4h.4v-.4l.2-.2.3-.2h.3l.6-.1.6-.2.5-.4.9-1h1.2l.6-.1-.2-.4-.1-.1-.4-.5-.2-.4.1-.6 2.5-1.9.5-.5-.8.2-.6.4-.4.2-.7.4-2.3.8-.8.1h-.8l-1-.1-.9-.2v.7l-.2.6-.6.2-.3-.1zM1274 632.9l.2-.4.1-.8-.4-.8-.4-.7-.4-.2-.8-.1-.7.3-.4.6-.2.3.4 1.1.2.3 1.1.6h.5l.8-.2zM1218.7 579.7v-.3l.2-.5v-.1l.1-.5-.3-.3h-.2l-.2-.3-.3.3.3.5-.1.3-.1.4.1.4.2.2zM628 404.9l-.2-.7-.1-.2-.2-.3.1-.3v-.1h-.2l-.3-.5-.6-.3h-.3l-.2.2v.3l.3.9.2.2.5.2-.4.4v.1l.1.3h.9l.2.3.1-.1.1-.4zM626.4 396.1l.2-.2v-.3l-.2-.3-.2.1-.2.3v.3l.1.1h.3Zm-1.9-.8.2-.2v-1.2l.1-.3-.2-.1-.2-.2-.6-.2-.1.1-.2.3.1 1.5.2.5.2.1.5-.3Zm1.6-1.4.8-.2-.9-.6-.2-.4v-.3l-.4-.3-.2.2-.1.3.1.5-.3.4.1.4.4.1.7-.1ZM585.9 419.9v-.6l-.9-.4v.3l.1.2.3.1.1.2-.1.6.2.3.3-.7zM869.6 320.2l-.2-.2-.7.5h-.6l.1.2.1.2.7.4.6-1.1Zm13.5-2.1v-.1h-.1l-.1.1-1.3-.1-.2.6-.5.4v.7l.5.7.3.1.5.1.7-.4.2-.4.1-.8-.1-.4v-.5Zm-9.7.8.5-.4v-.2l-.1-.3-.5-.3h-.2l-.2.2-.2.4.3.5.2.1h.2Zm4.7-2.3 1.2-1v-.3l-1 .1-1.1 1-.3.1-1 .1h-.5l-.4.2.2.3.4 1 .7.9.6-.2.3-.2.4-.6.5-1.4Zm11.6 1.3 1.5-.5.3-1 .3-1.1v-.7l-.2-.3h-.5l-.3.2-.1.6-.7 1.3-.5 1.2-.7.6-.7.2.1.1.7.1.8-.7Zm-19.7-2 .5-.5.1-.3-.1-.5.2-.2-.1-.4-.3-.4h-.7l-.4.6.6 1.2.1.5h.1Zm22.4-2.7.9-.3.5-.3.1-.9.2-.3-.2-.3-.2.2-.2.4-.6.2-.8.4-.2.3-.2.9.4.1.3-.4Z"/></g></svg>