<svg xmlns="http://www.w3.org/2000/svg" width="75" height="75" version="1.1" viewBox="0 0 75 75">
 <path d="m519.98 288.02c0-77.184-62.578-139.75-139.76-139.75-77.176 0-139.75 62.559-139.75 139.75 0 44.203 27.145 78.008 52.613 110.14 68.129 86.043 83.254 167.27 86.43 205.16h1.4766c2.7656-37.887 15.184-132.49 70.164-194.02 31.855-35.66 68.832-70.016 68.832-121.29zm-139.77 86.762c-49.926 0-90.398-40.473-90.398-90.398 0-49.926 40.461-90.406 90.398-90.406 49.914 0 90.406 40.473 90.406 90.406 0 49.926-40.488 90.398-90.406 90.398z"/>
</svg>
