<svg width="624" height="45" viewBox="0 0 624 45" fill="none" xmlns="http://www.w3.org/2000/svg">
<path d="M0.6524 29.9494C6.33431 20.7305 20.5757 16.5948 32.8786 18.6316C45.1815 20.6685 56.198 26.4071 67.8399 31.5346C78.8653 36.6533 91.7402 41.7986 103.462 41.347C115.801 40.9042 125.753 34.8468 136.323 28.7982C143.783 24.5652 151.868 19.721 161.151 17.3742C180.959 12.0784 199.972 19.172 218.377 25.6368C223.899 27.5762 230.037 29.5245 235.567 30.844C260.736 38.646 288.371 46.4835 314.924 43.7648C336.536 41.5951 357.005 33.2086 376.232 25.4243C379.948 24.2377 384.29 22.4399 388.007 21.2532C397.915 18.2954 407.806 16.5774 417.678 16.0992C431.259 15.0542 446.037 16.5066 460.153 21.0496C477.96 26.2657 493.265 33.926 510.5 36.0338C530.192 38.7968 550.07 28.5417 567.483 18.2513C584.905 7.34086 606.017 -2.89649 623.823 2.31962" stroke="#A28C62" stroke-miterlimit="10"/>
</svg>
