<svg width="1597" height="101" viewBox="0 0 1597 101" fill="none" xmlns="http://www.w3.org/2000/svg">
<g clip-path="url(#clip0_6_197)">
<path d="M-1 50.5002C20.0239 49.5685 50.5364 53.6681 79.5605 54.5999C108.957 55.7179 137.237 56.6497 166.075 60.3766C225.053 67.6442 286.822 86.8379 348.033 95.5962C364.964 98.0187 381.709 99.6958 398.64 99.8822C443.85 100.814 487.758 92.6146 531.853 81.9929C585.25 68.9486 638.274 51.991 693.16 47.8914C767.767 42.301 842.559 60.7493 915.864 46.4006C958.098 38.2013 997.913 19.5667 1038.47 9.13123C1065.08 2.2364 1091.87 -1.30419 1119.59 2.79544C1137.64 5.40429 1154.38 11.181 1170.57 18.4486C1220.06 40.2512 1264.9 75.2844 1318.11 88.8877C1340.99 94.6645 1364.62 96.1552 1388.06 94.6644C1415.41 92.9873 1442.76 87.0242 1468.07 79.1977C1515.51 64.2899 1557.37 42.6737 1596.44 24.4117" stroke="#A28C62" stroke-miterlimit="10"/>
</g>
<defs>
<clipPath id="clip0_6_197">
<rect width="1598" height="101" fill="white" transform="translate(-1)"/>
</clipPath>
</defs>
</svg>
