<svg width="15" height="22"
              viewBox="0 0 15 22" fill="none" xmlns="http://www.w3.org/2000/svg">
              <circle cx="7.5" cy="14.5" r="7.5" fill="#A28C62" />
              <path
                d="M6.365 20V12.05H7.805V20H6.365ZM7.085 10.52C6.805 10.52 6.57 10.43 6.38 10.25C6.2 10.07 6.11 9.85 6.11 9.59C6.11 9.32 6.2 9.095 6.38 8.915C6.57 8.735 6.805 8.645 7.085 8.645C7.365 8.645 7.595 8.735 7.775 8.915C7.965 9.085 8.06 9.3 8.06 9.56C8.06 9.83 7.97 10.06 7.79 10.25C7.61 10.43 7.375 10.52 7.085 10.52Z"
                fill="white" />
            </svg>
