<svg xmlns="http://www.w3.org/2000/svg" viewBox="0 0 448.023 448.023" style="enable-background:new 0 0 448.023 448.023" xml:space="preserve"><path d="M342.94 1.591c-5.6-2.688-12.128-1.92-16.928 1.92l-127.68 102.08c-6.912 5.504-8 15.584-2.496 22.496 5.536 6.944 15.584 8.064 22.496 2.528l101.664-81.312v196.48c0 8.864 7.168 16 16 16s16-7.168 16-16V16.023a16.05 16.05 0 0 0-9.056-14.432zM443.324 420.727l-95.968-95.968-.032-.032-160-160-.032-.032-31.968-31.968-.032-.032-127.968-128c-6.24-6.24-16.384-6.24-22.624 0-6.24 6.24-6.24 16.384 0 22.624l100.672 100.704h-9.376c-17.952 0-32 14.048-32 32v128c0 17.952 14.048 32 32 32h74.368L325.98 444.535a16.158 16.158 0 0 0 10.016 3.488c2.336 0 4.704-.512 6.944-1.568a16.05 16.05 0 0 0 9.056-14.432v-57.376l68.672 68.672c3.136 3.136 7.232 4.704 11.328 4.704s8.192-1.568 11.328-4.672c6.24-6.24 6.24-16.384 0-22.624zM159.996 288.023h-64v-128h41.376l22.624 22.624v105.376zm160 110.688-128-102.4v-81.664l128 128v56.064z"/></svg>