<svg width="624" height="45" fill="none" xmlns="http://www.w3.org/2000/svg"><path d="M.652 29.95c5.682-9.22 19.924-13.355 32.227-11.318 12.303 2.037 23.319 7.775 34.96 12.903 11.026 5.118 23.901 10.264 35.623 9.812 12.339-.443 22.291-6.5 32.861-12.549 7.46-4.233 15.545-9.077 24.828-11.424 19.808-5.296 38.821 1.798 57.226 8.263 5.522 1.94 11.66 3.887 17.19 5.207 25.169 7.802 52.804 15.64 79.357 12.92 21.612-2.169 42.081-10.555 61.308-18.34 3.716-1.186 8.058-2.984 11.775-4.17 9.908-2.959 19.799-4.677 29.671-5.155 13.581-1.045 28.359.408 42.475 4.95 17.807 5.217 33.112 12.877 50.347 14.985 19.692 2.763 39.57-7.492 56.983-17.783 17.422-10.91 38.534-21.147 56.34-15.931" stroke="#A28C62" stroke-miterlimit="10"/></svg>