<svg width="1597" height="101" fill="none" xmlns="http://www.w3.org/2000/svg"><g clip-path="url(#a)"><path d="M-1 50.5c21.024-.931 51.536 3.168 80.56 4.1 29.397 1.118 57.677 2.05 86.515 5.777 58.978 7.267 120.747 26.46 181.958 35.22 16.931 2.422 33.676 4.099 50.607 4.285 45.21.932 89.118-7.267 133.213-17.89 53.397-13.043 106.421-30.001 161.307-34.1C767.767 42.3 842.559 60.748 915.864 46.4c42.234-8.2 82.049-26.834 122.606-37.27 26.61-6.895 53.4-10.435 81.12-6.336 18.05 2.61 34.79 8.386 50.98 15.654 49.49 21.802 94.33 56.835 147.54 70.439 22.88 5.776 46.51 7.267 69.95 5.776 27.35-1.677 54.7-7.64 80.01-15.466 47.44-14.908 89.3-36.524 128.37-54.786" stroke="#A28C62" stroke-miterlimit="10"/></g><defs><clipPath id="a"><path fill="#fff" transform="translate(-1)" d="M0 0h1598v101H0z"/></clipPath></defs></svg>