<svg xmlns="http://www.w3.org/2000/svg" xmlns:xlink="http://www.w3.org/1999/xlink"><symbol id="arrow-down" viewBox="0 0 451.847 451.847">
<g>
	<path d="M225.923,354.706c-8.098,0-16.195-3.092-22.369-9.263L9.27,151.157c-12.359-12.359-12.359-32.397,0-44.751
		c12.354-12.354,32.388-12.354,44.748,0l171.905,171.915l171.906-171.909c12.359-12.354,32.391-12.354,44.744,0
		c12.365,12.354,12.365,32.392,0,44.751L248.292,345.449C242.115,351.621,234.018,354.706,225.923,354.706z"/>
</g>
<g>
</g>
<g>
</g>
<g>
</g>
<g>
</g>
<g>
</g>
<g>
</g>
<g>
</g>
<g>
</g>
<g>
</g>
<g>
</g>
<g>
</g>
<g>
</g>
<g>
</g>
<g>
</g>
<g>
</g>
</symbol><symbol id="back" viewBox="0 0 512 512">
<g>
	<g>
		<path d="M142.716,293.147l-94-107.602l94-107.602c7.596-8.705,6.71-21.924-1.995-29.527c-8.705-7.596-21.917-6.703-29.527,1.995
			L5.169,171.782c-6.892,7.882-6.892,19.65,0,27.532l106.026,121.372c4.143,4.729,9.94,7.157,15.771,7.157
			c4.883,0,9.786-1.702,13.755-5.169C149.427,315.071,150.319,301.852,142.716,293.147z"/>
	</g>
</g>
<g>
	<g>
		<path d="M359.93,164.619H20.926C9.368,164.619,0,173.986,0,185.545c0,11.558,9.368,20.926,20.926,20.926H359.93
			c60.776,0,110.218,49.441,110.218,110.211S420.706,426.893,359.93,426.893H48.828c-11.558,0-20.926,9.368-20.926,20.926
			c0,11.558,9.368,20.926,20.926,20.926H359.93c83.844,0,152.07-68.219,152.07-152.063S443.781,164.619,359.93,164.619z"/>
	</g>
</g>
<g>
</g>
<g>
</g>
<g>
</g>
<g>
</g>
<g>
</g>
<g>
</g>
<g>
</g>
<g>
</g>
<g>
</g>
<g>
</g>
<g>
</g>
<g>
</g>
<g>
</g>
<g>
</g>
<g>
</g>
</symbol><symbol id="cross" viewBox="0 0 32 32"><path d="M7 24L25 8M25 24L7 8" stroke-width="3" stroke-linecap="round"/></symbol><symbol id="fb-icon" viewBox="0 0 195 195">
  <g data-name="Layer 2">
    <path d="M195 0H0v195h195V0zm-85.23 76h12.49v19.21h-12.49v49H83.6v-49h-9.73V76h9.73v-3a52.82 52.82 0 01.9-9.16 18 18 0 013.38-8.18 17.58 17.58 0 016.92-5.13c3-1.29 7.32-1.95 13-1.95a175.13 175.13 0 0119.94 1.61l-2.85 15.73a49.44 49.44 0 00-7.58-.77c-2.37 0-4 .4-5.09 1.19a6.4 6.4 0 00-2.17 3.76 34.28 34.28 0 00-.28 5.9z" fill="currentColor" fill-rule="evenodd" data-name="Layer 1"/>
  </g>
</symbol><symbol id="icon-mute" viewBox="0 0 448.023 448.023">
<g>
	<g>
		<path d="M342.94,1.591c-5.6-2.688-12.128-1.92-16.928,1.92l-127.68,102.08c-6.912,5.504-8,15.584-2.496,22.496
			c5.536,6.944,15.584,8.064,22.496,2.528l101.664-81.312v196.48c0,8.864,7.168,16,16,16c8.832,0,16-7.168,16-16V16.023
			C351.996,9.879,348.476,4.279,342.94,1.591z"/>
	</g>
</g>
<g>
	<g>
		<path d="M443.324,420.727l-95.968-95.968l-0.032-0.032l-160-160l-0.032-0.032l-31.968-31.968l-0.032-0.032l-127.968-128
			c-6.24-6.24-16.384-6.24-22.624,0c-6.24,6.24-6.24,16.384,0,22.624l100.672,100.704h-9.376c-17.952,0-32,14.048-32,32v128
			c0,17.952,14.048,32,32,32h74.368L325.98,444.535c2.912,2.304,6.464,3.488,10.016,3.488c2.336,0,4.704-0.512,6.944-1.568
			c5.536-2.688,9.056-8.288,9.056-14.432v-57.376l68.672,68.672c3.136,3.136,7.232,4.704,11.328,4.704s8.192-1.568,11.328-4.672
			C449.564,437.111,449.564,426.967,443.324,420.727z M159.996,288.023h-64v-128h41.376l22.624,22.624V288.023z M319.996,398.711
			l-128-102.4v-81.664l128,128V398.711z"/>
	</g>
</g>
<g>
</g>
<g>
</g>
<g>
</g>
<g>
</g>
<g>
</g>
<g>
</g>
<g>
</g>
<g>
</g>
<g>
</g>
<g>
</g>
<g>
</g>
<g>
</g>
<g>
</g>
<g>
</g>
<g>
</g>
</symbol><symbol id="icon-volume" viewBox="0 0 480 480">
<g>
	<g>
		<path d="M278.944,17.577c-5.568-2.656-12.128-1.952-16.928,1.92L106.368,144.009H32c-17.632,0-32,14.368-32,32v128
			c0,17.632,14.368,32,32,32h74.368l155.616,124.512c2.912,2.304,6.464,3.488,10.016,3.488c2.368,0,4.736-0.512,6.944-1.568
			c5.536-2.688,9.056-8.288,9.056-14.432v-416C288,25.865,284.48,20.265,278.944,17.577z M96,304.009H32v-128h64V304.009z
			 M256,414.697l-128-102.4V167.721l128-102.4V414.697z"/>
	</g>
</g>
<g>
	<g>
		<path d="M369.024,126.857c-6.304-6.24-16.416-6.144-22.624,0.128c-6.208,6.304-6.144,16.416,0.128,22.624
			c24.16,23.904,37.472,56,37.472,90.4c0,34.4-13.312,66.496-37.472,90.4c-6.304,6.208-6.368,16.32-0.128,22.624
			c3.136,3.168,7.264,4.736,11.36,4.736c4.064,0,8.128-1.536,11.264-4.64c30.304-29.92,46.976-70.08,46.976-113.12
			C416,196.969,399.328,156.809,369.024,126.857z"/>
	</g>
</g>
<g>
	<g>
		<path d="M414.144,81.769c-6.272-6.208-16.416-6.176-22.624,0.096c-6.208,6.272-6.176,16.416,0.096,22.624
			C427.968,140.553,448,188.681,448,240.009s-20.032,99.456-56.384,135.52c-6.272,6.208-6.304,16.352-0.096,22.624
			c3.136,3.168,7.232,4.736,11.36,4.736c4.064,0,8.128-1.536,11.264-4.64C456.608,356.137,480,299.945,480,240.009
			C480,180.073,456.608,123.881,414.144,81.769z"/>
	</g>
</g>
<g>
</g>
<g>
</g>
<g>
</g>
<g>
</g>
<g>
</g>
<g>
</g>
<g>
</g>
<g>
</g>
<g>
</g>
<g>
</g>
<g>
</g>
<g>
</g>
<g>
</g>
<g>
</g>
<g>
</g>
</symbol><symbol id="info" viewBox="0 0 330 330">
<g>
	<path d="M165,0C74.019,0,0,74.02,0,165.001C0,255.982,74.019,330,165,330s165-74.018,165-164.999C330,74.02,255.981,0,165,0z
		 M165,300c-74.44,0-135-60.56-135-134.999C30,90.562,90.56,30,165,30s135,60.562,135,135.001C300,239.44,239.439,300,165,300z"/>
	<path d="M164.998,70c-11.026,0-19.996,8.976-19.996,20.009c0,11.023,8.97,19.991,19.996,19.991
		c11.026,0,19.996-8.968,19.996-19.991C184.994,78.976,176.024,70,164.998,70z"/>
	<path d="M165,140c-8.284,0-15,6.716-15,15v90c0,8.284,6.716,15,15,15c8.284,0,15-6.716,15-15v-90C180,146.716,173.284,140,165,140z
		"/>
</g>
<g>
</g>
<g>
</g>
<g>
</g>
<g>
</g>
<g>
</g>
<g>
</g>
<g>
</g>
<g>
</g>
<g>
</g>
<g>
</g>
<g>
</g>
<g>
</g>
<g>
</g>
<g>
</g>
<g>
</g>
</symbol><symbol id="marker" viewBox="0 0 512 512">
<g>
	<g>
		<path d="M256,0C153.755,0,70.573,83.182,70.573,185.426c0,126.888,165.939,313.167,173.004,321.035
			c6.636,7.391,18.222,7.378,24.846,0c7.065-7.868,173.004-194.147,173.004-321.035C441.425,83.182,358.244,0,256,0z M256,469.729
			c-55.847-66.338-152.035-197.217-152.035-284.301c0-83.834,68.202-152.036,152.035-152.036s152.035,68.202,152.035,152.035
			C408.034,272.515,311.861,403.37,256,469.729z"/>
	</g>
</g>
<g>
	<g>
		<path d="M256,92.134c-51.442,0-93.292,41.851-93.292,93.293s41.851,93.293,93.292,93.293s93.291-41.851,93.291-93.293
			S307.441,92.134,256,92.134z M256,245.328c-33.03,0-59.9-26.871-59.9-59.901s26.871-59.901,59.9-59.901s59.9,26.871,59.9,59.901
			S289.029,245.328,256,245.328z"/>
	</g>
</g>
<g>
</g>
<g>
</g>
<g>
</g>
<g>
</g>
<g>
</g>
<g>
</g>
<g>
</g>
<g>
</g>
<g>
</g>
<g>
</g>
<g>
</g>
<g>
</g>
<g>
</g>
<g>
</g>
<g>
</g>
</symbol><symbol id="menu" viewBox="0 0 32 32"><path d="M5 8h22M5 16h22M27 24H5" stroke-width="3" stroke-linecap="round"/></symbol><symbol id="minus" viewBox="0 0 459.313 459.314">
<g>
	<path d="M459.313,229.648c0,22.201-17.992,40.199-40.205,40.199H40.181c-11.094,0-21.14-4.498-28.416-11.774
		C4.495,250.808,0,240.76,0,229.66c-0.006-22.204,17.992-40.199,40.202-40.193h378.936
		C441.333,189.472,459.308,207.456,459.313,229.648z"/>
</g>
<g>
</g>
<g>
</g>
<g>
</g>
<g>
</g>
<g>
</g>
<g>
</g>
<g>
</g>
<g>
</g>
<g>
</g>
<g>
</g>
<g>
</g>
<g>
</g>
<g>
</g>
<g>
</g>
<g>
</g>
</symbol><symbol id="plus" viewBox="0 0 448 448"><path d="m408 184h-136c-4.417969 0-8-3.582031-8-8v-136c0-22.089844-17.910156-40-40-40s-40 17.910156-40 40v136c0 4.417969-3.582031 8-8 8h-136c-22.089844 0-40 17.910156-40 40s17.910156 40 40 40h136c4.417969 0 8 3.582031 8 8v136c0 22.089844 17.910156 40 40 40s40-17.910156 40-40v-136c0-4.417969 3.582031-8 8-8h136c22.089844 0 40-17.910156 40-40s-17.910156-40-40-40zm0 0"/></symbol><symbol id="pop-up" viewBox="0 0 512 512"><path d="m256 511.285156-89.285156-89.285156h-106.714844c-33.085938 0-60-26.914062-60-60v-302c0-33.085938 26.914062-60 60-60h392c33.085938 0 60 26.914062 60 60v302c0 33.085938-26.914062 60-60 60h-106.714844zm-196-471.285156c-11.027344 0-20 8.972656-20 20v302c0 11.027344 8.972656 20 20 20h123.285156l72.714844 72.714844 72.714844-72.714844h123.285156c11.027344 0 20-8.972656 20-20v-302c0-11.027344-8.972656-20-20-20zm342 70h-292v40h292zm0 80h-292v40h292zm-96 80h-196v40h196zm0 0"/></symbol><symbol id="yt-icon" viewBox="0 0 195 195">
  <g data-name="Layer 2">
    <path d="M195 0H0v195h195V0zm-76.64 86.9l-.1-2.37V51.09c.11-.34-.11-.16.48-.22H128v29.29c0 .6-.16 2.54.13 2.86a2.07 2.07 0 00.48 1.45h.07l.8.38c1.56.5 2.61-.38 3.34-.4l.3-.25h.08l1.17-.67c.4-.29 1.09-.68 1.22-1.06.25-.12 0 .06.33-.2s.13-.14.18-.26.1 0 .16-.37v-.48-30.28H146v39.37l-.09 1.62h-9.55a41.89 41.89 0 01-.1-4.42 12.59 12.59 0 01-2 1.54c-.06.23 0 .09-.29.31a17.49 17.49 0 01-6.61 2.94c-2 .38-4.77.33-6.5-.89-.85-.61-.93-1-1.31-1.18-.17-.52-.42-.62-.45-1.16l-.12-.16a6 6 0 01-.55-1.95zM56.83 98.5h81.34a15.56 15.56 0 0115.51 15.5v28.1a15.56 15.56 0 01-15.51 15.51H56.83a15.56 15.56 0 01-15.51-15.51V114a15.56 15.56 0 0115.51-15.5zm49.78 43.06v-17.94c1-.64 2-1.5 3.87-1 1.4.38 1.8 1.56 1.8 3.26v15.33c-.25 1.55-.91 2.19-2.72 2.07-1-.07-2.9-.76-2.93-1.72zm-6.91 6.05v-39.93h6.9V120.41a8.9 8.9 0 016.59-2.63 6.9 6.9 0 013.55 1.09 7.49 7.49 0 012.06 2.74 1.45 1.45 0 00.31.88c-.06.76.21 2.1.21 3.11v16.11a9.11 9.11 0 01-.65 3.19c-.17.18-.29.51-.48.77-.31.42-.39.38-.6.81l-.56.35a7.85 7.85 0 01-5.48 1 9.22 9.22 0 01-5-2.45v2.16l-6.91.06zm32.11-23.31c.21-.77.52-1.23 1.19-1.32.46-.5 1.69-.45 2.44-.32a2.16 2.16 0 011.69 1.12 13.15 13.15 0 01.41 5.16h-6a15.61 15.61 0 01.23-4.63zm-1.17-6.3c.82-.13 1.52-.38 2.45-.48a20.09 20.09 0 012.91-.08c4.23.28 7 2 8.18 5.39l.49 2.1-.08 8.69-13.05-.06c0 1-.17 6.17.13 6.55a2 2 0 00.15 1.22 2.28 2.28 0 002.37 1.84c1.4.08 2.46-.16 3-1.23a4.41 4.41 0 00.36-1.82v-3.07h7v2.91l-.14 1.47-.71 2.46a5.89 5.89 0 00-.58.91c-.29.43-.53.56-.69 1-.69.21-1.74 2.27-7 2.56-5.63.31-7-1.68-7.88-1.82a4.87 4.87 0 00-.8-.83 4.14 4.14 0 00-.76-.75c-.2-.54-.53-.91-.79-1.49s-.36-1.09-.58-1.65l-.22-1.65v-14.38l.31-2.14a8.09 8.09 0 013-4.16 15.51 15.51 0 012.83-1.49zM73.5 143.43v-25.29h6.86v22.96c.14.84.29 1.25 1.06 1.45a3 3 0 002-.26c.86-.38 2.6-1.38 2.69-2.19v-22h6.86v29.41h-6.84v-3.09c-1.8 1.2-2.55 2.33-5.28 3.15-4.62 1.38-6-.92-6.41-1a7.88 7.88 0 01-.94-2.62v-.52zm-23.61-29.91l.08-5.86 23.62.07v5.75h-7.93v34.03l-7.73.06v-34.05h-8zM110.56 67v15.74l-.12 1.34a1.91 1.91 0 01-.31.94 5.23 5.23 0 01-.47 1.76c-.21.13-.15.41-.52.68-.05.38 0 .25-.24.61a4.53 4.53 0 01-.42.56 5.51 5.51 0 01-.95 1c-.23.28-.19.15-.4.49-.2 0-.12 0-.31.13l-.78.57a17.32 17.32 0 01-9.71 2.42 20.07 20.07 0 01-4.45-.46 15.39 15.39 0 01-1.88-.52 8.19 8.19 0 00-1.75-.66 5.62 5.62 0 00-1.25-.87l-1.14-1a4 4 0 01-1.17-1.11 8.52 8.52 0 01-.88-1.33l-.44-.75-.52-1.62-.24-1-.12-1.22V60.36l.09-1.25.21-.88a4.73 4.73 0 011-2.24 3.85 3.85 0 01.92-1.37c.27-.28.76-.9 1.13-1l.46-.48c4-3 10.94-3.51 15.56-2.32 2.8.72 3 1.32 4.55 2 .19.19.2.17.41.36a1.33 1.33 0 01.38.41l.38.19c.32.21 0 .08.31.21l1.37 1.73V56a4.55 4.55 0 011 2.11c.1.37 0 .43.26.71l.09 1.46V67zm-9.89-2.23v15.76c0 .41.18 2.52-.13 2.61 0 .37.08.14 0 .49-.18.66 0 .09-.2.35 0 .35 0 .17-.16.52a4.54 4.54 0 00-.31.5c-.4.11-.48.46-1.43.83a5.47 5.47 0 01-2 .31A4.46 4.46 0 0193.12 85a6.51 6.51 0 01-.56-1.31v-.56a9.34 9.34 0 01-.13-2.61V60.36a2.82 2.82 0 011.12-2.22 5 5 0 013-.77c1.74 0 1.92.44 3.12.88.06.1 0 0 .14.17a1.54 1.54 0 01.16.18 2.5 2.5 0 01.68 1.68v4.49zM75.05 52.82a12 12 0 01-1 2.76l-2.24 5.54a14.81 14.81 0 00-.81 2.43c-.39.33-.09.31-.48.65v.25l-.94 2.48h-.16a16.51 16.51 0 01-.7 2.18V91.39H57.85V70.85c0-1.77-1.06-2.78-1.1-3.9l-.22-.33a3.65 3.65 0 01-.14-.35 8.76 8.76 0 01-.74-2.13 4 4 0 01-.65-1.29 4.75 4.75 0 01-.48-1.48 3.81 3.81 0 01-.63-1.37l-.58-1.49c-.37-.92-.75-2-1.16-2.88l-1.09-2.93a9.38 9.38 0 01-.93-2.53 5 5 0 01-.64-1.38 4 4 0 01-.49-1.42l-.39-.68a10.32 10.32 0 01-.7-2.1 7.58 7.58 0 01-1.11-2.8 6.45 6.45 0 01-.95-2.14c-.3-.77-.64-1.49-.87-2.27h10.75c.35.08.26.17.51 1l1 3.32.91 2.82.89 2.68.94 3 .88 2.57.92 2.94L63 59h.63l1.06-3.38.87-2.86.86-2.7.85-2.81.88-2.7.85-2.86c.12-.55 1.08-4.19 1.48-4.31h10.8a32.71 32.71 0 01-1.8 4.35 10.07 10.07 0 01-.74 2.13l-.37.65a9 9 0 01-1.11 2.77 11.48 11.48 0 01-1 2.73 10.52 10.52 0 01-1.21 2.81z" fill="currentColor" fill-rule="evenodd" data-name="Layer 1"/>
  </g>
</symbol></svg>